<svg width="60" height="60" viewBox="0 0 60 60" fill="none" xmlns="http://www.w3.org/2000/svg">
<path d="M60 0H0V60H60V0Z" fill="#FFAF01"/>
<path d="M60 0H0V60H60V0Z" fill="#FFDC55"/>
<mask id="mask0_50_166" style="mask-type:luminance" maskUnits="userSpaceOnUse" x="0" y="0" width="60" height="60">
<path d="M60 0H0V60H60V0Z" fill="white"/>
</mask>
<g mask="url(#mask0_50_166)">
<path fill-rule="evenodd" clip-rule="evenodd" d="M38.934 63.3071V54.5665C40.7132 53.753 42.4098 52.6881 43.9641 51.3554C47.7507 48.1211 50.145 43.8517 51.0676 39.3144L43.4515 37.7634C42.8628 40.657 41.3416 43.3721 38.9208 45.439C33.1698 50.3467 24.5186 49.6556 19.6175 43.9079C17.997 42.0129 16.9917 39.8038 16.575 37.5219L8.92578 38.9274C9.58719 42.5156 11.1713 45.9847 13.7045 48.9511C16.0657 51.7258 18.9892 53.7464 22.1639 54.9931V68.5256C27.5478 66.3992 33.1335 64.6531 38.934 63.3038V63.3071ZM33.9503 45.7235C36.7911 43.5441 37.3268 39.4731 35.1475 36.639C32.9714 33.8015 28.9037 33.2625 26.063 35.4352C23.2255 37.6145 22.6865 41.6822 24.8691 44.5197C27.0419 47.3571 31.1128 47.8962 33.9503 45.7201V45.7235Z" fill="#FFAF01"/>
<path fill-rule="evenodd" clip-rule="evenodd" d="M29.9983 25.7819L40.313 22.9643V7.9469L29.9983 10.7645V25.7819ZM29.9983 25.7819V10.7645L19.6836 7.9469V22.9643L29.9983 25.7819Z" fill="#FFAF01"/>
</g>
</svg>
