<svg width="60" height="60" viewBox="0 0 60 60" fill="none" xmlns="http://www.w3.org/2000/svg">
<path d="M60 0H0V60H60V0Z" fill="#FFAF01"/>
<path fill-rule="evenodd" clip-rule="evenodd" d="M0.0693359 59.9835V0.0595703H59.9966V0.261301L59.9701 1.81893V2.02066L59.8775 3.79986L59.8478 4.21655L59.7353 5.58567L59.6857 6.11149L59.5237 7.50707L59.4774 7.90061L59.2128 9.68973L59.1665 9.9543L58.892 11.4656L58.7895 11.9782L58.4985 13.3176L58.3894 13.7905L57.9462 15.573L57.8834 15.788L57.5626 16.9289L57.4006 17.4613L57.1459 18.2947L56.9574 18.8668L56.6928 19.6539L56.4944 20.2227L56.2001 21.0263L56.005 21.5489L55.618 22.5344L55.4924 22.8518L54.9599 24.1052L54.7516 24.5715L54.3878 25.3751L54.1398 25.8943L53.7826 26.6351L53.5214 27.1543L53.1378 27.9017L52.8831 28.3845L52.4069 29.251L52.2217 29.5883L51.5471 30.7491L51.3089 31.1426L50.8327 31.9165L50.5384 32.3795L50.0886 33.074L49.7745 33.5403L49.4669 33.99L48.1937 35.7791L48.1077 35.8916L46.8047 37.5716L46.5997 37.8262L45.2206 39.4599L44.9528 39.7641L43.4911 41.3581L43.3588 41.4937L41.8937 42.9654L41.6722 43.1836L40.1179 44.6255L39.807 44.9L38.1865 46.2857L38.0046 46.4345L36.4007 47.6978L36.1659 47.8764L34.4562 49.1165L34.1089 49.3579L32.3496 50.5286L32.1181 50.6741L30.3918 51.7258L30.1537 51.868L28.3083 52.8932L27.7494 53.1908L27.3063 53.419L26.4994 53.8225L26.1058 54.0176L25.0277 54.5269L24.8988 54.5864L23.6718 55.1287L23.3147 55.2776L22.4317 55.6446L21.9885 55.8199L21.1651 56.1374L20.7087 56.3094L19.8555 56.6169L19.4388 56.7624L18.3673 57.1163L18.1656 57.1824L16.8692 57.5793L16.555 57.6686L15.5695 57.9431L15.133 58.0588L14.25 58.2804L13.787 58.3928L12.8875 58.5978L12.4609 58.6904L11.3861 58.9087L11.1348 58.9583L9.78217 59.1964L9.53745 59.2361L8.43951 59.4015L8.01621 59.4577L7.077 59.5767L6.61733 59.6297L5.67481 59.7256L5.24489 59.7652L4.16017 59.8479L3.87908 59.8678L2.4802 59.9405H2.34791L1.10445 59.9802H0.710907L0.0693359 59.9868V59.9835Z" fill="#FFDC55"/>
<path fill-rule="evenodd" clip-rule="evenodd" d="M0.0693359 50.3302V0.0595703H50.34V0.529173C50.3003 4.67292 49.7447 8.8795 48.6236 13.0662C42.6742 35.2599 22.7359 49.9962 0.839887 50.3269H0.0693359V50.3302Z" fill="#FFAF01"/>
<path fill-rule="evenodd" clip-rule="evenodd" d="M0.0693359 40.6769V0.0595703H40.6867V0.439882C40.6569 3.78993 40.2038 7.18629 39.2977 10.5694C34.4958 28.497 18.3805 40.4057 0.687755 40.6736H0.0693359V40.6769Z" fill="#FFDC55"/>
<path fill-rule="evenodd" clip-rule="evenodd" d="M0.0693359 31.017V0.0595703H31.03V0.350592C31.0102 2.90364 30.6663 5.49307 29.9751 8.07258C26.3836 21.4794 14.4881 30.4713 1.30288 31.0004L0.0693359 31.0203V31.017Z" fill="#FFAF01"/>
<path fill-rule="evenodd" clip-rule="evenodd" d="M0.0693359 21.3637V0.0595703H21.3767V0.261301C21.3635 2.01735 21.1254 3.79986 20.6525 5.57244C18.1788 14.7958 9.99052 20.9866 0.915943 21.3504L0.0693359 21.3637Z" fill="#FFDC55"/>
<path fill-rule="evenodd" clip-rule="evenodd" d="M0.0693359 11.7103V0.0595703H11.7234V0.17201C11.7168 1.13106 11.5878 2.10664 11.3266 3.07561C9.9773 8.11557 5.48961 11.5053 0.529022 11.707L0.0693359 11.7137V11.7103Z" fill="#FFAF01"/>
</svg>
