<svg width="360" height="360" viewBox="0 0 360 360" fill="none" xmlns="http://www.w3.org/2000/svg">
<g opacity="0.5">
<path d="M180 180L180 0L0 -7.86805e-06L-7.86805e-06 180L180 180Z" fill="white"/>
<path fill-rule="evenodd" clip-rule="evenodd" d="M180 0.218267L180 179.99L0.0099256 179.99C-0.0198256 100.511 53.0387 27.7099 133.42 6.17097C148.976 2.00408 164.612 0.00992051 180 0L180 0.218267Z" fill="#FFAF01"/>
<path d="M180 180L360 180L360 0L180 1.57361e-05L180 180Z" fill="white"/>
<path fill-rule="evenodd" clip-rule="evenodd" d="M359.782 180L180.01 180L180.01 0.00994921C259.489 -0.0198124 332.29 53.0387 353.829 133.42C357.996 148.976 359.99 164.612 360 180L359.782 180Z" fill="#FFAF01"/>
<path d="M180 180L0 180L0 360L180 360L180 180Z" fill="white"/>
<path fill-rule="evenodd" clip-rule="evenodd" d="M0.218267 180L179.99 180L179.99 359.99C100.511 360.02 27.7099 306.961 6.17098 226.58C2.00408 211.024 0.00992118 195.388 0 180H0.218267Z" fill="#FFAF01"/>
<path d="M180 180L180 360L360 360L360 180L180 180Z" fill="white"/>
<path fill-rule="evenodd" clip-rule="evenodd" d="M180 359.782L180 180.01L359.99 180.01C360.02 259.489 306.961 332.29 226.58 353.829C211.024 357.996 195.388 359.99 180 360L180 359.782Z" fill="#FFAF01"/>
</g>
</svg>
