<svg width="365" height="362" viewBox="0 0 365 362" fill="none" xmlns="http://www.w3.org/2000/svg">
<g opacity="0.5">
<path d="M0 180L182 180L182 0L1.59109e-05 -1.57361e-05L0 180Z" fill="white"/>
<path fill-rule="evenodd" clip-rule="evenodd" d="M181.79 0.0497284L181.79 179.822L0.0104828 179.822L0.0104828 179.216L0.0907445 174.543L0.0907445 173.938L0.371598 168.601L0.4619 167.351L0.802934 163.243L0.953432 161.666L1.44496 157.479L1.58542 156.298L2.38793 150.931L2.52837 150.137L3.361 145.603L3.67197 144.066L4.55474 140.048L4.88573 138.629L6.22997 133.281L6.42057 132.636L7.39359 129.214L7.88512 127.616L8.65755 125.116L9.22936 123.4L10.0319 121.039L10.6338 119.332L11.5265 116.921L12.1184 115.354L13.2921 112.397L13.6733 111.445L15.2883 107.685L15.9203 106.286L17.0238 103.875L17.7761 102.317L18.8595 100.095L19.652 98.5373L20.8156 96.2951L21.5881 94.8466L23.0326 92.2472L23.5944 91.2353L25.6407 87.7529L26.363 86.5723L27.8076 84.2508L28.7003 82.8618L30.0646 80.7784L31.0176 79.3795L31.9505 78.0302L35.8126 72.6628L36.0734 72.3255L40.0258 67.2856L40.6478 66.5216L44.8309 61.6206L45.6434 60.7078L50.0773 55.9258L50.4785 55.519L54.9225 51.1041L55.5945 50.4493L60.3093 46.1237L61.2523 45.3002L66.1677 41.1432L66.7194 40.6968L71.5846 36.9069L72.2969 36.3712L77.4831 32.6507L78.5364 31.9265L83.8731 28.4144L84.5753 27.9779L89.8118 24.8229L90.534 24.3963L96.1315 21.3207L97.8268 20.4278L99.171 19.7433L101.619 18.5329L102.812 17.9475L106.083 16.4197L106.474 16.2411L110.196 14.614L111.279 14.1676L113.957 13.0663L115.302 12.5405L117.799 11.5881L119.184 11.0722L121.772 10.1495L123.036 9.71295L126.286 8.65138L126.898 8.45295L130.83 7.26242L131.783 6.99455L134.773 6.17109L136.097 5.82385L138.775 5.15913L140.179 4.8218L142.908 4.20669L144.202 3.92891L147.462 3.27411L148.225 3.12529L152.328 2.41096L153.07 2.29191L156.4 1.79585L157.684 1.62718L160.533 1.27003L161.928 1.1113L164.787 0.823576L166.091 0.704527L169.381 0.456496L170.234 0.396972L174.477 0.178695L174.878 0.178695L178.65 0.0596463L179.844 0.0596464L181.79 0.0398102L181.79 0.0497284Z" fill="#FFDC55"/>
<path fill-rule="evenodd" clip-rule="evenodd" d="M181.79 29.0097L181.79 179.822L29.3022 179.822L29.3022 178.413C29.4226 165.981 31.1079 153.362 34.5085 140.802C52.5551 74.2205 113.034 30.0117 179.452 29.0196L181.79 29.0196L181.79 29.0097Z" fill="white"/>
<path fill-rule="evenodd" clip-rule="evenodd" d="M181.79 57.9696L181.79 179.822L58.5839 179.822L58.5839 178.681C58.6742 168.63 60.0485 158.441 62.7971 148.292C77.3627 94.5093 126.246 58.7831 179.914 57.9795L181.79 57.9795L181.79 57.9696Z" fill="#FFDC55"/>
<path fill-rule="evenodd" clip-rule="evenodd" d="M181.79 86.9494L181.79 179.822L87.8757 179.822L87.8757 178.948C87.9359 171.289 88.9791 163.521 91.0757 155.783C101.97 115.562 138.053 88.5864 178.048 86.999L181.79 86.9394L181.79 86.9494Z" fill="white"/>
<path fill-rule="evenodd" clip-rule="evenodd" d="M181.79 115.909L181.79 179.822L117.157 179.822L117.157 179.216C117.198 173.948 117.92 168.601 119.354 163.283C126.858 135.613 151.696 117.04 179.222 115.949L181.79 115.909Z" fill="#FFDC55"/>
<path fill-rule="evenodd" clip-rule="evenodd" d="M181.79 144.869L181.79 179.822L146.439 179.822L146.439 179.484C146.459 176.607 146.85 173.68 147.643 170.773C151.736 155.654 165.348 145.484 180.395 144.879L181.79 144.859L181.79 144.869Z" fill="white"/>
<path d="M182 0L182 182L362 182L362 -7.52028e-06L182 0Z" fill="white"/>
<path fill-rule="evenodd" clip-rule="evenodd" d="M361.95 181.79L182.178 181.79L182.178 0.0104828L182.784 0.0104828L187.457 0.0907438L188.062 0.0907438L193.399 0.371597L194.649 0.461898L198.757 0.802932L200.334 0.953429L204.521 1.44496L205.702 1.58542L211.069 2.38792L211.863 2.52836L216.397 3.36099L217.934 3.67197L221.952 4.55473L223.371 4.88573L228.719 6.22996L229.364 6.42056L232.786 7.39358L234.384 7.88511L236.884 8.65754L238.6 9.22935L240.961 10.0318L242.668 10.6338L245.079 11.5265L246.646 12.1184L249.603 13.2921L250.555 13.6733L254.315 15.2883L255.714 15.9203L258.125 17.0238L259.683 17.7761L261.905 18.8595L263.463 19.652L265.705 20.8156L267.153 21.5881L269.753 23.0326L270.765 23.5943L274.247 25.6407L275.428 26.363L277.749 27.8076L279.138 28.7003L281.222 30.0646L282.62 31.0176L283.97 31.9505L289.337 35.8126L289.674 36.0734L294.714 40.0258L295.478 40.6477L300.379 44.8308L301.292 45.6434L306.074 50.0773L306.481 50.4785L310.896 54.9224L311.551 55.5945L315.876 60.3093L316.7 61.2523L320.857 66.1677L321.303 66.7194L325.093 71.5846L325.629 72.2969L329.349 77.4831L330.074 78.5364L333.586 83.8731L334.022 84.5753L337.177 89.8117L337.604 90.534L340.679 96.1315L341.572 97.8268L342.257 99.171L343.467 101.619L344.052 102.812L345.58 106.083L345.759 106.474L347.386 110.196L347.832 111.279L348.934 113.957L349.46 115.302L350.412 117.799L350.928 119.184L351.851 121.772L352.287 123.036L353.349 126.286L353.547 126.898L354.738 130.83L355.005 131.783L355.829 134.773L356.176 136.097L356.841 138.775L357.178 140.179L357.793 142.908L358.071 144.202L358.726 147.462L358.875 148.225L359.589 152.328L359.708 153.07L360.204 156.4L360.373 157.684L360.73 160.533L360.889 161.928L361.176 164.787L361.295 166.091L361.544 169.381L361.603 170.234L361.821 174.477L361.821 174.878L361.94 178.65L361.94 179.844L361.96 181.79L361.95 181.79Z" fill="#FFDC55"/>
<path fill-rule="evenodd" clip-rule="evenodd" d="M332.99 181.79L182.178 181.79L182.178 29.3022L183.587 29.3022C196.019 29.4226 208.638 31.1079 221.198 34.5085C287.78 52.555 331.988 113.034 332.98 179.452L332.98 181.79L332.99 181.79Z" fill="white"/>
<path fill-rule="evenodd" clip-rule="evenodd" d="M304.03 181.79L182.178 181.79L182.178 58.5839L183.319 58.5839C193.37 58.6742 203.559 60.0485 213.708 62.7971C267.491 77.3627 303.217 126.246 304.021 179.914L304.021 181.79L304.03 181.79Z" fill="#FFDC55"/>
<path fill-rule="evenodd" clip-rule="evenodd" d="M275.051 181.79L182.178 181.79L182.178 87.8757L183.052 87.8757C190.711 87.9359 198.479 88.9791 206.217 91.0757C246.438 101.97 273.414 138.053 275.001 178.048L275.061 181.79L275.051 181.79Z" fill="white"/>
<path fill-rule="evenodd" clip-rule="evenodd" d="M246.091 181.79L182.178 181.79L182.178 117.157L182.784 117.157C188.052 117.198 193.399 117.92 198.717 119.354C226.387 126.858 244.96 151.696 246.051 179.222L246.091 181.79Z" fill="#FFDC55"/>
<path fill-rule="evenodd" clip-rule="evenodd" d="M217.131 181.79L182.178 181.79L182.178 146.439L182.516 146.439C185.393 146.459 188.32 146.85 191.227 147.643C206.346 151.736 216.516 165.348 217.121 180.395L217.141 181.79L217.131 181.79Z" fill="white"/>
<path d="M182 362L182 182L0 182L-7.95547e-06 362L182 362Z" fill="white"/>
<path fill-rule="evenodd" clip-rule="evenodd" d="M0.0503235 182.208L181.82 182.208L181.82 361.99L181.208 361.99L176.483 361.911L175.871 361.911L170.474 361.633L169.21 361.544L165.057 361.206L163.462 361.057L159.229 360.571L158.035 360.432L152.608 359.639L151.806 359.5L147.221 358.676L145.666 358.369L141.604 357.496L140.169 357.168L134.762 355.839L134.11 355.65L130.649 354.688L129.034 354.202L126.506 353.438L124.771 352.872L122.383 352.079L120.658 351.483L118.22 350.601L116.635 350.015L113.646 348.854L112.683 348.477L108.881 346.88L107.467 346.255L105.029 345.164L103.454 344.42L101.207 343.348L99.6322 342.564L97.3651 341.413L95.9005 340.65L93.2723 339.221L92.2491 338.665L88.728 336.641L87.5343 335.927L85.1869 334.498L83.7825 333.615L81.6759 332.266L80.2615 331.324L78.8972 330.401L73.4702 326.581L73.1292 326.323L68.0332 322.414L67.2608 321.799L62.3053 317.662L61.3824 316.859L56.5473 312.473L56.136 312.077L51.672 307.681L51.0099 307.017L46.6362 302.354L45.8036 301.421L41.6004 296.56L41.149 296.014L37.317 291.202L36.7753 290.498L33.0135 285.369L32.2813 284.327L28.7301 279.049L28.2888 278.354L25.0988 273.176L24.6674 272.461L21.5577 266.925L20.6549 265.249L19.9627 263.919L18.7388 261.498L18.147 260.318L16.6022 257.083L16.4216 256.696L14.7765 253.016L14.325 251.944L13.2116 249.295L12.6799 247.966L11.7169 245.496L11.1952 244.126L10.2623 241.567L9.82092 240.317L8.74756 237.102L8.54692 236.497L7.34315 232.608L7.07231 231.665L6.23971 228.709L5.88861 227.399L5.21651 224.75L4.87543 223.361L4.25348 220.663L3.97261 219.383L3.31053 216.159L3.16006 215.405L2.4378 211.347L2.31743 210.613L1.81586 207.319L1.64531 206.049L1.28419 203.231L1.12369 201.852L0.832778 199.025L0.712402 197.735L0.461608 194.481L0.401428 193.637L0.180725 189.441L0.180725 189.044L0.0603484 185.314L0.0603484 184.133L0.0402985 182.208L0.0503235 182.208Z" fill="#FFDC55"/>
<path fill-rule="evenodd" clip-rule="evenodd" d="M29.332 182.208L181.82 182.208L181.82 333.02L180.395 333.02C167.826 332.901 155.066 331.234 142.366 327.871C75.0452 310.023 30.3452 250.208 29.3421 184.52L29.3421 182.208L29.332 182.208Z" fill="white"/>
<path fill-rule="evenodd" clip-rule="evenodd" d="M58.6137 182.208L181.82 182.208L181.82 304.06L180.666 304.06C170.504 303.971 160.202 302.612 149.94 299.893C95.5594 285.488 59.4363 237.142 58.6237 184.064L58.6237 182.208L58.6137 182.208Z" fill="#FFDC55"/>
<path fill-rule="evenodd" clip-rule="evenodd" d="M87.9155 182.208L181.82 182.208L181.82 275.09L180.937 275.09C173.193 275.031 165.338 273.999 157.513 271.925C116.846 261.151 89.5707 225.465 87.9657 185.909L87.9055 182.208L87.9155 182.208Z" fill="white"/>
<path fill-rule="evenodd" clip-rule="evenodd" d="M117.197 182.208L181.82 182.208L181.82 246.13L181.208 246.13C175.881 246.091 170.474 245.376 165.097 243.958C137.12 236.537 118.341 211.972 117.237 184.748L117.197 182.208Z" fill="#FFDC55"/>
<path fill-rule="evenodd" clip-rule="evenodd" d="M146.479 182.208L181.82 182.208L181.82 217.17L181.479 217.17C178.569 217.151 175.61 216.764 172.671 215.98C157.383 211.932 147.101 198.469 146.489 183.587L146.469 182.208L146.479 182.208Z" fill="white"/>
<path d="M364 182H182V362H364V182Z" fill="white"/>
<path fill-rule="evenodd" clip-rule="evenodd" d="M182.21 361.95V182.178H363.99V182.784L363.909 187.457V188.062L363.628 193.399L363.538 194.649L363.197 198.757L363.047 200.334L362.555 204.521L362.415 205.702L361.612 211.069L361.472 211.863L360.639 216.397L360.328 217.934L359.445 221.952L359.114 223.371L357.77 228.719L357.579 229.364L356.606 232.786L356.115 234.384L355.342 236.884L354.771 238.6L353.968 240.961L353.366 242.668L352.473 245.079L351.882 246.646L350.708 249.603L350.327 250.555L348.712 254.315L348.08 255.714L346.976 258.125L346.224 259.683L345.141 261.905L344.348 263.463L343.184 265.705L342.412 267.153L340.967 269.753L340.406 270.765L338.359 274.247L337.637 275.428L336.192 277.749L335.3 279.138L333.935 281.222L332.982 282.621L332.049 283.97L328.187 289.337L327.927 289.674L323.974 294.714L323.352 295.478L319.169 300.379L318.357 301.292L313.923 306.074L313.521 306.481L309.078 310.896L308.405 311.551L303.691 315.876L302.748 316.7L297.832 320.857L297.281 321.303L292.415 325.093L291.703 325.629L286.517 329.349L285.464 330.074L280.127 333.586L279.425 334.022L274.188 337.177L273.466 337.604L267.868 340.679L266.173 341.572L264.829 342.257L262.381 343.467L261.188 344.052L257.917 345.58L257.526 345.759L253.804 347.386L252.721 347.832L250.043 348.934L248.698 349.46L246.201 350.412L244.816 350.928L242.228 351.851L240.964 352.287L237.714 353.349L237.102 353.547L233.17 354.738L232.217 355.005L229.227 355.829L227.903 356.176L225.225 356.841L223.821 357.178L221.092 357.793L219.798 358.071L216.538 358.726L215.775 358.875L211.672 359.589L210.93 359.708L207.6 360.204L206.316 360.373L203.467 360.73L202.072 360.889L199.213 361.176L197.909 361.295L194.619 361.544L193.766 361.603L189.523 361.821H189.122L185.35 361.94H184.156L182.21 361.96V361.95Z" fill="#FFDC55"/>
<path fill-rule="evenodd" clip-rule="evenodd" d="M182.21 332.99V182.178H334.698V183.587C334.577 196.019 332.892 208.638 329.491 221.198C311.445 287.78 250.966 331.988 184.548 332.98H182.21V332.99Z" fill="white"/>
<path fill-rule="evenodd" clip-rule="evenodd" d="M182.21 304.03V182.178H305.416V183.319C305.326 193.37 303.951 203.559 301.203 213.708C286.637 267.491 237.754 303.217 184.086 304.021H182.21V304.03Z" fill="#FFDC55"/>
<path fill-rule="evenodd" clip-rule="evenodd" d="M182.21 275.051V182.178H276.124V183.052C276.064 190.711 275.021 198.479 272.924 206.217C262.03 246.438 225.947 273.414 185.952 275.001L182.21 275.061V275.051Z" fill="white"/>
<path fill-rule="evenodd" clip-rule="evenodd" d="M182.21 246.091V182.178H246.843V182.784C246.802 188.052 246.08 193.399 244.646 198.717C237.142 226.387 212.304 244.96 184.778 246.051L182.21 246.091Z" fill="#FFDC55"/>
<path fill-rule="evenodd" clip-rule="evenodd" d="M182.21 217.131V182.178H217.561V182.516C217.541 185.393 217.15 188.32 216.357 191.227C212.264 206.346 198.652 216.516 183.605 217.121L182.21 217.141V217.131Z" fill="white"/>
</g>
</svg>
