<svg width="495" height="495" viewBox="0 0 495 495" fill="none" xmlns="http://www.w3.org/2000/svg">
<g opacity="0.2">
<path fill-rule="evenodd" clip-rule="evenodd" d="M494.4 0.0275879H0V495C218.578 495.082 418.794 349.171 478.029 128.122C489.488 85.3422 494.973 42.3439 495 0.0275879H494.4Z" fill="#7F3A00"/>
<path fill-rule="evenodd" clip-rule="evenodd" d="M0 494.946V0.0275879H494.973V1.69183L494.754 14.5421V16.2065L493.99 30.8849L493.745 34.3225L492.817 45.6178L492.408 49.9559L491.071 61.4694L490.689 64.7161L488.506 79.4764L488.097 81.659L485.832 94.1548L484.986 98.3837L482.613 109.433L481.712 113.335L478.029 128.068L477.538 129.841L474.864 139.254L473.554 143.646L471.426 150.522L469.871 155.242L467.688 161.735L466.051 166.428L463.623 173.058L462.013 177.369L458.793 185.526L457.756 188.145L453.363 198.486L451.644 202.333L448.643 208.963L446.597 213.246L443.65 219.358L441.494 223.641L438.302 229.807L436.229 233.79L432.3 240.966L430.744 243.749L425.206 253.325L423.214 256.572L419.285 262.956L416.856 266.776L413.118 272.505L410.554 276.38L408.016 280.09L397.484 294.878L396.775 295.805L386.025 309.665L384.333 311.766L372.928 325.244L370.718 327.781L358.658 340.932L357.567 342.05L345.452 354.219L343.624 356.019L330.773 367.915L328.236 370.179L314.839 381.638L313.311 382.866L300.078 393.316L298.14 394.789L284.034 405.02L281.169 407.012L266.627 416.67L264.717 417.87L250.447 426.574L248.482 427.747L233.257 436.205L228.619 438.66L224.963 440.543L218.305 443.871L215.058 445.481L206.136 449.683L205.072 450.174L194.95 454.648L192.003 455.876L184.69 458.904L181.034 460.351L174.241 462.97L170.475 464.388L163.408 466.926L159.97 468.126L151.13 471.073L149.466 471.619L138.77 474.893L136.151 475.629L128.047 477.894L124.419 478.849L117.133 480.677L113.314 481.604L105.892 483.296L102.345 484.06L93.4776 485.86L91.4039 486.27L80.2172 488.234L78.1982 488.561L69.1123 489.926L65.6199 490.389L57.871 491.372L54.0784 491.808L46.3023 492.599L42.728 492.927L33.7785 493.609L31.4594 493.772L19.918 494.373H18.8265L8.56745 494.7H5.32056L0 494.755V494.946Z" fill="white"/>
<path fill-rule="evenodd" clip-rule="evenodd" d="M0 415.224V0.0275879H415.219V3.92907C414.892 38.1696 410.281 72.901 401.031 107.496C351.919 290.785 187.228 412.496 6.35739 415.224H0Z" fill="#FFAF01"/>
<path fill-rule="evenodd" clip-rule="evenodd" d="M0 335.475V0H335.493V3.13747C335.22 30.8027 331.51 58.8773 324.006 86.8153C284.334 234.882 151.267 333.237 5.12955 335.447H0V335.475Z" fill="white"/>
<path fill-rule="evenodd" clip-rule="evenodd" d="M0 255.726V0.0275879H255.713V2.42836C255.549 23.5183 252.711 44.9085 247.009 66.1895C217.323 176.905 119.098 251.197 10.1773 255.562L0 255.726Z" fill="#FFAF01"/>
<path fill-rule="evenodd" clip-rule="evenodd" d="M0 176.005V0.0275879H175.987V1.69183C175.877 16.2065 173.913 30.9121 170.011 45.5632C149.602 121.738 81.9361 172.867 6.98489 175.895L0 176.005Z" fill="white"/>
<path fill-rule="evenodd" clip-rule="evenodd" d="M0 96.2552V0H96.2607V0.927537C96.2061 8.86696 95.142 16.9156 92.9865 24.9096C81.827 66.5166 44.7743 94.5092 3.79262 96.1734L0 96.2279V96.2552Z" fill="#FFAF01"/>
<path d="M494.454 0.572754H0.545166V494.454H494.454V0.572754Z" fill="white"/>
<mask id="mask0_43_1976" style="mask-type:luminance" maskUnits="userSpaceOnUse" x="0" y="0" width="495" height="495">
<path d="M494.454 0.572754H0.545166V494.454H494.454V0.572754Z" fill="white"/>
</mask>
<g mask="url(#mask0_43_1976)">
<path fill-rule="evenodd" clip-rule="evenodd" d="M341.359 596.084V513.607H317.485V582.197C294.729 569.456 271.428 557.751 247.527 547.138V524.411H247.499V293.349V272.887C219.287 263.665 192.384 249.614 168.264 230.571C123.708 195.457 95.2505 148.694 84.2002 98.5744L139.124 86.4606C147.364 123.757 168.619 159.225 203.08 186.426C285.807 251.633 410.526 242.166 480.511 166.264C503.43 141.464 517.482 112.762 523.375 83.3503L578.491 94.3453C570.633 133.988 551.724 172.021 521.847 204.379C491.807 236.928 454.345 259.9 413.827 273.023L413.773 645.085V644.758C390.335 627.242 366.188 610.981 341.359 596.03V596.084ZM290.991 192.647C263.133 171.311 257.868 131.314 279.232 103.485C300.623 75.6291 340.568 70.3362 368.453 91.7262C396.31 113.062 401.604 153.032 380.212 180.888C358.821 208.744 318.904 214.037 290.991 192.647Z" fill="#FFAF01"/>
<path d="M88.5663 313.512H44.2832V494.427H88.5663V313.512Z" fill="#ED7C31"/>
<path fill-rule="evenodd" clip-rule="evenodd" d="M0.0268555 494.454V332.992H44.3099V313.539H88.5659V352.445H132.849V494.454H88.5659H44.3099H0.0268555Z" fill="#FFAF01"/>
<path d="M172.375 379.912L131.126 391.568L165.176 512.052L206.425 500.396L172.375 379.912Z" fill="#FFAF01"/>
</g>
</g>
</svg>
