<svg width="40" height="41" viewBox="0 0 40 41" fill="none" xmlns="http://www.w3.org/2000/svg">
<circle cx="20" cy="20.5" r="19" stroke="#999999" stroke-width="2"/>
<path fill-rule="evenodd" clip-rule="evenodd" d="M13.3661 12.8661C13.8543 12.378 14.6457 12.378 15.1339 12.8661L20.5 18.2322L25.8661 12.8661C26.3543 12.378 27.1457 12.378 27.6339 12.8661C28.122 13.3543 28.122 14.1457 27.6339 14.6339L22.2678 20L27.6339 25.3661C28.122 25.8543 28.122 26.6457 27.6339 27.1339C27.1457 27.622 26.3543 27.622 25.8661 27.1339L20.5 21.7678L15.1339 27.1339C14.6457 27.622 13.8543 27.622 13.3661 27.1339C12.878 26.6457 12.878 25.8543 13.3661 25.3661L18.7322 20L13.3661 14.6339C12.878 14.1457 12.878 13.3543 13.3661 12.8661Z" fill="#999999" stroke="#999999" stroke-width="2" stroke-linecap="round" stroke-linejoin="round"/>
</svg>
