<svg width="198" height="115" viewBox="0 0 198 115" fill="none" xmlns="http://www.w3.org/2000/svg">
<g clip-path="url(#clip0_983_926)">
<path fill-rule="evenodd" clip-rule="evenodd" d="M48.1118 83.8019V82.5751C48.1118 82.0615 48.1357 81.862 48.5904 81.862C48.8628 81.862 49.1334 81.9193 49.3396 82.152C49.5697 82.4015 49.6857 82.7894 49.6857 83.1627C49.6857 83.8259 49.2991 84.4061 48.7468 84.4061C48.5977 84.4061 48.3511 84.3395 48.2204 84.2398C48.0805 84.14 48.1136 83.983 48.1136 83.8001L48.1118 83.8019ZM47.5926 82.6176V86.0153C47.5926 86.5363 47.6258 86.7025 47.1637 86.7025C47.1067 86.7025 46.998 86.6952 46.998 86.8023C46.998 86.8928 47.0551 86.9095 47.114 86.9095C47.3607 86.9095 47.6166 86.8762 47.8632 86.8762C48.1099 86.8762 48.3492 86.9095 48.6051 86.9095C48.6622 86.9095 48.7119 86.8928 48.7119 86.8023C48.7119 86.6952 48.6051 86.7025 48.5388 86.7025C48.086 86.6952 48.1099 86.5455 48.1099 86.0153V84.6481C48.1099 84.5409 48.1025 84.4171 48.2167 84.4171C48.2737 84.4171 48.3161 84.4412 48.3658 84.4578L48.6787 84.5908C48.7855 84.6315 48.8352 84.6481 48.9512 84.6481C49.6268 84.6481 50.2287 84.0181 50.2287 83.1312C50.2287 82.6915 50.0391 82.2444 49.7501 81.9968C49.4869 81.7659 49.1813 81.716 48.8683 81.716C48.5149 81.716 48.1762 81.7493 47.8135 81.7493C47.5834 81.7493 47.3515 81.716 47.1214 81.716C47.0551 81.716 47.0054 81.74 47.0054 81.8324C47.0054 81.9396 47.1122 81.9396 47.1711 81.9396C47.6331 81.9396 47.5908 82.0966 47.5908 82.6195L47.5926 82.6176Z" fill="#B59C6B"/>
<path fill-rule="evenodd" clip-rule="evenodd" d="M54.3415 82.5585C54.6711 83.0647 54.7778 83.6356 54.7778 84.273C54.7778 84.9104 54.6784 85.4499 54.3747 85.9469C54.0525 86.4365 53.6089 86.7413 53.0971 86.7413C52.5854 86.7413 52.1325 86.4845 51.8196 86.0042C51.4974 85.5238 51.3741 84.8938 51.3741 84.273C51.3741 83.6522 51.4901 83.0555 51.7938 82.5825C52.1068 82.0763 52.5854 81.8028 53.0953 81.8028C53.6052 81.8028 54.0268 82.0855 54.3397 82.5567L54.3415 82.5585ZM53.0898 81.5811C51.9024 81.5811 50.7832 82.7654 50.7832 84.2749C50.7832 85.7843 51.9043 86.976 53.0898 86.976C54.3415 86.976 55.3798 85.8748 55.3798 84.2749C55.3798 82.6749 54.3415 81.5811 53.0898 81.5811Z" fill="#B59C6B"/>
<path fill-rule="evenodd" clip-rule="evenodd" d="M59.5012 82.8744C59.3374 82.8744 59.2785 81.8139 58.2568 81.8139C57.1523 81.8139 56.6 83.0075 56.6 84.249C56.6 84.8365 56.7326 85.3926 57.0124 85.873C57.318 86.3959 57.7211 86.7506 58.2568 86.7506C59.2785 86.7506 59.3613 85.4499 59.5343 85.4499C59.5914 85.4499 59.6172 85.4998 59.608 85.5571L59.5748 86.2277C59.5675 86.4845 59.5675 86.5012 59.3687 86.6249C58.9729 86.8577 58.6102 86.9723 58.174 86.9723C56.97 86.9723 56.0146 85.7215 56.0146 84.2546C56.0146 82.7876 57.0934 81.5775 58.3047 81.5775C58.601 81.5775 59.0631 81.6772 59.3429 81.801C59.5325 81.8842 59.5067 81.9913 59.5325 82.2241L59.573 82.7617C59.573 82.8282 59.5564 82.8689 59.4994 82.8689L59.5012 82.8744Z" fill="#B59C6B"/>
<path fill-rule="evenodd" clip-rule="evenodd" d="M63.5051 82.8744C63.3413 82.8744 63.2824 81.8139 62.2607 81.8139C61.1562 81.8139 60.6039 83.0075 60.6039 84.249C60.6039 84.8365 60.7365 85.3926 61.0163 85.873C61.3219 86.3959 61.725 86.7506 62.2607 86.7506C63.2824 86.7506 63.3652 85.4499 63.5382 85.4499C63.5953 85.4499 63.6211 85.4998 63.6119 85.5571L63.5787 86.2277C63.5714 86.4845 63.5714 86.5012 63.3726 86.6249C62.9768 86.8577 62.6141 86.9723 62.1779 86.9723C60.9739 86.9723 60.0186 85.7215 60.0186 84.2546C60.0186 82.7876 61.0973 81.5775 62.3086 81.5775C62.6049 81.5775 63.067 81.6772 63.3468 81.801C63.5364 81.8842 63.5125 81.9913 63.5364 82.2241L63.5769 82.7617C63.5769 82.8282 63.5603 82.8689 63.5033 82.8689L63.5051 82.8744Z" fill="#B59C6B"/>
<path fill-rule="evenodd" clip-rule="evenodd" d="M67.2054 82.0874C67.2791 81.9544 67.395 81.7567 67.5349 81.7142H68.2602C68.3339 81.7142 68.4167 81.7216 68.4167 81.8472C68.4167 81.9377 68.3173 81.9377 68.251 81.9377C67.905 81.9377 67.9142 82.104 67.9142 82.625V86.0134C67.9142 86.5437 67.8902 86.6933 68.3431 86.7007C68.4001 86.7007 68.5161 86.6933 68.5161 86.8005C68.5161 86.891 68.4664 86.9076 68.4001 86.9076C68.1535 86.9076 67.9142 86.8744 67.6675 86.8744C67.4208 86.8744 67.1649 86.9076 66.9183 86.9076C66.852 86.9076 66.8023 86.891 66.8023 86.8005C66.8023 86.6933 66.9091 86.7007 66.968 86.7007C67.43 86.7007 67.3969 86.5344 67.3969 86.0134V82.1687L64.851 86.734C64.8105 86.8005 64.6945 87 64.6209 87C64.5638 87 64.5381 86.8836 64.5381 86.843V82.6675C64.5381 82.1447 64.5546 81.9802 64.1018 81.9377C64.0447 81.9303 63.9453 81.9377 63.9453 81.8306C63.9453 81.74 63.9858 81.7142 64.0521 81.7142C64.308 81.7142 64.5473 81.7474 64.7939 81.7474C65.0406 81.7474 65.2965 81.7142 65.5432 81.7142C65.6002 81.7142 65.6591 81.7382 65.6591 81.8306C65.6591 81.9377 65.5432 81.9377 65.4861 81.9377C65.0167 81.971 65.0572 82.1447 65.0572 82.6675V85.849L67.2073 82.0874H67.2054Z" fill="#B59C6B"/>
<path fill-rule="evenodd" clip-rule="evenodd" d="M72.1076 82.0874C72.1812 81.9544 72.2972 81.7567 72.4371 81.7142H73.1624C73.236 81.7142 73.3188 81.7216 73.3188 81.8472C73.3188 81.9377 73.2194 81.9377 73.1532 81.9377C72.8071 81.9377 72.8144 82.104 72.8144 82.625V86.0134C72.8144 86.5437 72.7905 86.6933 73.2434 86.7007C73.3004 86.7007 73.4164 86.6933 73.4164 86.8005C73.4164 86.891 73.3667 86.9076 73.3004 86.9076C73.0537 86.9076 72.8144 86.8744 72.5678 86.8744C72.3211 86.8744 72.0652 86.9076 71.8185 86.9076C71.7523 86.9076 71.7026 86.891 71.7026 86.8005C71.7026 86.6933 71.8093 86.7007 71.8664 86.7007C72.3285 86.7007 72.2953 86.5344 72.2953 86.0134V82.1687L69.7494 86.734C69.7089 86.8005 69.593 87 69.5193 87C69.4623 87 69.4365 86.8836 69.4365 86.843V82.6675C69.4365 82.1447 69.4531 81.9802 69.0002 81.9377C68.9432 81.9303 68.8438 81.9377 68.8438 81.8306C68.8438 81.74 68.8842 81.7142 68.9505 81.7142C69.2064 81.7142 69.4457 81.7474 69.6924 81.7474C69.939 81.7474 70.1949 81.7142 70.4416 81.7142C70.4987 81.7142 70.5576 81.7382 70.5576 81.8306C70.5576 81.9377 70.4416 81.9377 70.3845 81.9377C69.9151 81.971 69.9556 82.1447 69.9556 82.6675V85.849L72.1057 82.0874H72.1076ZM71.7375 81.1839L71.6142 81.2911C71.3915 81.5146 71.2184 81.6551 71.2019 82.0209L71.1853 82.1945C71.1853 82.261 71.1522 82.3608 71.1025 82.3608C71.0288 82.3682 71.0123 82.2112 71.0123 82.104C71.0123 82.104 71.0031 81.6975 70.9883 81.4407C70.9883 81.2578 71.2681 80.9364 71.3749 80.8273C71.605 80.5946 71.6805 80.5539 71.7044 80.1733V79.8426C71.721 79.6357 71.7283 79.5193 71.8112 79.5193C71.8682 79.5027 71.9272 79.6431 71.9511 79.8925C71.9511 79.8925 72.0008 80.1567 71.9916 80.3396C71.975 80.8865 71.9087 81.0195 71.7357 81.1839H71.7375Z" fill="#B59C6B"/>
<path fill-rule="evenodd" clip-rule="evenodd" d="M77.3147 82.8744C77.149 82.8744 77.0919 81.8139 76.0703 81.8139C74.9658 81.8139 74.4135 83.0075 74.4135 84.249C74.4135 84.8365 74.5461 85.3926 74.8259 85.873C75.1314 86.3959 75.5346 86.7506 76.0703 86.7506C77.0919 86.7506 77.1748 85.4499 77.3478 85.4499C77.4049 85.4499 77.4306 85.4998 77.4214 85.5571L77.3883 86.2277C77.3809 86.4845 77.3809 86.5012 77.1821 86.6249C76.7864 86.8577 76.4237 86.9723 75.9874 86.9723C74.7835 86.9723 73.8281 85.7215 73.8281 84.2546C73.8281 82.7876 74.9069 81.5775 76.1181 81.5775C76.4145 81.5775 76.8766 81.6772 77.1564 81.801C77.346 81.8842 77.322 81.9913 77.346 82.2241L77.3865 82.7617C77.3865 82.8282 77.3699 82.8689 77.3128 82.8689L77.3147 82.8744Z" fill="#B59C6B"/>
<path fill-rule="evenodd" clip-rule="evenodd" d="M77.9167 81.9377C77.8596 81.9303 77.751 81.9377 77.751 81.8306C77.751 81.74 77.7915 81.7142 77.8577 81.7142C78.1136 81.7142 78.3529 81.7474 78.5996 81.7474C78.8463 81.7474 79.1022 81.7142 79.3488 81.7142C79.4059 81.7142 79.4648 81.7382 79.4648 81.8306C79.4648 81.9377 79.3488 81.9303 79.2918 81.9377C78.8555 81.9784 78.8628 82.104 78.8628 82.6176V84.1585C78.8628 84.1917 78.8536 84.2915 78.9033 84.2915C78.9273 84.2915 78.9604 84.2509 78.977 84.225L80.2122 82.6583C80.2858 82.5585 80.5343 82.261 80.5343 82.1206C80.5343 81.9636 80.4276 81.9377 80.3282 81.9377C80.2619 81.9377 80.1312 81.9544 80.1312 81.8306C80.1312 81.7474 80.1882 81.7142 80.2379 81.7142C80.4938 81.7142 80.7239 81.7474 80.9798 81.7474C81.2025 81.7474 81.4161 81.7142 81.6315 81.7142C81.6885 81.7142 81.7309 81.7382 81.7309 81.8213C81.7309 81.9451 81.591 81.9377 81.5339 81.9377C81.3701 81.9377 81.2449 81.9377 81.0884 82.0209C80.8914 82.128 80.6595 82.3774 80.5196 82.5677L79.8109 83.4619C79.7704 83.5118 79.647 83.6356 79.647 83.7188C79.647 83.7853 79.7464 83.9183 79.7704 83.9589L80.9577 85.8397C81.0903 86.0393 81.2799 86.346 81.4271 86.5104C81.5505 86.6508 81.6241 86.6841 81.7806 86.7007C81.8468 86.7007 81.9536 86.6933 81.9536 86.8005C81.9536 86.891 81.8708 86.9076 81.8137 86.9076C81.5339 86.9076 81.2707 86.8744 80.989 86.8744C80.7589 86.8744 80.5196 86.9076 80.2895 86.9076C80.2324 86.9076 80.1496 86.915 80.1496 86.8171C80.1496 86.7099 80.2729 86.7173 80.33 86.7173C80.4533 86.7173 80.6761 86.7266 80.6761 86.5104C80.6761 86.37 80.5104 86.1372 80.446 86.0374L79.4151 84.3894C79.3912 84.3488 79.3083 84.1991 79.2586 84.1991C79.2089 84.1991 79.0856 84.382 79.0617 84.406C78.988 84.4966 78.8647 84.6056 78.8647 84.746V86.0134C78.8647 86.5437 78.8647 86.7007 79.2936 86.7007C79.3507 86.7007 79.4666 86.6933 79.4666 86.8005C79.4666 86.891 79.4096 86.9076 79.3507 86.9076C79.104 86.9076 78.8647 86.8744 78.618 86.8744C78.3713 86.8744 78.1155 86.9076 77.8596 86.9076C77.8025 86.9076 77.7528 86.891 77.7528 86.8005C77.7528 86.6933 77.8596 86.7007 77.9185 86.7007C78.3474 86.7007 78.3474 86.5344 78.3474 86.0134V82.6158C78.3474 82.1022 78.3474 81.9784 77.9185 81.9359L77.9167 81.9377Z" fill="#B59C6B"/>
<path fill-rule="evenodd" clip-rule="evenodd" d="M85.391 82.0874C85.4646 81.9544 85.5806 81.7567 85.7205 81.7142H86.4458C86.5194 81.7142 86.6023 81.7216 86.6023 81.8472C86.6023 81.9377 86.5029 81.9377 86.4384 81.9377C86.0923 81.9377 86.0997 82.104 86.0997 82.625V86.0134C86.0997 86.5437 86.0758 86.6933 86.5286 86.7007C86.5857 86.7007 86.7017 86.6933 86.7017 86.8005C86.7017 86.891 86.652 86.9076 86.5857 86.9076C86.339 86.9076 86.0997 86.8744 85.853 86.8744C85.6064 86.8744 85.3505 86.9076 85.1038 86.9076C85.0375 86.9076 84.9878 86.891 84.9878 86.8005C84.9878 86.6933 85.0946 86.7007 85.1535 86.7007C85.6156 86.7007 85.5824 86.5344 85.5824 86.0134V82.1687L83.0366 86.734C82.9961 86.8005 82.8801 87 82.8064 87C82.7494 87 82.7236 86.8836 82.7236 86.843V82.6675C82.7236 82.1447 82.7402 81.9802 82.2873 81.9377C82.2303 81.9303 82.1309 81.9377 82.1309 81.8306C82.1309 81.74 82.1714 81.7142 82.2376 81.7142C82.4935 81.7142 82.7328 81.7474 82.9795 81.7474C83.2262 81.7474 83.482 81.7142 83.7287 81.7142C83.7858 81.7142 83.8447 81.7382 83.8447 81.8306C83.8447 81.9377 83.7287 81.9377 83.6716 81.9377C83.2022 81.971 83.2427 82.1447 83.2427 82.6675V85.849L85.3928 82.0874H85.391Z" fill="#B59C6B"/>
<path fill-rule="evenodd" clip-rule="evenodd" d="M90.2932 82.0874C90.3668 81.9544 90.4828 81.7567 90.6227 81.7142H91.348C91.4216 81.7142 91.5045 81.7216 91.5045 81.8472C91.5045 81.9377 91.4051 81.9377 91.3388 81.9377C90.9927 81.9377 91.0019 82.104 91.0019 82.625V86.0134C91.0019 86.5437 90.978 86.6933 91.4309 86.7007C91.4879 86.7007 91.6039 86.6933 91.6039 86.8005C91.6039 86.891 91.5542 86.9076 91.4879 86.9076C91.2412 86.9076 91.0019 86.8744 90.7553 86.8744C90.5086 86.8744 90.2527 86.9076 90.006 86.9076C89.9398 86.9076 89.8901 86.891 89.8901 86.8005C89.8901 86.6933 89.9968 86.7007 90.0539 86.7007C90.516 86.7007 90.4828 86.5344 90.4828 86.0134V82.1687L87.9369 86.734C87.8964 86.8005 87.7805 87 87.7068 87C87.6498 87 87.624 86.8836 87.624 86.843V82.6675C87.624 82.1447 87.6406 81.9802 87.1877 81.9377C87.1307 81.9303 87.0312 81.9377 87.0312 81.8306C87.0312 81.74 87.0717 81.7142 87.138 81.7142C87.3939 81.7142 87.6332 81.7474 87.8799 81.7474C88.1265 81.7474 88.3824 81.7142 88.6291 81.7142C88.6862 81.7142 88.7451 81.7382 88.7451 81.8306C88.7451 81.9377 88.6291 81.9377 88.572 81.9377C88.1026 81.971 88.1431 82.1447 88.1431 82.6675V85.849L90.2932 82.0874ZM89.9232 81.1839L89.7999 81.2911C89.5771 81.5146 89.4041 81.6551 89.3875 82.0209L89.371 82.1945C89.371 82.261 89.3378 82.3608 89.2881 82.3608C89.2145 82.3682 89.1979 82.2112 89.1979 82.104C89.1979 82.104 89.1906 81.6975 89.174 81.4407C89.174 81.2578 89.4538 80.9364 89.5606 80.8273C89.7907 80.5946 89.8661 80.5539 89.8901 80.1733V79.8426C89.9066 79.6357 89.914 79.5193 89.9968 79.5193C90.0539 79.5027 90.1128 79.6431 90.1367 79.8925C90.1367 79.8925 90.1864 80.1567 90.1772 80.3396C90.1607 80.8865 90.0944 81.0195 89.9214 81.1839H89.9232Z" fill="#B59C6B"/>
<path fill-rule="evenodd" clip-rule="evenodd" d="M94.5291 81.9377C94.472 81.9303 94.3652 81.9377 94.3652 81.8306C94.3652 81.74 94.4057 81.7142 94.472 81.7142C94.7279 81.7142 94.9672 81.7474 95.2139 81.7474C95.4605 81.7474 95.7164 81.7142 95.9631 81.7142C96.0202 81.7142 96.0791 81.7382 96.0791 81.8306C96.0791 81.9377 95.9631 81.9303 95.906 81.9377C95.4697 81.9784 95.4771 82.104 95.4771 82.6176V84.1585C95.4771 84.1917 95.4697 84.2915 95.5176 84.2915C95.5415 84.2915 95.5747 84.2509 95.5912 84.225L96.8264 82.6583C96.9001 82.5585 97.1486 82.261 97.1486 82.1206C97.1486 81.9636 97.0418 81.9377 96.9424 81.9377C96.8761 81.9377 96.7454 81.9544 96.7454 81.8306C96.7454 81.7474 96.8025 81.7142 96.8522 81.7142C97.1081 81.7142 97.3382 81.7474 97.5941 81.7474C97.8168 81.7474 98.0303 81.7142 98.2457 81.7142C98.3028 81.7142 98.3451 81.7382 98.3451 81.8213C98.3451 81.9451 98.2052 81.9377 98.1482 81.9377C97.9825 81.9377 97.8591 81.9377 97.7027 82.0209C97.5057 82.128 97.2738 82.3774 97.1339 82.5677L96.4251 83.4619C96.3846 83.5118 96.2613 83.6356 96.2613 83.7188C96.2613 83.7853 96.3607 83.9183 96.3846 83.9589L97.572 85.8397C97.7045 86.0393 97.8941 86.346 98.0414 86.5104C98.1647 86.6508 98.2384 86.6841 98.3948 86.7007C98.4611 86.7007 98.5679 86.6933 98.5679 86.8005C98.5679 86.891 98.485 86.9076 98.428 86.9076C98.1482 86.9076 97.8849 86.8744 97.6033 86.8744C97.3732 86.8744 97.1339 86.9076 96.9038 86.9076C96.8467 86.9076 96.7638 86.915 96.7638 86.8171C96.7638 86.7099 96.8872 86.7173 96.9443 86.7173C97.0676 86.7173 97.2903 86.7266 97.2903 86.5104C97.2903 86.37 97.1265 86.1372 97.0602 86.0374L96.0312 84.3894C96.0073 84.3488 95.9244 84.1991 95.8747 84.1991C95.825 84.1991 95.7017 84.382 95.6778 84.406C95.6041 84.4966 95.4808 84.6056 95.4808 84.746V86.0134C95.4808 86.5437 95.4808 86.7007 95.9097 86.7007C95.9668 86.7007 96.0827 86.6933 96.0827 86.8005C96.0827 86.891 96.0257 86.9076 95.9668 86.9076C95.7201 86.9076 95.4808 86.8744 95.2341 86.8744C94.9874 86.8744 94.7316 86.9076 94.4757 86.9076C94.4186 86.9076 94.3689 86.891 94.3689 86.8005C94.3689 86.6933 94.4757 86.7007 94.5328 86.7007C94.9617 86.7007 94.9617 86.5344 94.9617 86.0134V82.6158C94.9617 82.1022 94.9617 81.9784 94.5328 81.9359L94.5291 81.9377Z" fill="#B59C6B"/>
<path fill-rule="evenodd" clip-rule="evenodd" d="M100.281 86.7007C100.338 86.7007 100.454 86.6933 100.454 86.8005C100.454 86.891 100.397 86.9076 100.338 86.9076C100.091 86.9076 99.8521 86.8744 99.6054 86.8744C99.3588 86.8744 99.1029 86.9076 98.847 86.9076C98.7899 86.9076 98.7402 86.891 98.7402 86.8005C98.7402 86.6933 98.847 86.7007 98.9041 86.7007C99.3661 86.7007 99.333 86.5344 99.333 86.0134V82.6158C99.333 82.0929 99.3661 81.9359 98.9041 81.9359C98.847 81.9359 98.7402 81.9359 98.7402 81.8287C98.7402 81.7382 98.7807 81.7123 98.847 81.7123C99.1029 81.7123 99.3422 81.7456 99.5889 81.7456C99.8355 81.7456 100.091 81.7123 100.338 81.7123C100.395 81.7123 100.454 81.7363 100.454 81.8287C100.454 81.9359 100.338 81.9359 100.281 81.9359C99.819 81.9359 99.8521 82.0929 99.8521 82.6158V83.6837C99.8521 83.9904 99.8355 83.9904 100.082 83.9904H101.929C102.142 83.9904 102.159 83.9663 102.159 83.6837V82.6158C102.159 82.0929 102.192 81.9359 101.73 81.9359C101.673 81.9359 101.566 81.9359 101.566 81.8287C101.566 81.7382 101.616 81.7123 101.682 81.7123C101.929 81.7123 102.168 81.7456 102.415 81.7456C102.661 81.7456 102.917 81.7123 103.164 81.7123C103.23 81.7123 103.28 81.7363 103.28 81.8287C103.28 81.9359 103.164 81.9359 103.107 81.9359C102.645 81.9359 102.678 82.0929 102.678 82.6158V86.0134C102.678 86.5437 102.654 86.6933 103.107 86.7007C103.164 86.7007 103.28 86.6933 103.28 86.8005C103.28 86.891 103.23 86.9076 103.164 86.9076C102.917 86.9076 102.678 86.8744 102.431 86.8744C102.184 86.8744 101.929 86.9076 101.682 86.9076C101.616 86.9076 101.566 86.891 101.566 86.8005C101.566 86.6933 101.673 86.7007 101.73 86.7007C102.192 86.7007 102.159 86.5344 102.159 86.0134V84.5298C102.159 84.3254 102.082 84.2231 101.929 84.2231H100.099C99.8687 84.2231 99.8521 84.2398 99.8521 84.5298V86.0134C99.8521 86.5437 99.8282 86.6933 100.281 86.7007Z" fill="#B59C6B"/>
<path fill-rule="evenodd" clip-rule="evenodd" d="M106.881 82.0874C106.955 81.9544 107.071 81.7567 107.211 81.7142H107.936C108.01 81.7142 108.092 81.7216 108.092 81.8472C108.092 81.9377 107.993 81.9377 107.929 81.9377C107.582 81.9377 107.59 82.104 107.59 82.625V86.0134C107.59 86.5437 107.566 86.6933 108.019 86.7007C108.076 86.7007 108.192 86.6933 108.192 86.8005C108.192 86.891 108.142 86.9076 108.076 86.9076C107.829 86.9076 107.59 86.8744 107.343 86.8744C107.096 86.8744 106.841 86.9076 106.594 86.9076C106.528 86.9076 106.478 86.891 106.478 86.8005C106.478 86.6933 106.585 86.7007 106.642 86.7007C107.104 86.7007 107.071 86.5344 107.071 86.0134V82.1687L104.525 86.734C104.484 86.8005 104.368 87 104.295 87C104.238 87 104.212 86.8836 104.212 86.843V82.6675C104.212 82.1447 104.228 81.9802 103.776 81.9377C103.719 81.9303 103.619 81.9377 103.619 81.8306C103.619 81.74 103.661 81.7142 103.726 81.7142C103.982 81.7142 104.221 81.7474 104.468 81.7474C104.714 81.7474 104.97 81.7142 105.217 81.7142C105.274 81.7142 105.333 81.7382 105.333 81.8306C105.333 81.9377 105.217 81.9377 105.16 81.9377C104.691 81.971 104.731 82.1447 104.731 82.6675V85.849L106.881 82.0874Z" fill="#B59C6B"/>
<path fill-rule="evenodd" clip-rule="evenodd" d="M112.195 84.0994L113.983 86.4365C114.255 86.8097 114.535 86.7007 114.535 86.7007C114.601 86.7007 114.708 86.6933 114.708 86.8005C114.708 86.891 114.625 86.9076 114.568 86.9076C114.288 86.9076 114.023 86.8744 113.743 86.8744C113.513 86.8744 113.274 86.9076 113.044 86.9076C112.987 86.9076 112.904 86.915 112.904 86.8171C112.904 86.7099 113.027 86.7173 113.086 86.7173C113.276 86.7173 113.3 86.6342 113.3 86.5344C113.3 86.4513 113.07 86.1871 112.904 85.9543L111.75 84.3395V86.0208C111.75 86.418 111.709 86.6841 112.17 86.6841C112.227 86.6841 112.335 86.6841 112.335 86.7912C112.335 86.8818 112.295 86.9076 112.228 86.9076C111.973 86.9076 111.733 86.8744 111.487 86.8744C111.24 86.8744 110.984 86.9076 110.737 86.9076C110.68 86.9076 110.621 86.8836 110.621 86.7912C110.621 86.6841 110.737 86.6841 110.794 86.6841C111.247 86.6841 111.247 86.4032 111.247 86.0208V84.3395L110.086 85.9543C109.83 86.3275 109.764 86.4679 109.764 86.5418C109.764 86.6656 109.896 86.7081 109.986 86.7081C110.053 86.7081 110.159 86.7007 110.159 86.8079C110.159 86.8984 110.077 86.915 110.019 86.915C109.74 86.915 109.475 86.8818 109.195 86.8818C108.965 86.8818 108.725 86.915 108.493 86.915C108.436 86.915 108.354 86.9224 108.354 86.8245C108.354 86.7173 108.477 86.7247 108.534 86.7247C108.657 86.7247 108.904 86.6508 109.046 86.4513L110.769 84.0809L109.508 82.54C109.154 82.0929 108.775 81.9026 108.65 81.9026C108.593 81.9026 108.469 81.91 108.469 81.8029C108.469 81.7031 108.552 81.7123 108.609 81.7123C108.839 81.7123 109.079 81.7456 109.309 81.7456C109.589 81.7456 109.852 81.7123 110.134 81.7123C110.191 81.7123 110.274 81.729 110.274 81.8195C110.274 81.9266 110.167 81.9192 110.1 81.9192C109.894 81.9192 109.638 81.9433 109.598 82.0523C109.548 82.1761 109.655 82.3183 110.051 82.7987L111.245 84.2231V82.6158C111.245 82.0523 111.245 81.9691 110.793 81.9359C110.736 81.9285 110.627 81.9359 110.627 81.8287C110.627 81.7382 110.684 81.7123 110.75 81.7123C111.006 81.7123 111.229 81.7456 111.476 81.7456C111.722 81.7456 111.978 81.7123 112.225 81.7123C112.282 81.7123 112.341 81.7363 112.341 81.8287C112.341 81.9359 112.225 81.9285 112.168 81.9359C111.731 81.9691 111.748 82.0523 111.748 82.6158V84.2231L112.943 82.7987C113.339 82.3183 113.429 82.1613 113.386 82.0375C113.346 81.9211 113.107 81.9045 112.983 81.9045C112.926 81.9045 112.803 81.9119 112.803 81.8047C112.803 81.7049 112.886 81.7142 112.943 81.7142C113.173 81.7142 113.412 81.7474 113.642 81.7474C113.922 81.7474 114.185 81.7142 114.467 81.7142C114.524 81.7142 114.607 81.7308 114.607 81.8213C114.607 81.9285 114.5 81.9211 114.434 81.9211C114.434 81.9211 113.898 82.0375 113.486 82.5419L112.192 84.0994H112.195Z" fill="#B59C6B"/>
<path fill-rule="evenodd" clip-rule="evenodd" d="M116.424 86.7007C116.481 86.7007 116.597 86.6933 116.597 86.8005C116.597 86.891 116.54 86.9076 116.481 86.9076C116.234 86.9076 115.995 86.8744 115.748 86.8744C115.501 86.8744 115.245 86.9076 114.99 86.9076C114.933 86.9076 114.883 86.891 114.883 86.8005C114.883 86.6933 114.99 86.7007 115.047 86.7007C115.509 86.7007 115.476 86.5344 115.476 86.0134V82.6158C115.476 82.0929 115.509 81.9359 115.047 81.9359C114.99 81.9359 114.883 81.9359 114.883 81.8287C114.883 81.7382 114.923 81.7123 114.99 81.7123C115.245 81.7123 115.485 81.7456 115.731 81.7456C115.978 81.7456 116.234 81.7123 116.481 81.7123C116.538 81.7123 116.597 81.7363 116.597 81.8287C116.597 81.9359 116.481 81.9359 116.424 81.9359C115.962 81.9359 115.995 82.0929 115.995 82.6158V83.6837C115.995 83.9904 115.978 83.9904 116.225 83.9904H118.071C118.285 83.9904 118.301 83.9663 118.301 83.6837V82.6158C118.301 82.0929 118.334 81.9359 117.872 81.9359C117.815 81.9359 117.708 81.9359 117.708 81.8287C117.708 81.7382 117.758 81.7123 117.824 81.7123C118.071 81.7123 118.31 81.7456 118.557 81.7456C118.804 81.7456 119.06 81.7123 119.306 81.7123C119.373 81.7123 119.422 81.7363 119.422 81.8287C119.422 81.9359 119.306 81.9359 119.249 81.9359C118.787 81.9359 118.82 82.0929 118.82 82.6158V86.0134C118.82 86.5437 118.796 86.6933 119.249 86.7007C119.306 86.7007 119.422 86.6933 119.422 86.8005C119.422 86.891 119.373 86.9076 119.306 86.9076C119.06 86.9076 118.82 86.8744 118.574 86.8744C118.327 86.8744 118.071 86.9076 117.824 86.9076C117.758 86.9076 117.708 86.891 117.708 86.8005C117.708 86.6933 117.815 86.7007 117.872 86.7007C118.334 86.7007 118.301 86.5344 118.301 86.0134V84.5298C118.301 84.3254 118.225 84.2231 118.071 84.2231H116.241C116.011 84.2231 115.995 84.2398 115.995 84.5298V86.0134C115.995 86.5437 115.971 86.6933 116.424 86.7007Z" fill="#B59C6B"/>
<path fill-rule="evenodd" clip-rule="evenodd" d="M120.864 84.8291C120.864 84.6462 120.831 84.4892 120.971 84.3894C121.103 84.2896 121.35 84.2231 121.499 84.2231C122.051 84.2231 122.438 84.8033 122.438 85.4665C122.438 85.8397 122.322 86.2296 122.092 86.4771C121.885 86.7099 121.615 86.7672 121.342 86.7672C120.89 86.7672 120.864 86.5677 120.864 86.0541V84.8273V84.8291ZM123.616 82.625V86.0134C123.616 86.5344 123.632 86.7007 123.187 86.7007C123.13 86.7007 123.021 86.6933 123.021 86.8005C123.021 86.891 123.071 86.9076 123.128 86.9076C123.384 86.9076 123.631 86.8744 123.886 86.8744C124.142 86.8744 124.372 86.9076 124.619 86.9076C124.676 86.9076 124.735 86.891 124.735 86.8005C124.735 86.6933 124.619 86.7007 124.562 86.7007C124.142 86.7007 124.133 86.5437 124.133 86.0134V82.625C124.133 82.104 124.109 81.971 124.562 81.9377C124.619 81.9303 124.735 81.9377 124.735 81.8306C124.735 81.74 124.678 81.7142 124.619 81.7142C124.372 81.7142 124.117 81.7474 123.87 81.7474C123.623 81.7474 123.384 81.7142 123.128 81.7142C123.062 81.7142 122.996 81.7308 122.996 81.8213C122.996 81.9285 123.078 81.9285 123.135 81.9377C123.588 81.971 123.614 82.104 123.614 82.625H123.616ZM120.345 86.0134C120.345 86.5344 120.385 86.6933 119.925 86.6933C119.868 86.6933 119.759 86.6933 119.759 86.8005C119.759 86.891 119.809 86.9169 119.875 86.9169C120.105 86.9169 120.337 86.8836 120.567 86.8836C120.93 86.8836 121.267 86.9169 121.622 86.9169C121.935 86.9169 122.241 86.867 122.504 86.636C122.793 86.3866 122.983 85.9395 122.983 85.5016C122.983 84.6148 122.471 83.9848 121.705 83.9848C121.326 83.9848 121.029 84.2176 120.971 84.2176C120.855 84.2176 120.864 84.0938 120.864 83.9848V82.6176C120.864 82.0874 120.84 81.9377 121.293 81.9303C121.359 81.9303 121.466 81.9377 121.466 81.8306C121.466 81.74 121.416 81.7234 121.359 81.7234C121.103 81.7234 120.864 81.7567 120.617 81.7567C120.37 81.7567 120.115 81.7234 119.868 81.7234C119.811 81.7234 119.752 81.74 119.752 81.8306C119.752 81.9377 119.859 81.9303 119.918 81.9303C120.38 81.9303 120.347 82.0966 120.347 82.6176V86.0153L120.345 86.0134Z" fill="#B59C6B"/>
<path fill-rule="evenodd" clip-rule="evenodd" d="M128.337 82.0874C128.411 81.9544 128.527 81.7567 128.667 81.7142H129.392C129.465 81.7142 129.548 81.7216 129.548 81.8472C129.548 81.9377 129.449 81.9377 129.383 81.9377C129.037 81.9377 129.044 82.104 129.044 82.625V86.0134C129.044 86.5437 129.02 86.6933 129.473 86.7007C129.53 86.7007 129.646 86.6933 129.646 86.8005C129.646 86.891 129.596 86.9076 129.53 86.9076C129.283 86.9076 129.044 86.8744 128.795 86.8744C128.547 86.8744 128.293 86.9076 128.046 86.9076C127.98 86.9076 127.93 86.891 127.93 86.8005C127.93 86.6933 128.037 86.7007 128.096 86.7007C128.558 86.7007 128.525 86.5344 128.525 86.0134V82.1687L125.979 86.734C125.938 86.8005 125.822 87 125.749 87C125.692 87 125.666 86.8836 125.666 86.843V82.6675C125.666 82.1447 125.683 81.9802 125.23 81.9377C125.173 81.9303 125.073 81.9377 125.073 81.8306C125.073 81.74 125.114 81.7142 125.18 81.7142C125.436 81.7142 125.675 81.7474 125.922 81.7474C126.169 81.7474 126.424 81.7142 126.671 81.7142C126.728 81.7142 126.787 81.7382 126.787 81.8306C126.787 81.9377 126.671 81.9377 126.614 81.9377C126.145 81.971 126.185 82.1447 126.185 82.6675V85.849L128.335 82.0874H128.337ZM127.967 81.1839L127.844 81.2911C127.621 81.5146 127.448 81.6551 127.431 82.0209L127.415 82.1945C127.415 82.261 127.382 82.3608 127.332 82.3608C127.258 82.3682 127.242 82.2112 127.242 82.104C127.242 82.104 127.233 81.6975 127.218 81.4407C127.218 81.2578 127.498 80.9364 127.604 80.8273C127.834 80.5946 127.91 80.5539 127.934 80.1733V79.8426C127.95 79.6357 127.958 79.5193 128.041 79.5193C128.098 79.5027 128.157 79.6431 128.181 79.8925C128.181 79.8925 128.23 80.1567 128.221 80.3396C128.205 80.8865 128.138 81.0195 127.965 81.1839H127.967Z" fill="#B59C6B"/>
<path fill-rule="evenodd" clip-rule="evenodd" d="M135.979 82.8578C135.813 82.8578 135.756 81.7973 134.734 81.7973C133.63 81.7973 133.078 82.9908 133.078 84.2324C133.078 84.8199 133.208 85.376 133.49 85.8564C133.795 86.3792 134.199 86.7339 134.734 86.7339C135.756 86.7339 135.839 85.4333 136.012 85.4333C136.069 85.4333 136.095 85.4832 136.086 85.5404L136.052 86.2111C136.043 86.4679 136.043 86.4845 135.846 86.6083C135.45 86.8411 135.088 86.9557 134.651 86.9557C133.448 86.9557 132.492 85.7049 132.492 84.2379C132.492 82.771 133.571 81.5627 134.782 81.5627C135.079 81.5627 135.541 81.6624 135.82 81.7862C136.01 81.8694 135.986 81.9765 136.01 82.2093L136.051 82.7488C136.051 82.8153 136.034 82.8559 135.977 82.8559L135.979 82.8578Z" fill="#B59C6B"/>
<path fill-rule="evenodd" clip-rule="evenodd" d="M140.058 82.5419C140.388 83.0463 140.495 83.619 140.495 84.2564C140.495 84.8938 140.395 85.4333 140.091 85.9303C139.769 86.4199 139.326 86.7247 138.814 86.7247C138.302 86.7247 137.849 86.4679 137.536 85.9876C137.214 85.5072 137.091 84.8772 137.091 84.2564C137.091 83.6356 137.207 83.0389 137.511 82.5659C137.824 82.0597 138.302 81.7862 138.812 81.7862C139.322 81.7862 139.744 82.0689 140.057 82.54L140.058 82.5419ZM138.807 81.5645C137.619 81.5645 136.5 82.7488 136.5 84.2564C136.5 85.764 137.621 86.9575 138.807 86.9575C140.058 86.9575 141.097 85.8564 141.097 84.2564C141.097 82.6564 140.058 81.5645 138.807 81.5645Z" fill="#B59C6B"/>
<path fill-rule="evenodd" clip-rule="evenodd" d="M145.439 86.7007C144.417 86.7007 143.905 85.3594 143.905 84.2398C143.905 83.1202 144.384 81.7456 145.406 81.7456C146.427 81.7456 146.946 83.17 146.946 84.2897C146.946 85.4093 146.461 86.7007 145.439 86.7007ZM143.049 86.6674C142.587 86.6674 142.58 86.6009 142.58 85.9968V84.3728H143.388C143.454 86.2942 144.417 86.9409 145.431 86.9409C146.716 86.9409 147.458 85.7806 147.458 84.2897C147.458 82.7987 146.7 81.6052 145.415 81.6052C144.007 81.6052 143.471 82.9797 143.388 84.0661H142.58V82.5991C142.58 82.0523 142.573 81.9617 142.983 81.9193C143.04 81.9119 143.156 81.9193 143.156 81.8121C143.156 81.7216 143.099 81.6957 143.04 81.6957C142.794 81.6957 142.538 81.729 142.291 81.729C142.044 81.729 141.805 81.6957 141.549 81.6957C141.483 81.6957 141.442 81.7197 141.442 81.8121C141.442 81.9193 141.549 81.9119 141.606 81.9193C142.059 81.9691 142.068 82.043 142.068 82.5991V85.9968C142.068 86.5603 142.059 86.6674 141.672 86.6674C141.615 86.6674 141.507 86.6674 141.507 86.7746C141.507 86.8651 141.549 86.891 141.614 86.891C141.869 86.891 142.109 86.8577 142.355 86.8577C142.602 86.8577 142.858 86.891 143.105 86.891C143.162 86.891 143.221 86.867 143.221 86.7746C143.221 86.6674 143.105 86.6674 143.048 86.6674H143.049Z" fill="#B59C6B"/>
<path fill-rule="evenodd" clip-rule="evenodd" d="M148.025 85.849C148.189 85.849 148.322 86.1132 148.388 86.2795C148.478 86.503 148.784 86.7598 149.303 86.7598C149.988 86.7598 150.391 86.1058 150.391 85.4591C150.391 84.3488 149.616 84.1825 149.163 84.2084C149.163 84.2084 148.981 84.249 148.949 84.0753C148.925 83.9257 149.163 83.9349 149.163 83.9349C149.888 83.8518 150.258 83.7021 150.258 82.8486C150.258 82.3516 150.052 81.7955 149.41 81.7955C148.535 81.7955 148.265 83.17 148.099 83.17C148.042 83.17 148.025 83.1294 148.025 83.0629L148.066 82.516C148.09 82.2832 148.073 82.1927 148.255 82.0929C148.519 81.9433 148.931 81.5627 149.549 81.5627C150.538 81.5627 150.818 82.1834 150.818 82.8227C150.818 83.3529 150.481 83.8998 149.813 84.0495V84.0587C150.488 84.116 151 84.7719 151 85.4591C151 86.2388 150.531 87 149.443 87C148.495 87 147.918 86.4125 147.836 86.2037C147.769 86.03 147.828 85.8471 148.025 85.8471V85.849Z" fill="#B59C6B"/>
<path fill-rule="evenodd" clip-rule="evenodd" d="M98.9891 31.9801L104.276 29H118.112V31.9598L121.081 32.0226V34.9602C122.049 35.0452 123.06 35.0027 124.07 35.0027V37.9828L127.062 38.0253V73.5351L104.296 73.5554L98.9891 76.6002L93.5972 73.5351H70.9365V38.0253L73.9279 37.9828V35.0027H76.8769C76.9818 34.0309 76.9192 32.9944 76.9395 31.9801H79.9088L79.9511 29H93.7666L98.9891 31.9801Z" fill="#B59C6B"/>
<path fill-rule="evenodd" clip-rule="evenodd" d="M98.9885 32.3404L104.38 29.2956H117.795V64.2345H104.253L99.0309 67.2146L93.744 64.2345H80.2451V29.2956H93.6814L98.9885 32.3404Z" fill="white"/>
<path fill-rule="evenodd" clip-rule="evenodd" d="M98.9683 32.8688L104.253 29.8037H117.375L117.395 63.6655L117.163 63.7283H104.338L99.0309 66.8137L93.6391 63.7283H80.6667L80.6465 29.8037H93.7661L98.9683 32.8688Z" fill="#B59C6B"/>
<path fill-rule="evenodd" clip-rule="evenodd" d="M98.969 33.2272L104.359 30.1196H117.059V63.3902L104.234 63.4105L98.9892 66.4553L93.6821 63.3902H80.9619V30.1196H93.6821L98.969 33.2272Z" fill="white"/>
<path fill-rule="evenodd" clip-rule="evenodd" d="M98.9889 33.7131L104.254 30.5852H116.679L116.722 62.8821L104.276 62.9246L99.0313 66.01L93.6615 62.9043H81.3408V30.5852H93.7444L98.9889 33.7131Z" fill="#B59C6B"/>
<path fill-rule="evenodd" clip-rule="evenodd" d="M98.9894 34.0734L104.359 30.903H116.385L116.406 62.5865L104.212 62.629L98.9894 65.6516L93.767 62.6087H81.6377V40.8372C81.68 41.2806 81.8899 41.6834 82.2489 41.979C82.1642 42.2118 82.2691 42.4224 82.3538 42.6127C82.4808 42.803 82.6907 42.8658 82.8803 42.9508C82.9226 43.2464 83.1122 43.5642 83.4067 43.6898C83.7013 43.627 83.5338 43.9651 83.681 44.0704C83.9332 44.4289 84.3769 44.4935 84.8187 44.4713C84.988 44.9148 85.4501 45.2954 85.9563 45.275C86.7571 45.275 87.2835 44.5138 88.0843 44.7041C88.2739 44.8741 88.2113 45.1272 88.1892 45.36C87.6628 46.2893 86.5896 46.6699 85.8514 47.4533C85.1574 48.172 84.6511 48.996 84.7782 49.99C84.8205 50.7512 85.4519 51.3849 86.1054 51.6805C86.8012 51.9982 87.6646 52.0186 88.423 51.8708C87.5799 52.9904 87.4124 54.4278 87.3701 55.8652C86.6742 55.9926 85.8532 56.2458 85.2016 55.928C84.907 55.928 84.6548 56.2236 84.5481 56.4564C84.4229 58.0841 84.8003 59.6268 85.2844 61.0642C85.4317 61.3394 85.5789 61.8032 85.9802 61.7829L88.5077 61.8253C88.6771 61.8032 88.8022 61.6775 88.8243 61.5076C88.782 60.8535 88.55 60.1127 87.8763 59.8374C87.6444 59.7524 87.4345 59.7949 87.1602 59.7949C87.1179 59.394 87.0976 58.9709 87.0976 58.5478C88.2555 58.8656 89.6877 58.7806 90.6357 58.0397C90.9302 57.7219 91.0775 57.3432 91.2469 56.9626C91.9832 57.2379 92.7416 57.4707 93.4375 57.8088C93.2479 57.9566 93.0159 58.0841 92.911 58.3372L92.9957 58.6531C94.3652 59.5418 95.6078 60.6817 96.9553 61.6332L97.7137 61.8457L100.199 61.8235C100.409 61.3173 100.261 60.7039 99.9669 60.3011C99.5454 59.8152 98.9766 59.6877 98.3451 59.6877L96.2595 57.9344C96.4288 57.0457 96.8283 56.2642 96.8909 55.3127C98.4077 55.6508 100.007 55.6084 101.587 55.7562L101.756 56.0739C102.24 57.9547 102.642 59.878 103.251 61.696C104.324 61.9491 105.547 61.7163 106.684 61.781C106.916 61.5482 106.769 61.1676 106.749 60.872C106.579 60.0258 105.674 59.5399 104.915 59.4143L104.748 55.5252H106.285L109.339 61.6129L109.486 61.7182C110.476 61.8457 111.592 61.6979 112.582 61.7404C112.856 61.1898 112.625 60.6411 112.35 60.1755C111.951 59.6249 111.404 59.3718 110.793 59.3293C109.992 57.1307 109.191 54.9321 108.56 52.6504C109.676 51.1705 110.581 49.5854 111.572 48.0427C111.699 47.9577 111.804 47.747 111.993 47.8302C112.12 47.893 112.078 48.063 112.056 48.148C111.993 48.233 111.866 48.2108 111.929 48.3383C112.139 48.5286 112.455 48.6135 112.729 48.5064C113.066 48.3383 113.319 48.0408 113.383 47.6824C113.468 47.3443 113.363 47.0265 113.151 46.7734C112.941 46.5628 112.625 46.5628 112.33 46.5628L113.782 43.858C113.95 43.7305 114.119 43.5199 114.329 43.688C114.498 43.858 114.162 44.1314 114.414 44.1961C114.813 44.1111 115.297 43.8155 115.362 43.3721C115.404 43.0543 115.297 42.7808 115.045 42.5684C114.813 42.3578 114.476 42.3781 114.202 42.4834C114.918 39.9264 116.034 35.9098 113.444 33.944C113.127 33.7537 112.685 33.7537 112.348 33.8387C111.969 34.0069 111.634 34.4096 111.485 34.768C111.443 35.0008 111.422 35.2743 111.612 35.4442C111.802 35.5717 112.012 35.4017 112.223 35.4867C113.044 36.6063 112.433 38.149 111.971 39.2483C110.876 41.2344 109.107 43.2224 107.17 44.5748C106.833 43.8783 106.474 43.0524 106.581 42.1859C106.771 41.2141 107.697 40.2626 108.667 40.0298C109.109 39.882 109.53 40.1148 109.952 40.1998C110.161 39.6086 109.911 39.0155 109.615 38.5296C109.088 37.8313 108.267 37.6003 107.446 37.6206C106.71 36.5214 105.383 36.4364 104.14 36.5435C103.382 36.671 102.623 37.0091 101.867 36.6488L101.824 36.7338C102.52 38.0437 101.383 39.228 101.235 40.5176C101.193 40.7504 100.941 41.1735 101.383 41.1735C101.256 41.6169 101.046 42.04 100.941 42.4834C101.025 42.6109 101.193 42.5684 101.32 42.6109C101.32 43.0543 100.584 43.6048 101.215 43.858L101.13 44.1111C99.0447 42.0825 96.7491 39.9467 94.7702 37.665C94.2861 36.9888 93.7596 36.1851 94.0118 35.3186C94.0965 35.1708 94.2014 35.023 94.3266 34.8955C94.4536 35.1061 94.7058 35.1911 94.9157 35.0858C95.1899 34.9177 95.1255 34.5371 95.0629 34.3043C94.8733 34.0087 94.599 33.8184 94.2419 33.8609C93.8848 33.9237 93.6105 34.2193 93.3786 34.4946C92.7048 34.3671 92.5152 35.2558 92.2207 35.6567C91.9261 35.6364 91.904 35.9523 91.7789 36.1223C91.6739 36.6304 91.5046 37.0941 91.5469 37.665C90.9781 38.0031 91.2947 38.8271 91.2726 39.4202C91.4622 40.076 91.5893 40.7726 91.9666 41.3435C91.65 41.3656 91.3352 41.5762 91.1456 41.8515C91.0204 42.1693 90.9763 42.5905 91.1033 42.9286C91.2726 43.1614 91.4622 43.4367 91.777 43.4367C92.0716 43.4589 92.3459 43.3092 92.4931 43.0783C92.471 42.8677 92.1765 42.973 92.1562 42.7402C92.1986 42.6552 92.2612 42.5702 92.3661 42.5074C92.9552 42.9083 93.4614 43.5217 94.01 44.0076C93.6731 44.0279 93.2515 44.0501 92.9349 44.2607C92.5134 44.6838 92.4508 45.2972 92.5557 45.8662C92.6606 46.1194 92.9349 46.3097 93.1871 46.3743C93.5461 46.4371 93.883 46.2893 94.1149 46.0159C94.1996 45.6556 93.4614 45.8053 93.778 45.4653L93.9879 45.5078L96.0735 48.0223C94.5144 47.9373 92.8097 47.832 91.3352 48.0851C90.3872 48.2551 89.6711 49.0791 89.187 49.8606C88.4709 50.2837 87.4805 50.5793 86.6798 50.2191C86.3852 50.0713 86.2159 49.7757 86.2159 49.4579C86.3631 48.3161 87.6683 47.8302 88.3439 46.9009C89.0176 46.1822 89.5662 45.3378 89.3342 44.3439C88.6605 42.04 85.1427 40.8779 85.9434 38.1306C85.9232 38.0456 85.8808 37.9828 85.7961 37.9828C85.2273 37.9828 84.7855 38.4483 84.5536 38.9121C84.132 39.1024 83.8798 39.568 83.8375 40.0317L83.9645 40.7929C83.2061 40.9204 82.3851 41.1107 81.796 40.4751L81.6487 40.5804V30.903H93.6731L99.0005 34.0734H98.9894Z" fill="white"/>
<path fill-rule="evenodd" clip-rule="evenodd" d="M79.9091 64.5302L93.7246 64.5726L98.9894 67.5952L104.381 64.5523H118.112L118.132 32.3182L120.765 32.2979L120.787 67.2146H104.276L98.9894 70.2372L93.7246 67.2146H77.2344V32.2979H79.8889L79.9091 64.5302Z" fill="white"/>
<path fill-rule="evenodd" clip-rule="evenodd" d="M114.257 35.1302C115.437 37.519 114.573 40.477 113.835 42.8233C112.655 44.7688 111.582 46.7549 110.15 48.5729L108.338 50.5812C108.296 50.2006 108.213 49.8403 108.213 49.4394L108.508 49.3341C110.761 46.439 113.331 43.6067 114.13 40.076C114.509 38.1527 114.783 35.6586 113.119 34.2415C112.972 34.1362 112.74 34.0512 112.572 34.1362C112.235 34.6849 113.099 34.8549 113.224 35.3205C114.362 37.6447 113.266 40.2663 112.108 42.2321C111.183 44.0704 109.349 45.5928 107.812 46.9877C107.749 46.8399 107.749 46.6699 107.707 46.5221C110.172 43.8376 112.952 41.1328 113.331 37.4969C113.415 36.4197 113.309 35.3205 112.447 34.6424C112.258 34.5999 112.11 34.8124 112.068 34.9602C112.068 35.0452 112.046 35.1505 112.088 35.2133C111.961 35.2336 111.836 35.2761 111.731 35.2558C111.584 35.1283 111.669 34.8327 111.751 34.6849C111.921 34.3893 112.215 34.0715 112.552 34.0087C113.311 33.8831 113.922 34.5371 114.259 35.1302H114.257Z" fill="white"/>
<path fill-rule="evenodd" clip-rule="evenodd" d="M94.8194 34.3893L94.8618 34.5168C94.5249 34.5371 94.2083 34.6646 93.9763 34.9602C93.4296 35.7214 93.8493 36.7153 94.293 37.3916C97.2622 41.5337 102.801 44.4307 103.727 49.5244C102.063 49.1235 100.546 49.9253 99.3682 51.0874C98.1256 49.1216 96.5682 47.2611 94.882 45.4653C94.4605 45.1272 94.0187 44.5138 93.472 44.8316C93.24 44.9794 93.1774 45.275 93.2823 45.5078C93.3873 45.7184 93.5971 45.8662 93.7867 45.9734C93.5769 46.2265 93.2179 46.0159 92.986 45.9106C92.6491 45.7 92.6693 45.2769 92.754 44.9591C92.8387 44.706 92.9639 44.4307 93.2382 44.3457C94.8599 43.7545 95.6607 45.7406 96.6492 46.6293C97.5549 47.8764 98.5232 49.1031 99.2816 50.4334C99.3442 50.5184 99.5136 50.5812 99.5983 50.4759C99.7455 50.3059 99.6609 50.0103 99.5559 49.8422L98.5876 48.4676L92.7338 41.8737C91.933 40.7541 91.5538 39.4423 91.4912 38.0068L91.5335 37.9218C91.6808 41.3878 95.4509 43.2058 97.3046 45.8699C98.2729 47.202 99.2835 48.5323 100.169 49.929C100.274 49.9918 100.421 49.9068 100.463 49.8015C100.421 49.1678 99.9167 48.6597 99.5799 48.1313C97.5789 45.7 95.2631 43.4811 93.2198 41.1144C92.0195 39.6991 91.2188 37.6909 92.1245 35.8932C91.3863 39.5292 95.241 41.5374 97.1997 44.1148C98.7368 45.785 99.9591 47.5604 101.095 49.3988C101.157 49.4616 101.264 49.4837 101.369 49.4616C101.726 48.9128 101.18 48.3844 100.863 47.9189C98.6521 45.2141 96.0602 42.7199 93.7444 40.076C92.9013 38.7661 91.6182 37.3287 92.4595 35.6382C92.6693 35.3205 92.7964 34.8567 93.2179 34.6867C92.0379 37.011 93.9543 38.8918 95.4085 40.5416L99.0939 44.4732C100.147 45.9734 101.222 47.4736 102.148 49.0385C102.232 49.081 102.36 49.1438 102.464 49.081C102.676 48.8704 102.549 48.5729 102.444 48.342C101.329 46.3965 99.5596 44.6857 97.9802 42.9527C96.2314 40.9647 94.0003 39.1486 93.1572 36.7597C93.0099 35.8507 93.1148 34.9214 93.8107 34.3283C94.0629 34.053 94.674 33.9699 94.8213 34.3911L94.8194 34.3893Z" fill="white"/>
<path fill-rule="evenodd" clip-rule="evenodd" d="M114.005 35.9967C114.743 39.6326 113.142 42.9711 110.993 45.7609C110.13 46.8177 109.035 47.6842 108.151 48.7207L108.004 47.7489L108.278 47.6436C110.995 44.1129 114.638 40.6894 113.733 35.9117C113.563 35.4054 113.291 34.9399 112.847 34.5593C113.458 34.7921 113.815 35.4479 114.005 35.9967Z" fill="white"/>
<path fill-rule="evenodd" clip-rule="evenodd" d="M94.8196 34.877C94.757 34.9399 94.6502 34.962 94.5674 34.8974C94.6097 34.8549 94.757 34.8346 94.8196 34.877Z" fill="white"/>
<path fill-rule="evenodd" clip-rule="evenodd" d="M113.141 36.7782C113.141 39.3148 111.899 41.301 110.404 43.2039C109.541 44.2386 108.445 44.9572 107.497 45.7831L107.245 44.7688C109.436 43.2464 111.394 40.9647 112.468 38.6386C112.804 37.6022 113.079 36.187 112.32 35.2576C112.363 35.1098 112.53 35.2151 112.615 35.2576C113.014 35.6807 113.079 36.2294 113.141 36.78V36.7782Z" fill="white"/>
<path fill-rule="evenodd" clip-rule="evenodd" d="M76.9195 67.5324L93.6822 67.5749L98.9893 70.5975L104.381 67.5527H121.081L121.103 35.3205H123.756V70.2169L104.212 70.2594L98.9893 73.2395L93.7245 70.2372H74.265L74.2227 35.3205H76.9195V67.5324Z" fill="#0069B4"/>
<path fill-rule="evenodd" clip-rule="evenodd" d="M107.308 37.8146C108.171 37.8146 108.972 38.0253 109.476 38.744C109.728 39.0821 109.835 39.568 109.791 39.9486C108.633 39.4405 107.179 39.6733 106.105 40.1592C105.958 40.0539 105.938 39.8211 105.938 39.6308C106.043 39.2927 106.212 38.9749 106.485 38.7015C106.507 38.6386 106.422 38.6165 106.4 38.574C106.063 38.7015 105.853 39.0599 105.516 39.1652C105.474 38.7643 105.853 38.5518 105.811 38.1509C105.896 38.1731 106.001 38.1509 106.001 38.0456V37.9828C105.496 37.7721 104.99 37.6022 104.463 37.5172C104.189 37.5375 104.042 37.8553 103.895 38.0253L103.83 37.9828C103.768 37.7721 104.189 37.6225 103.915 37.434C103.788 37.4544 103.683 37.835 103.515 37.7297C103.578 37.519 103.957 37.3287 103.747 37.1384C103.58 37.2234 103.431 37.4137 103.368 37.5615C103.158 37.3712 103.431 37.1384 103.495 36.9278C104.78 36.5897 106.529 36.5897 107.308 37.8146Z" fill="white"/>
<path fill-rule="evenodd" clip-rule="evenodd" d="M105.601 38.3005C105.539 38.4059 105.412 38.428 105.307 38.3855C105.222 38.3005 105.18 38.1749 105.244 38.0474C105.391 37.9199 105.728 38.0474 105.601 38.3005Z" fill="white"/>
<path fill-rule="evenodd" clip-rule="evenodd" d="M85.6579 38.2359C85.0265 40.9204 88.3327 42.1675 89.1113 44.3439C89.3856 46.33 87.4472 47.239 86.3096 48.5914C86.0776 48.9516 85.9101 49.3951 86.0574 49.8385C86.2893 50.4094 86.9005 50.6422 87.4896 50.5997C88.4155 50.5147 89.4059 50.304 89.8274 49.3304C90.1864 48.802 90.7957 48.3364 91.4069 48.4011V48.4436C90.4165 48.6117 90.1017 49.7757 89.3009 50.3465C88.6051 50.9599 87.6368 51.0856 86.6888 50.9378C86.3096 50.8324 85.8457 50.7271 85.6561 50.2819C85.3192 49.626 85.5714 48.8445 85.9727 48.3161C86.8784 47.1115 89.0892 46.2653 88.3732 44.5748C87.5945 43.8561 86.8563 44.8076 86.0574 44.8279C85.7003 44.8704 85.4462 44.6801 85.194 44.4898L85.1738 44.3623C85.8696 44.1517 86.6262 43.7915 87.4067 43.9393C87.4491 43.8968 87.4914 43.8339 87.4693 43.749C87.2595 43.5383 86.8802 43.6215 86.606 43.6861C85.8696 43.8764 85.1314 44.1296 84.3104 44.0667C84.1834 43.9614 83.9736 43.8764 83.9312 43.6861C84.8572 43.4958 85.7849 43.1152 86.733 43.2206C86.8177 43.1781 86.7956 43.0728 86.7753 43.0099C86.4384 42.8196 85.9966 42.9471 85.6598 43.0099C84.9013 43.1153 83.9754 43.6861 83.2796 43.0728L83.2998 42.9878L85.7647 42.4815C85.8494 42.4815 85.9966 42.6293 86.0592 42.4612C85.7647 42.0381 85.2161 42.4187 84.8167 42.4409C84.2478 42.609 83.552 42.7365 82.9427 42.5462C82.8157 42.4187 82.6058 42.2931 82.6261 42.0806C83.3845 42.0178 84.1429 41.9328 84.8793 41.785C84.9639 41.8275 85.1314 41.8903 85.2161 41.8275C85.3211 41.6797 85.1112 41.6594 85.0468 41.5744C84.0785 41.3841 82.8359 42.2506 82.1198 41.3213C82.0572 41.216 82.0572 41.0885 82.0352 40.9629C82.8138 41.4063 83.6569 40.8779 84.4356 41.1107C84.7301 40.8779 84.2681 40.6026 84.246 40.307C84.1411 40.0114 84.1834 39.6308 84.3307 39.3777C84.4154 39.3148 84.4779 39.1874 84.5829 39.1874C84.6031 39.9486 84.8774 40.6044 85.3413 41.1532C85.4462 41.1328 85.4683 40.9832 85.426 40.9204C85.0468 40.307 84.5829 39.568 84.9197 38.8068C85.1517 38.5962 85.3192 38.2562 85.6561 38.2359H85.6579Z" fill="white"/>
<path fill-rule="evenodd" clip-rule="evenodd" d="M73.9056 70.5125L74.1375 70.5753H93.6615L98.9888 73.6201L104.359 70.5753H124.03L124.092 70.3425V38.3209L126.767 38.3005V73.2395H104.276L98.9888 76.2399L93.6615 73.2395H71.2529L71.2732 38.3005H73.9056V70.5125Z" fill="#E63312"/>
<path fill-rule="evenodd" clip-rule="evenodd" d="M102.654 41.2806C102.654 40.9222 102.824 40.3716 103.223 40.0539C103.455 39.9061 103.707 39.8211 103.982 39.7786C103.497 40.1167 103.013 40.7301 102.654 41.2788V41.2806Z" fill="white"/>
<path fill-rule="evenodd" clip-rule="evenodd" d="M104.423 40.4345C103.854 41.1735 103.622 42.04 103.348 42.8862C103.221 42.1675 103.286 41.3638 103.79 40.8354C103.98 40.6451 104.189 40.5176 104.421 40.4345H104.423Z" fill="white"/>
<path fill-rule="evenodd" clip-rule="evenodd" d="M105.181 41.0275C104.717 41.7887 104.528 42.6755 104.338 43.5642C104.191 42.5702 104.338 41.5134 105.181 41.0275Z" fill="white"/>
<path fill-rule="evenodd" clip-rule="evenodd" d="M92.9034 42.4224C92.7137 42.1896 92.4818 42.0843 92.2499 42.1896C92.0602 42.2949 91.8927 42.5074 91.913 42.718C91.9332 42.8658 92.0805 42.9933 92.1652 43.0986C91.9756 43.2261 91.7436 43.1189 91.5761 42.9933C91.3239 42.803 91.1766 42.5277 91.2595 42.2118C91.2595 41.9162 91.5117 41.7259 91.7436 41.5984C92.4174 41.3231 92.5444 42.0843 92.9015 42.4224H92.9034Z" fill="white"/>
<path fill-rule="evenodd" clip-rule="evenodd" d="M115.122 43.0136C115.184 43.2464 115.1 43.457 114.995 43.627L114.743 43.8376C114.7 43.627 114.68 43.3296 114.406 43.2464C114.049 43.2039 113.774 43.4995 113.585 43.7748L111.983 46.7549C112.088 46.9877 112.384 46.7346 112.594 46.7752C112.869 46.7956 113.121 46.9859 113.183 47.2611C113.268 47.5364 113.121 47.7692 113.016 48.0002C112.869 48.2329 112.616 48.3383 112.322 48.3161C112.427 48.1683 112.532 47.9558 112.427 47.7674C112.3 47.5771 112.07 47.4921 111.858 47.4921C111.354 47.7027 111.142 48.2736 110.847 48.6967C110.174 49.9438 109.395 51.1281 108.552 52.3105L108.425 51.3387C109.119 50.7475 109.562 49.9235 110.089 49.2029C111.479 47.1096 112.847 44.9536 114.111 42.8196C114.406 42.524 114.975 42.5869 115.122 43.0099V43.0136Z" fill="white"/>
<path fill-rule="evenodd" clip-rule="evenodd" d="M95.114 45.9734C96.5885 47.6436 98.0409 49.3563 99.1785 51.1946C99.1785 51.2999 99.0939 51.3424 99.0313 51.3849L98.6944 51.0671C97.4518 48.9738 95.808 47.0302 94.1236 45.1272C93.9763 45.0644 93.7867 44.9997 93.6395 45.1069L93.4701 45.3397C93.3652 45.2547 93.4904 44.9813 93.6597 44.9591C94.2488 45.0219 94.6501 45.5725 95.1121 45.9734H95.114Z" fill="white"/>
<path fill-rule="evenodd" clip-rule="evenodd" d="M107.792 51.8061C107.813 50.0731 107.623 48.4029 107.161 46.8805C107.308 48.6339 107.623 50.4943 107.393 52.2698C107.435 50.3465 107.288 48.3808 106.614 46.6903C106.594 46.6903 106.572 46.6681 106.552 46.6681C107.015 48.5286 107.288 50.7271 106.909 52.7336C106.993 50.5997 106.866 48.4214 106.025 46.6034H105.983C106.425 48.632 106.741 51.1484 106.194 53.2823C106.321 50.8934 106.342 48.3161 105.226 46.3706L105.164 46.4131C105.964 48.3992 105.964 50.6606 105.754 52.9017L105.65 53.2195C105.67 50.6828 105.712 47.9558 104.385 45.9069C104.343 45.9069 104.3 45.9494 104.3 45.9919C105.418 47.893 105.248 50.2616 105.226 52.6079C105.037 50.3669 104.994 48.0427 104.131 46.0344C104.216 45.9291 104.278 45.8238 104.383 45.7388L104.93 46.5L105.394 45.6335L106.025 46.3946L106.277 45.6759C106.425 45.8034 106.529 46.099 106.699 46.2893L106.931 45.5503C107.52 47.5161 108.004 49.6075 107.794 51.8061H107.792Z" fill="white"/>
<path fill-rule="evenodd" clip-rule="evenodd" d="M103.77 49.7997C103.792 49.905 103.832 49.99 103.854 50.0953C102.255 49.6519 100.822 50.4962 99.6645 51.553L99.4951 51.2999C100.57 50.1581 101.98 49.4394 103.582 49.6944L103.771 49.7997H103.77Z" fill="white"/>
<path fill-rule="evenodd" clip-rule="evenodd" d="M103.875 50.3484C103.897 50.4759 103.937 50.559 103.917 50.6865C102.443 50.2209 101.053 51.0449 99.9574 52.0186L99.7881 51.7433C100.904 50.7068 102.316 49.8403 103.873 50.3484H103.875Z" fill="white"/>
<path fill-rule="evenodd" clip-rule="evenodd" d="M103.495 50.814L103.727 52.0814L103.348 52.0611L103.033 50.7936C103.16 50.7936 103.348 50.7715 103.497 50.814H103.495Z" fill="white"/>
<path fill-rule="evenodd" clip-rule="evenodd" d="M103.138 52.0611C103.116 52.1036 103.053 52.0611 103.011 52.0814L102.632 50.8343C102.694 50.8343 102.864 50.7068 102.864 50.8768L103.138 52.0611Z" fill="white"/>
<path fill-rule="evenodd" clip-rule="evenodd" d="M102.148 52.2717L101.644 51.1299L102.38 50.8546L102.822 52.1017L102.148 52.2717Z" fill="white"/>
<path fill-rule="evenodd" clip-rule="evenodd" d="M103.98 50.9396C104.022 51.3627 104.107 51.7636 104.148 52.1867L103.916 52.1017L103.748 50.8546L103.98 50.9396Z" fill="white"/>
<path fill-rule="evenodd" clip-rule="evenodd" d="M101.831 52.4417L101.242 51.3424L101.454 51.2149L101.958 52.377L101.831 52.4417Z" fill="white"/>
<path fill-rule="evenodd" clip-rule="evenodd" d="M100.738 53.8772L99.2207 51.5955L99.3256 51.4477L100.842 53.7941L100.738 53.8772Z" fill="white"/>
<path fill-rule="evenodd" clip-rule="evenodd" d="M101.18 52.8426L100.591 51.7636L101.075 51.4477L101.622 52.5045L101.18 52.8426Z" fill="white"/>
<path fill-rule="evenodd" clip-rule="evenodd" d="M96.5256 53.286C97.1147 54.9765 96.336 56.4785 96.0194 58.0416L98.3149 59.9445C99.0107 59.9445 99.7047 60.0923 99.979 60.811C100.084 61.0217 100.126 61.4448 99.9588 61.6147C99.3274 61.8678 99.6219 61.1066 99.3274 60.896C99.0328 60.5154 98.5266 60.6004 98.1474 60.4526C97.0944 59.7136 96.0617 58.9099 95.1358 58.0212L94.4823 56.8166C94.7345 56.7113 95.2186 56.8591 95.2407 56.5007C94.7345 56.3954 94.1031 56.6282 93.7239 56.2901C94.2706 56.1423 94.9241 56.1626 95.4929 56.0148C95.5352 55.8467 95.3677 55.8467 95.261 55.867H93.3446L93.1753 55.6767L95.5757 55.4014C95.6383 55.3589 95.596 55.2961 95.6181 55.2315L92.8384 55.1686L92.7114 54.9783L95.7856 54.7456C95.8279 54.7031 95.8058 54.6181 95.8058 54.5553L92.4795 54.5128C92.3948 54.4499 92.4169 54.3428 92.3745 54.2596L95.5757 54.0269C95.6383 53.9844 95.596 53.9215 95.6181 53.8569L92.207 53.7941C92.207 53.7091 92.0597 53.5188 92.2273 53.4985C93.2176 53.4135 94.2062 53.3507 95.1965 53.2657C95.2812 53.2453 95.2389 53.1604 95.2591 53.0957C94.2485 53.0107 93.1734 53.0532 92.1426 53.0329L92.2273 52.7373L94.1012 52.5266C94.081 52.4638 94.1436 52.3788 94.0386 52.3363L92.5218 52.3567C93.3851 51.6601 94.8173 51.808 95.7433 52.3363C96.1022 52.5691 96.3544 52.9072 96.5219 53.2878L96.5256 53.286Z" fill="white"/>
<path fill-rule="evenodd" clip-rule="evenodd" d="M100.969 52.9904C100.78 52.6726 100.485 52.292 100.421 51.9336C100.611 52.2717 100.82 52.6098 100.969 52.9904Z" fill="white"/>
<path fill-rule="evenodd" clip-rule="evenodd" d="M100.738 53.201L100.086 52.2292L100.191 52.1239C100.423 52.4417 100.633 52.8426 100.738 53.201Z" fill="white"/>
<path fill-rule="evenodd" clip-rule="evenodd" d="M98.7998 54.3003L98.6949 54.5331C98.6323 53.7294 98.358 52.9904 98.0635 52.2495C98.6746 52.7576 99.0943 53.4966 98.7998 54.3003Z" fill="white"/>
<path fill-rule="evenodd" clip-rule="evenodd" d="M104.211 52.4417L104.254 52.8223C103.033 52.2939 101.958 53.0754 101.01 53.6684L100.841 53.4153C101.724 52.5691 102.947 51.9982 104.211 52.4435V52.4417Z" fill="white"/>
<path fill-rule="evenodd" clip-rule="evenodd" d="M97.8104 53.8994L97.6411 54.5331C97.5987 53.7941 97.3042 53.1585 97.0723 52.5045C97.5141 52.8851 97.7884 53.3507 97.8086 53.8994H97.8104Z" fill="white"/>
<path fill-rule="evenodd" clip-rule="evenodd" d="M99.8747 53.9844L99.7477 54.5977C99.7477 54.0472 99.4955 53.5409 99.3262 53.0126C99.6428 53.2657 99.8103 53.6038 99.8747 53.9844Z" fill="white"/>
<path fill-rule="evenodd" clip-rule="evenodd" d="M104.424 59.4161L104.149 59.3533L103.538 53.201H104.002L104.424 59.4161Z" fill="white"/>
<path fill-rule="evenodd" clip-rule="evenodd" d="M103.244 55.5696C103.181 55.6324 103.096 55.5899 103.012 55.612L102.61 53.3728C102.78 53.3303 102.969 53.2675 103.137 53.225L103.242 55.5714L103.244 55.5696Z" fill="white"/>
<path fill-rule="evenodd" clip-rule="evenodd" d="M90.0814 53.7091L89.3027 53.456C89.5549 53.3931 89.8495 53.541 90.0814 53.7091Z" fill="white"/>
<path fill-rule="evenodd" clip-rule="evenodd" d="M107.687 54.3428L108.15 53.7294L110.194 59.4365L107.687 54.3428Z" fill="white"/>
<path fill-rule="evenodd" clip-rule="evenodd" d="M90.4382 54.4703L88.8164 53.8569L88.8808 53.7719L90.3958 54.365L90.4382 54.4703Z" fill="white"/>
<path fill-rule="evenodd" clip-rule="evenodd" d="M90.5232 55.1668L88.502 54.365L88.5443 54.2578L90.5232 55.0615V55.1668Z" fill="white"/>
<path fill-rule="evenodd" clip-rule="evenodd" d="M107.161 55.1261C107.118 54.9783 107.33 54.8934 107.393 54.7659L109.035 58.4018L107.161 55.1261Z" fill="white"/>
<path fill-rule="evenodd" clip-rule="evenodd" d="M90.5027 55.8005L88.29 54.8933L88.3121 54.7862L90.5027 55.6749V55.8005Z" fill="white"/>
<path fill-rule="evenodd" clip-rule="evenodd" d="M90.3758 56.2882V56.3307L88.1852 55.4846L88.1631 55.3793C88.8994 55.6545 89.6376 55.9926 90.3739 56.2882H90.3758Z" fill="white"/>
<path fill-rule="evenodd" clip-rule="evenodd" d="M90.1234 56.8166C89.4497 56.6263 88.7538 56.2882 88.0801 56.0351V55.9501C88.7741 56.2254 89.4902 56.4989 90.1234 56.8166Z" fill="white"/>
<path fill-rule="evenodd" clip-rule="evenodd" d="M89.7445 57.1751C89.1757 57.0698 88.5443 56.7945 88.0381 56.5192L89.7445 57.1751Z" fill="white"/>
<path fill-rule="evenodd" clip-rule="evenodd" d="M88.0602 57.0494L88.0381 56.9645L89.3027 57.4707L88.0602 57.0494Z" fill="white"/>
<path fill-rule="evenodd" clip-rule="evenodd" d="M86.9228 59.9224C87.0498 60.0702 87.3646 59.9445 87.5763 60.0074C87.8929 60.0498 88.1874 60.1977 88.3347 60.4933C88.5243 60.811 88.5869 61.1695 88.5869 61.5704C88.377 61.6554 88.1874 61.5907 87.9334 61.6129C87.8487 61.212 87.8487 60.6411 87.3443 60.4286C87.0498 60.2586 86.7129 60.2808 86.354 60.2383C86.2693 59.5399 86.2914 58.7381 86.4386 58.0619C87.2817 58.23 86.7129 59.309 86.9228 59.9224Z" fill="white"/>
<path fill-rule="evenodd" clip-rule="evenodd" d="M106.445 60.8314L106.572 61.4651L106.192 61.5076C106.255 60.7464 105.624 60.0923 104.97 59.8171C104.907 59.7949 104.78 59.7746 104.865 59.6896C105.519 59.7746 106.255 60.133 106.445 60.8314Z" fill="white"/>
<path fill-rule="evenodd" clip-rule="evenodd" d="M112.258 60.5579C112.405 60.8332 112.448 61.1491 112.468 61.4872C111.774 61.8678 112.216 60.9588 111.941 60.7482C111.709 60.2623 111.203 59.9445 110.741 59.7967C110.866 59.6064 111.246 59.7118 111.457 59.7967C111.772 59.9445 112.111 60.2198 112.258 60.5579Z" fill="white"/>
<path fill-rule="evenodd" clip-rule="evenodd" d="M105.918 61.0217C105.94 61.2323 106.023 61.4651 105.855 61.5704C105.645 61.5279 105.434 61.5279 105.244 61.5279C105.349 60.9995 105.097 60.4711 104.78 60.048C105.285 60.1108 105.749 60.5561 105.918 61.0198V61.0217Z" fill="white"/>
<path fill-rule="evenodd" clip-rule="evenodd" d="M111.857 61.1067V61.4872C111.645 61.4872 111.372 61.4872 111.12 61.5076C111.12 60.9792 111.1 60.4083 110.721 60.0499C111.247 60.1127 111.752 60.5986 111.858 61.1067H111.857Z" fill="white"/>
</g>
<defs>
<clipPath id="clip0_983_926">
<rect width="104" height="58" fill="white" transform="translate(47 29)"/>
</clipPath>
</defs>
</svg>
