<svg width="300" height="300" viewBox="0 0 300 300" fill="none" xmlns="http://www.w3.org/2000/svg">
<path fill-rule="evenodd" clip-rule="evenodd" d="M144.936 181.119C148.598 134.564 169.458 89.3669 191.647 59L206.018 70.9336C179.838 95.0837 158.01 135.564 146.853 181.534C146.233 181.307 145.588 181.166 144.936 181.119Z" fill="#FF4800"/>
<path fill-rule="evenodd" clip-rule="evenodd" d="M148.236 182.241H148.244C170.55 129.762 197.556 96.5272 228.654 82.3201L238.649 98.9799C203.755 114.517 172.821 145.601 149.737 183.373C149.265 182.93 148.778 182.524 148.236 182.241Z" fill="#FF7401"/>
<path fill-rule="evenodd" clip-rule="evenodd" d="M150.821 184.637C186.391 143.903 218.668 126.507 252.76 119.451L257.561 137.95C225.731 141.931 188.229 159.346 151.756 186.26C151.489 185.666 151.175 185.128 150.813 184.637H150.821Z" fill="#FF7401"/>
<path fill-rule="evenodd" clip-rule="evenodd" d="M153.17 190.534L152.613 188.685C189.51 165.912 226.305 154.714 261.073 157.733L261.379 177.468C226.682 170.572 190.72 175.062 153.17 190.534Z" fill="#FFAF01"/>
<path fill-rule="evenodd" clip-rule="evenodd" d="M107.677 146.195V132.564H104.393V143.922C101.266 141.809 98.0522 139.875 94.7601 138.111V134.366V119.545C96.7401 118.064 98.563 116.196 100.158 113.961C102.908 110.093 104.629 105.565 105.352 100.876L105.697 98.5555L94.7679 96.1499V92.7727C90.8786 91.2444 87.1779 88.9237 83.8543 85.7729C77.7179 79.9712 73.805 72.2262 72.2886 63.9529L79.8472 61.9435C80.9786 68.1131 83.9015 73.9808 88.6551 78.4713C100.04 89.2539 117.216 87.6879 126.857 75.1317C130.015 71.0375 131.948 66.283 132.765 61.4246L140.355 63.2453C139.279 69.8017 136.67 76.0845 132.553 81.4334C128.412 86.82 123.258 90.6218 117.679 92.7915V118.753L108.298 120.876L108.652 123.045C109.532 128.809 111.873 134.356 115.684 138.611C116.328 139.318 116.996 139.979 117.679 140.573V154.252C114.442 151.365 111.119 148.667 107.701 146.195H107.677ZM100.747 79.4995C96.9051 75.9713 96.1901 69.3583 99.1287 64.7453C102.067 60.1511 107.567 59.2738 111.417 62.8208C115.244 66.3396 115.99 72.9526 113.036 77.5656C110.089 82.1693 104.589 83.0466 100.747 79.4995Z" fill="#FFAF01"/>
<path fill-rule="evenodd" clip-rule="evenodd" d="M131.201 168.223V153.27H127.697V164.251C125.544 161.874 123.336 159.619 121.089 157.459V140.573C119.628 139.629 118.221 138.431 116.933 136.988C113.444 133.064 111.284 127.979 110.451 122.639L118.056 120.932C118.606 124.47 120.021 127.734 122.213 130.158C127.249 135.809 134.808 135.082 139.177 128.347C140.654 126.092 141.597 123.432 141.982 120.63L149.634 122.196C149.029 126.413 147.607 130.535 145.282 134.092C143.199 137.29 140.614 139.677 137.817 141.214V168.468H131.406C131.335 168.374 131.28 168.308 131.201 168.223ZM125.733 129.998C122.904 127.385 122.362 122.526 124.523 119.121C126.699 115.734 130.746 115.083 133.582 117.687C136.403 120.3 136.945 125.168 134.784 128.554C132.6 131.95 128.554 132.592 125.733 129.998Z" fill="#FF7401"/>
<path fill-rule="evenodd" clip-rule="evenodd" d="M73.5458 129.602V119.13C71.7622 118.159 70.0808 116.885 68.5329 115.3C64.7536 111.432 62.3808 106.329 61.4536 100.895L69.0515 99.046C69.6251 102.508 71.1494 105.763 73.5537 108.225C79.2894 114.093 87.9009 113.272 92.7802 106.404C94.3987 104.131 95.3887 101.48 95.813 98.763L103.427 100.442C102.774 104.735 101.187 108.895 98.673 112.432C96.308 115.762 93.4087 118.178 90.2501 119.659V135.856C84.8837 133.309 79.3208 131.224 73.5458 129.621V129.602ZM78.5037 108.574C75.6672 105.961 75.1408 101.093 77.3172 97.7065C79.4701 94.3009 83.5401 93.6689 86.3608 96.2631C89.1894 98.8762 89.7237 103.735 87.5473 107.131C85.3866 110.527 81.3244 111.168 78.4958 108.574H78.5037Z" fill="#FF7401"/>
<path fill-rule="evenodd" clip-rule="evenodd" d="M137.37 185.43C109.414 158.223 79.0143 142.092 43.8613 146.61L44.7649 128.687C84.3258 129.158 115.071 148.573 139.302 183.072C138.564 183.732 137.912 184.534 137.377 185.43H137.37Z" fill="#FF7401"/>
<path fill-rule="evenodd" clip-rule="evenodd" d="M134.706 190.477C101.816 175.044 68.5801 168.563 38 181.128L38.605 162.101C72.2337 153.176 105.815 162.393 135.845 187.487L134.706 190.477Z" fill="#FFAF01"/>
<path fill-rule="evenodd" clip-rule="evenodd" d="M108.18 204.363C108.345 203.486 109.092 202.977 109.634 202.411C110.254 202.967 110.804 203.675 111.551 203.958C112.871 204.58 114.403 204.411 115.621 203.571C116.061 203.222 116.446 202.788 116.87 202.411C117.42 202.92 118.017 203.448 118.347 204.222C118.229 204.863 117.742 205.241 117.349 205.637C116.462 206.467 115.377 206.92 114.293 207.165C113.279 207.25 112.211 207.335 111.244 206.901C110.074 206.401 108.84 205.675 108.188 204.363H108.18ZM137.087 210.325C137.951 209.844 138.855 209.448 139.829 209.448C140.764 209.429 141.699 209.373 142.634 209.533C144.323 209.92 146.028 210.892 146.971 212.684C147.741 214.099 148.032 215.816 147.89 217.476C146.782 217.504 145.682 217.618 144.59 217.438C144.378 217.127 144.41 216.712 144.339 216.344C144.245 215.193 143.561 214.203 142.689 213.759C141.715 213.363 140.662 213.259 139.664 213.561C138.855 213.712 138.108 214.316 137.731 215.193C137.354 216.005 137.165 216.929 137.189 217.872C137.205 221.099 137.165 224.344 137.205 227.58C137.26 229.231 138.022 231.108 139.507 231.363L139.601 231.4C140.583 231.787 141.66 231.683 142.602 231.287C143.129 231.061 143.585 230.608 143.836 230.014C144.15 229.41 144.331 228.702 144.307 227.966C144.252 227.57 144.622 227.363 144.912 227.363C145.722 227.334 146.531 227.363 147.34 227.344C147.568 227.315 147.78 227.438 147.992 227.532C148 228.881 147.985 230.278 147.442 231.476C146.814 233.183 145.517 234.457 144.064 235.061C143.561 235.259 143.058 235.551 142.5 235.551C141.44 235.674 140.347 235.777 139.295 235.551C138.053 235.174 136.757 234.683 135.798 233.617C134.714 232.447 134.07 230.825 133.787 229.155C133.37 226.146 133.575 223.108 133.527 220.08C133.48 218.693 133.685 217.325 133.653 215.948C133.669 215.486 133.826 215.061 133.983 214.656C134.313 213.844 134.651 213.042 134.997 212.241C135.028 212.193 135.091 212.099 135.115 212.061C135.735 211.429 136.332 210.731 137.071 210.307L137.087 210.325ZM40.6321 209.788C41.7871 209.703 42.9578 209.75 44.1049 209.75H44.2149V209.863C44.2228 212.09 44.2149 214.297 44.2149 216.505C44.2149 217.005 44.2699 217.495 44.3328 218.004C44.3799 219.014 45.0556 219.787 45.8021 220.099C46.7214 220.552 47.7114 220.344 48.6857 220.382C49.3299 220.41 49.9821 220.221 50.5635 219.816C50.6028 216.844 50.5635 213.863 50.5635 210.863C50.5792 210.486 50.6342 210.137 50.705 209.788C51.7657 209.731 52.8421 209.75 53.9107 209.769C53.9893 209.769 54.1621 209.788 54.2564 209.788C54.2093 210.542 54.2093 211.297 54.2093 212.071C54.2093 219.353 54.2093 226.627 54.2093 233.91C54.2093 234.306 54.1935 234.721 54.1778 235.127C53.0071 235.249 51.7971 235.249 50.6185 235.145C50.5792 234.608 50.5557 234.089 50.5557 233.57C50.5714 230.712 50.5557 227.853 50.5714 225.023C50.5557 224.636 50.5871 224.155 50.2964 223.901C49.4085 223.816 48.5442 224.221 47.6642 224.221C46.0378 224.363 44.4271 223.929 42.9264 223.212C42.0385 222.636 41.3078 221.674 40.9149 220.589C40.8049 220.042 40.6792 219.504 40.5928 218.957C40.6713 215.901 40.6478 212.835 40.6163 209.778L40.6321 209.788ZM57.7764 209.825C58.4914 209.476 59.2771 209.675 60.0471 209.618C60.4636 209.656 60.9664 209.495 61.3436 209.807C61.5164 209.995 61.5321 210.269 61.5321 210.524V224.872C61.5164 225.08 61.595 225.25 61.7364 225.4C61.98 224.948 62.1921 224.485 62.4593 224.042C62.6557 223.712 62.86 223.382 63.0407 223.023C64.6829 219.769 66.325 216.514 67.9593 213.24C68.58 212.042 69.1536 210.807 69.8372 209.646C70.7957 209.684 71.825 209.429 72.7443 209.844C72.815 215.429 72.76 221.004 72.7757 226.589C72.76 229.438 72.8072 232.296 72.7443 235.155C72.155 235.513 71.4793 235.334 70.8272 235.381C70.2536 235.353 69.625 235.485 69.0593 235.211C69.0279 234.9 68.965 234.608 68.9493 234.287C68.9493 229.438 68.9807 224.58 68.9493 219.721C68.7214 219.816 68.5407 219.995 68.4072 220.231C67.8179 221.155 67.37 222.202 66.8672 223.193C64.9972 226.919 63.1114 230.636 61.265 234.372C61.0529 234.721 60.8957 235.23 60.4714 235.23C59.6228 235.296 58.7664 235.23 57.9257 235.249H57.8078V235.136C57.8078 226.702 57.8393 218.269 57.7921 209.854L57.7764 209.825ZM74.9443 209.948C75.4 209.486 75.9815 209.637 76.5236 209.618H87.6101C87.9008 209.59 88.2072 209.731 88.3722 210.033C88.4272 211.108 88.4037 212.193 88.3801 213.278C88.2622 213.42 88.1444 213.552 88.0344 213.684C86.5415 213.703 85.0565 213.646 83.5715 213.722C83.5086 214.533 83.5322 215.354 83.5322 216.165C83.5244 222.504 83.5322 228.834 83.5244 235.174H83.3829C82.2201 235.174 81.0729 235.259 79.9258 235.127C79.9101 234.664 79.8786 234.193 79.8786 233.73C79.8943 227.353 79.8786 220.976 79.8943 214.608C79.9101 214.203 79.8551 213.618 79.4072 213.561C78.1186 213.429 76.8065 213.618 75.5179 213.514C75.3293 213.486 75.0543 213.457 75.0308 213.174C74.8108 212.108 75.0308 211.014 74.9522 209.939L74.9443 209.948ZM105.886 209.807C106.224 209.505 106.664 209.637 107.057 209.618C107.85 209.656 108.659 209.505 109.429 209.788C109.414 214.589 109.429 219.382 109.414 224.193C109.414 224.646 109.429 225.08 109.461 225.514C109.932 225.353 110.113 224.778 110.325 224.306C110.404 224.099 110.522 223.901 110.624 223.693C111.26 222.759 111.7 221.674 112.227 220.674C113.829 217.448 115.456 214.288 117.035 211.071C117.294 210.552 117.585 210.109 117.868 209.627C118.803 209.675 119.769 209.42 120.665 209.797C120.689 218.25 120.673 226.702 120.673 235.174C120.461 235.259 120.249 235.391 120.005 235.353C119.157 235.334 118.3 235.391 117.444 235.334C117.137 235.334 116.949 234.966 116.972 234.598C116.957 229.646 116.972 224.693 116.957 219.75C116.839 219.787 116.713 219.816 116.587 219.863C114.214 224.665 111.771 229.429 109.382 234.23C109.217 234.561 109.06 234.9 108.824 235.155C108.581 235.391 108.235 235.353 107.929 235.353C107.371 235.334 106.789 235.362 106.232 235.334C105.909 235.334 105.689 234.966 105.729 234.598V210.533C105.729 210.278 105.737 209.986 105.894 209.797L105.886 209.807ZM161.122 209.901C161.373 209.759 161.617 209.571 161.9 209.618C165.695 209.618 169.498 209.618 173.277 209.618C173.623 209.58 174.015 209.892 173.929 210.344C173.945 216.608 173.929 222.882 173.945 229.146C173.945 229.834 173.866 230.57 174.078 231.249C174.432 231.523 174.856 231.438 175.265 231.457C175.83 231.429 176.404 231.438 176.954 231.523C177.103 232.712 177.017 233.919 177.04 235.098C177.04 236.532 177.056 237.947 177.04 239.381C177.001 239.711 177.056 240.277 176.679 240.277C175.61 240.372 174.487 240.447 173.458 240.089C173.45 238.589 173.473 237.07 173.426 235.579C173.245 235.334 172.986 235.174 172.711 235.202C168.924 235.202 165.121 235.202 161.318 235.202C161.035 235.174 160.768 235.287 160.564 235.523C160.462 235.806 160.422 236.136 160.422 236.457C160.422 237.721 160.47 238.975 160.399 240.24C159.495 240.504 158.56 240.447 157.625 240.4C157.319 240.4 156.84 240.334 156.863 239.825C156.808 237.4 156.879 234.966 156.84 232.532C156.879 232.174 156.769 231.664 157.083 231.476C157.885 231.268 158.804 231.702 159.527 231.08C160.234 230.429 160.69 229.381 160.745 228.306C161.028 227.297 160.996 226.24 161.09 225.212C161.114 220.118 161.09 214.995 161.098 209.901H161.122ZM164.854 214.467C164.838 218.665 164.878 222.882 164.815 227.099C164.728 228.051 164.579 229.023 164.328 229.938C164.218 230.363 164.233 230.806 164.249 231.249C165.255 231.495 166.292 231.363 167.313 231.4C168.24 231.363 169.168 231.485 170.087 231.249C170.158 230.957 170.228 230.655 170.213 230.353C170.205 224.995 170.213 219.636 170.213 214.288C170.268 214.005 170.071 213.835 169.914 213.674C168.28 213.722 166.638 213.674 164.995 213.684C164.94 213.939 164.838 214.184 164.854 214.467ZM179.036 209.797C179.602 209.561 180.215 209.627 180.82 209.618H189.486C189.84 209.59 190.295 209.863 190.248 210.344V212.929C190.272 213.24 190.036 213.439 189.918 213.684H182.87C182.509 214.118 182.588 214.759 182.588 215.316C182.603 216.816 182.588 218.306 182.588 219.825C182.658 219.872 182.784 219.976 182.863 220.042C183.051 220.203 183.255 220.363 183.499 220.344C185.165 220.363 186.823 220.344 188.488 220.363H188.818V220.495C188.842 221.542 188.818 222.608 188.842 223.684C188.763 223.853 188.661 224.023 188.583 224.184C186.665 224.344 184.74 224.221 182.815 224.25C182.485 225.231 182.619 226.268 182.595 227.268C182.619 228.353 182.548 229.438 182.611 230.532C182.635 230.947 182.792 231.504 183.224 231.438C185.463 231.495 187.687 231.391 189.918 231.485C190.217 232.683 190.146 233.995 189.958 235.221L189.934 235.372H181.079C180.38 235.325 179.673 235.513 179.013 235.202C179.083 228.693 179.013 222.184 179.052 215.674C179.02 213.722 179.068 211.759 179.02 209.807L179.036 209.797ZM192.268 209.835C192.511 209.741 192.747 209.59 193.022 209.618H204.823C205.098 209.599 205.35 209.703 205.609 209.797C205.648 210.986 205.609 212.156 205.625 213.335C204.148 213.835 202.592 213.344 201.099 213.608C200.698 213.693 200.785 214.288 200.753 214.637C200.753 220.995 200.753 227.372 200.753 233.749C200.753 234.296 200.675 234.815 200.588 235.362H197.846C197.571 235.4 197.328 235.249 197.068 235.164C197.045 228.655 197.068 222.155 197.068 215.665C197.045 215.005 197.131 214.335 196.958 213.712C195.45 213.693 193.941 213.693 192.433 213.693C192.338 213.448 192.22 213.212 192.244 212.939C192.244 211.901 192.244 210.873 192.26 209.844L192.268 209.835ZM207.896 209.835C208.493 209.495 209.153 209.637 209.797 209.618C210.386 209.637 210.999 209.505 211.557 209.816C211.533 212.722 211.557 215.646 211.533 218.57C211.557 219.061 211.486 219.665 211.863 219.976C213.796 220.25 215.839 219.655 217.709 220.504C218.919 220.976 220.035 221.938 220.656 223.297C221.536 225.08 221.606 227.259 221.41 229.268C221.245 231.098 220.451 232.881 219.163 233.91C218.471 234.532 217.607 234.778 216.813 235.164C215.588 235.494 214.323 235.315 213.058 235.362C211.541 235.362 210.025 235.381 208.508 235.362C208.281 235.381 208.076 235.23 207.872 235.136C207.872 226.712 207.856 218.269 207.888 209.835H207.896ZM211.557 224.533C211.526 226.391 211.557 228.287 211.533 230.155C211.557 230.476 211.471 230.881 211.73 231.08V231.268L211.871 231.249C212.076 231.504 212.374 231.438 212.633 231.457C213.521 231.41 214.409 231.476 215.297 231.41C216.593 231.306 217.803 230.061 217.843 228.466C217.874 227.429 217.984 226.278 217.466 225.382C217.128 224.702 216.562 224.136 215.886 224.146C215.627 224.042 215.336 223.938 215.061 223.938C213.993 223.919 212.948 223.957 211.879 223.919C211.856 223.985 211.824 224.136 211.808 224.202V224.004C211.683 224.136 211.526 224.297 211.549 224.533H211.557ZM224.781 209.797C225.535 209.505 226.36 209.627 227.153 209.637C227.876 209.854 227.931 210.901 228.222 211.58C228.599 213.108 229.251 214.495 229.738 215.986C230.964 219.287 232.166 222.599 233.361 225.919C233.565 226.429 233.714 227.042 234.178 227.297C235.301 224.561 236.221 221.731 237.266 218.967C237.635 217.967 238.02 216.976 238.334 215.957L238.366 215.844C238.931 214.589 239.356 213.259 239.843 211.967C240.055 211.391 240.259 210.797 240.393 210.203C240.487 209.722 240.982 209.59 241.336 209.609C242.011 209.646 242.726 209.467 243.394 209.825C243.394 218.278 243.394 226.731 243.394 235.174H243.245C242.098 235.174 240.943 235.259 239.788 235.098C239.654 233.344 239.756 231.57 239.733 229.787C239.694 227.495 239.788 225.202 239.686 222.91C239.552 222.891 239.426 222.872 239.293 222.872C237.792 226.721 236.331 230.598 234.846 234.476C234.736 234.711 234.641 234.994 234.421 235.136C234.123 235.24 233.816 235.155 233.518 235.117C231.954 231.032 230.406 226.91 228.796 222.853C228.654 222.853 228.513 222.872 228.379 222.901C228.316 225.721 228.379 228.523 228.348 231.315C228.332 232.608 228.411 233.9 228.269 235.174C227.153 235.193 226.022 235.174 224.891 235.174H224.773C224.749 230.117 224.773 225.099 224.773 220.061C224.773 216.627 224.741 213.174 224.781 209.759V209.797ZM247.197 209.769C248.266 209.75 249.35 209.75 250.419 209.769C250.576 210.165 250.678 210.59 250.662 211.042C250.631 215.156 250.662 219.25 250.654 223.334C250.662 224.07 250.56 224.853 250.851 225.542C251.574 224.589 251.99 223.401 252.579 222.335C253.302 220.844 254.119 219.448 254.748 217.891C255.997 215.306 257.301 212.788 258.574 210.231C258.841 209.542 259.572 209.627 260.099 209.627C260.688 209.665 261.316 209.495 261.851 209.835C262.063 210.052 261.976 210.41 262 210.712C262 218.74 262 226.768 262 234.778C261.953 235.362 261.34 235.4 260.955 235.362C260.044 235.296 259.077 235.532 258.197 235.183C257.977 233.513 258.119 231.834 258.087 230.155C258.071 226.674 258.111 223.184 258.056 219.684C257.875 219.853 257.702 220.033 257.569 220.25C256.634 221.759 255.95 223.429 255.109 225.014C254.363 226.57 253.491 228.042 252.839 229.664C252.147 231.164 251.361 232.636 250.623 234.136C250.34 234.645 250.089 235.428 249.46 235.353C248.619 235.287 247.755 235.504 246.946 235.183C246.969 226.712 246.961 218.231 246.961 209.759H247.197V209.769ZM93.8094 209.769C94.7758 209.693 95.7344 209.731 96.7008 209.741C96.9994 209.684 97.188 209.995 97.2901 210.288C98.0366 213.561 102.759 231.787 102.877 232.532C102.955 233.429 103.269 234.259 103.364 235.136C102.185 235.268 100.999 235.249 99.8201 235.155C99.5216 234.296 99.4116 233.353 99.0816 232.513C98.9166 232.042 98.783 231.551 98.6494 231.07C98.3666 231.013 98.0994 230.966 97.8244 230.966C96.1665 230.966 94.5165 230.966 92.8508 230.966C92.6151 230.966 92.3165 231.004 92.1987 231.296C91.7194 232.438 91.688 233.749 91.248 234.91C91.1301 235.221 90.8551 235.4 90.588 235.362C89.7708 235.372 88.9694 235.362 88.1444 235.362C87.9165 235.4 87.6965 235.268 87.4922 235.164C87.4844 234.589 87.5708 234.061 87.7829 233.542C88.2622 231.598 88.7415 229.674 89.2444 227.74C89.4408 226.655 89.8651 225.665 89.9751 224.57C90.258 223.834 90.4308 223.07 90.588 222.297C90.973 221.08 91.2087 219.769 91.5701 218.533C91.7351 217.533 92.1044 216.637 92.2694 215.674C92.3794 215.127 92.5444 214.627 92.7251 214.118C93.1494 212.759 93.5108 211.363 93.7858 209.948L93.8094 209.759V209.769ZM95.3494 217.872L93.4165 227.042C94.8151 227.042 96.2373 227.146 97.628 226.985C97.6673 226.117 95.8758 218.231 95.3494 217.872Z" fill="#5A777C"/>
</svg>
