<!-- svg-sprite -->
<svg id="mysprite" xmlns="http://www.w3.org/2000/svg" fill="none" aria-hidden="true"
    focusable="false">
    <!-- logo -->
    <symbol id="logo" viewBox="0 0 200 162" fill="none"
        xmlns="http://www.w3.org/2000/svg">
        <path fill-rule="evenodd" clip-rule="evenodd"
            d="M95.4787 109.034C98.7478 67.4675 117.374 27.1133 137.185 0L150.016 10.655C126.641 32.2176 107.152 68.3603 97.1904 109.405C96.6362 109.203 96.0609 109.077 95.4787 109.034Z"
            fill="#FF4800" />
        <path fill-rule="evenodd" clip-rule="evenodd"
            d="M98.425 110.037H98.4321C118.349 63.1803 142.46 33.5064 170.227 20.8215L179.15 35.6964C147.995 49.5689 120.376 77.3224 99.765 111.048C99.3441 110.652 98.9091 110.29 98.425 110.037Z"
            fill="#FF7401" />
        <path fill-rule="evenodd" clip-rule="evenodd"
            d="M100.733 112.176C132.491 75.8062 161.31 60.2743 191.75 53.974L196.036 70.4913C167.617 74.0458 134.133 89.5945 101.568 113.625C101.329 113.094 101.049 112.614 100.726 112.176H100.733Z"
            fill="#FF7401" />
        <path fill-rule="evenodd" clip-rule="evenodd"
            d="M102.831 117.441L102.333 115.79C135.277 95.4569 168.129 85.459 199.172 88.1543L199.446 105.775C168.466 99.6179 136.357 103.627 102.831 117.441Z"
            fill="#FFAF01" />
        <path fill-rule="evenodd" clip-rule="evenodd"
            d="M62.2118 77.853V65.6819H59.2794V75.8231C56.4873 73.9364 53.618 72.2097 50.6786 70.6346V67.2907V54.0583C52.4464 52.7359 54.074 51.0682 55.4981 49.0719C57.9535 45.6186 59.4898 41.5756 60.1353 37.3894L60.4439 35.3173L50.6856 33.1695V30.1541C47.213 28.7896 43.9088 26.7176 40.9413 23.9043C35.4623 18.7242 31.9687 11.809 30.6147 4.42214L37.3635 2.62806C38.3737 8.13664 40.9834 13.3757 45.2277 17.385C55.3929 27.0124 70.7284 25.6142 79.3362 14.4033C82.1564 10.7477 83.8821 6.5026 84.6117 2.16481L91.3885 3.79043C90.4274 9.64434 88.0983 15.254 84.4223 20.0298C80.7252 24.8393 76.1232 28.2337 71.1423 30.171V53.3508L62.766 55.2459L63.0817 57.1832C63.8674 62.3296 65.958 67.2823 69.3604 71.081C69.9357 71.7127 70.532 72.3023 71.1423 72.833V85.0462C68.252 82.4688 65.2845 80.0598 62.2328 77.853H62.2118ZM56.0243 18.3031C52.5938 15.1529 51.9554 9.24847 54.5791 5.12967C57.2028 1.02771 62.1136 0.244383 65.5511 3.41139C68.9675 6.55314 69.634 12.4576 66.9962 16.5764C64.3655 20.6868 59.4548 21.4701 56.0243 18.3031Z"
            fill="#FFAF01" />
        <path fill-rule="evenodd" clip-rule="evenodd"
            d="M83.2157 97.5204V84.1701H80.0869V93.9743C78.1647 91.8518 76.1934 89.8387 74.187 87.9099V72.8329C72.8821 71.9906 71.6264 70.9209 70.4759 69.6322C67.3611 66.1282 65.4319 61.5883 64.6882 56.8209L71.4791 55.2964C71.9701 58.455 73.2329 61.3693 75.1902 63.534C79.687 68.5793 86.4358 67.9307 90.3363 61.9168C91.6552 59.9037 92.497 57.5284 92.8407 55.0268L99.6737 56.425C99.1335 60.1901 97.8637 63.8709 95.7872 67.0463C93.9281 69.9017 91.6201 72.0327 89.1226 73.4056V97.7394H83.3981C83.335 97.6552 83.2859 97.5962 83.2157 97.5204ZM78.3331 63.3908C75.8075 61.0576 75.3235 56.7198 77.2527 53.6792C79.1959 50.6554 82.8088 50.0742 85.3414 52.3989C87.8599 54.732 88.3439 59.0783 86.4147 62.1021C84.4644 65.1343 80.8516 65.7071 78.3331 63.3908Z"
            fill="#FF7401" />
        <path fill-rule="evenodd" clip-rule="evenodd"
            d="M31.7373 63.0372V53.6878C30.1448 52.8202 28.6435 51.6831 27.2615 50.2681C23.8871 46.8147 21.7685 42.2579 20.9407 37.4063L27.7245 35.7554C28.2366 38.8466 29.5976 41.7525 31.7443 43.9509C36.8655 49.1899 44.5543 48.4571 48.9108 42.3253C50.3559 40.2954 51.2399 37.9285 51.6187 35.5027L58.4166 37.002C57.8343 40.8344 56.4172 44.5489 54.1723 47.7075C52.0607 50.6808 49.472 52.8371 46.6519 54.1595V68.6216C41.8604 66.3474 36.8935 64.4859 31.7373 63.054V63.0372ZM36.1639 44.2625C33.6314 41.9294 33.1614 37.5832 35.1046 34.5594C37.0268 31.5187 40.6608 30.9544 43.1793 33.2707C45.7048 35.6038 46.1818 39.9416 44.2386 42.9738C42.3094 46.0061 38.6824 46.5788 36.1569 44.2625H36.1639Z"
            fill="#FF7401" />
        <path fill-rule="evenodd" clip-rule="evenodd"
            d="M88.7228 112.884C63.7623 88.5921 36.62 74.1889 5.2334 78.2235L6.04016 62.22C41.3623 62.6411 68.8133 79.9755 90.4486 110.778C89.7892 111.368 89.2069 112.084 88.7299 112.884H88.7228Z"
            fill="#FF7401" />
        <path fill-rule="evenodd" clip-rule="evenodd"
            d="M86.3447 117.39C56.9785 103.61 27.3037 97.8237 0 109.043L0.54018 92.054C30.5658 84.086 60.5493 92.3151 87.3619 114.72L86.3447 117.39Z"
            fill="#FFAF01" />
        <path fill-rule="evenodd" clip-rule="evenodd"
            d="M62.6608 129.789C62.8081 129.005 63.4746 128.551 63.9586 128.045C64.5128 128.542 65.0039 129.174 65.6704 129.427C66.8489 129.982 68.2169 129.831 69.3043 129.081C69.6972 128.77 70.0409 128.382 70.4197 128.045C70.9108 128.5 71.444 128.972 71.7386 129.662C71.6334 130.235 71.1984 130.572 70.8477 130.926C70.0549 131.667 69.0868 132.071 68.1187 132.29C67.2137 132.366 66.2597 132.442 65.3968 132.054C64.3515 131.608 63.2501 130.959 62.6678 129.789H62.6608ZM88.4702 135.112C89.2419 134.682 90.0486 134.329 90.9185 134.329C91.7534 134.312 92.5882 134.261 93.423 134.404C94.9313 134.75 96.4536 135.617 97.2955 137.218C97.983 138.481 98.2425 140.014 98.1163 141.497C97.1271 141.522 96.145 141.623 95.1698 141.463C94.9804 141.185 95.0085 140.814 94.9453 140.486C94.8611 139.458 94.2508 138.574 93.4721 138.178C92.6022 137.824 91.6622 137.731 90.7712 138.001C90.0486 138.136 89.3822 138.675 89.0454 139.458C88.7087 140.183 88.5403 141.008 88.5614 141.85C88.5754 144.731 88.5403 147.628 88.5754 150.517C88.6245 151.991 89.305 153.668 90.6309 153.895L90.7151 153.929C91.592 154.274 92.5531 154.181 93.3949 153.828C93.865 153.626 94.2719 153.221 94.4963 152.691C94.777 152.152 94.9383 151.52 94.9173 150.863C94.8682 150.509 95.1979 150.324 95.4575 150.324C96.18 150.298 96.9026 150.324 97.6252 150.307C97.8286 150.282 98.018 150.391 98.2075 150.475C98.2145 151.68 98.2004 152.926 97.7164 153.996C97.1552 155.521 95.9976 156.658 94.6998 157.197C94.2508 157.374 93.8018 157.635 93.3037 157.635C92.3567 157.744 91.3815 157.837 90.4415 157.635C89.3331 157.298 88.1755 156.86 87.3197 155.908C86.3516 154.864 85.7763 153.415 85.5237 151.924C85.1519 149.237 85.3343 146.525 85.2922 143.821C85.2501 142.583 85.4325 141.362 85.4045 140.132C85.4185 139.719 85.5588 139.34 85.6991 138.978C85.9938 138.254 86.2954 137.538 86.6041 136.822C86.6322 136.78 86.6883 136.695 86.7093 136.662C87.2635 136.097 87.7967 135.474 88.4561 135.095L88.4702 135.112ZM2.35002 134.632C3.38127 134.556 4.42656 134.598 5.45079 134.598H5.54901V134.699C5.55602 136.687 5.54901 138.658 5.54901 140.629C5.54901 141.075 5.59811 141.513 5.65424 141.968C5.69633 142.869 6.29965 143.56 6.9661 143.838C7.7869 144.242 8.67083 144.057 9.54073 144.091C10.116 144.116 10.6983 143.948 11.2174 143.585C11.2525 140.932 11.2174 138.271 11.2174 135.592C11.2314 135.255 11.2805 134.944 11.3437 134.632C12.2907 134.581 13.2518 134.598 14.2059 134.615C14.2761 134.615 14.4304 134.632 14.5146 134.632C14.4725 135.306 14.4725 135.98 14.4725 136.67C14.4725 143.173 14.4725 149.667 14.4725 156.169C14.4725 156.523 14.4585 156.894 14.4444 157.256C13.3992 157.365 12.3188 157.365 11.2665 157.273C11.2314 156.793 11.2104 156.329 11.2104 155.866C11.2244 153.314 11.2104 150.762 11.2244 148.235C11.2104 147.89 11.2384 147.46 10.9789 147.233C10.1861 147.157 9.41445 147.519 8.62874 147.519C7.17656 147.645 5.73842 147.258 4.39849 146.618C3.60576 146.104 2.95334 145.245 2.60257 144.276C2.50436 143.788 2.39211 143.307 2.31494 142.819C2.38509 140.09 2.36405 137.352 2.33599 134.623L2.35002 134.632ZM17.6575 134.666C18.2959 134.354 18.9974 134.531 19.6849 134.48C20.0567 134.514 20.5057 134.371 20.8424 134.649C20.9968 134.817 21.0108 135.061 21.0108 135.289V148.1C20.9968 148.285 21.0669 148.437 21.1932 148.572C21.4107 148.167 21.6001 147.755 21.8386 147.359C22.014 147.064 22.1964 146.769 22.3577 146.449C23.8239 143.543 25.2901 140.637 26.7493 137.715C27.3035 136.645 27.8157 135.542 28.426 134.506C29.2819 134.539 30.2009 134.312 31.0217 134.682C31.0848 139.669 31.0357 144.647 31.0497 149.633C31.0357 152.177 31.0778 154.729 31.0217 157.281C30.4955 157.601 29.8922 157.441 29.3099 157.483C28.7978 157.458 28.2366 157.576 27.7315 157.332C27.7034 157.054 27.6473 156.793 27.6333 156.506C27.6333 152.177 27.6613 147.839 27.6333 143.501C27.4298 143.585 27.2685 143.745 27.1492 143.956C26.6231 144.781 26.2232 145.716 25.7742 146.601C24.1046 149.928 22.4209 153.246 20.7723 156.582C20.5829 156.894 20.4425 157.348 20.0637 157.348C19.3061 157.407 18.5414 157.348 17.7908 157.365H17.6855V157.264C17.6855 149.734 17.7136 142.204 17.6715 134.691L17.6575 134.666ZM32.986 134.775C33.3928 134.362 33.912 134.497 34.396 134.48H44.2947C44.5542 134.455 44.8278 134.581 44.9752 134.851C45.0243 135.811 45.0032 136.78 44.9822 137.748C44.8769 137.875 44.7717 137.993 44.6735 138.111C43.3406 138.127 42.0147 138.077 40.6888 138.144C40.6327 138.869 40.6537 139.601 40.6537 140.326C40.6467 145.986 40.6537 151.638 40.6467 157.298H40.5204C39.4821 157.298 38.4579 157.374 37.4337 157.256C37.4196 156.843 37.3916 156.422 37.3916 156.009C37.4056 150.315 37.3916 144.621 37.4056 138.936C37.4196 138.574 37.3705 138.052 36.9707 138.001C35.8201 137.883 34.6486 138.052 33.4981 137.959C33.3297 137.934 33.0842 137.908 33.0631 137.656C32.8667 136.704 33.0631 135.727 32.993 134.767L32.986 134.775ZM60.6123 134.649C60.914 134.379 61.3068 134.497 61.6576 134.48C62.3661 134.514 63.0887 134.379 63.7762 134.632C63.7622 138.919 63.7762 143.198 63.7622 147.494C63.7622 147.898 63.7762 148.285 63.8043 148.673C64.2252 148.53 64.3866 148.016 64.576 147.595C64.6461 147.409 64.7514 147.233 64.8426 147.047C65.4108 146.213 65.8037 145.245 66.2737 144.352C67.7048 141.471 69.157 138.65 70.5671 135.777C70.7986 135.314 71.0581 134.918 71.3107 134.489C72.1455 134.531 73.0084 134.303 73.8081 134.64C73.8292 142.187 73.8152 149.734 73.8152 157.298C73.6257 157.374 73.4363 157.492 73.2189 157.458C72.4612 157.441 71.6965 157.492 70.9319 157.441C70.6583 157.441 70.4899 157.113 70.5109 156.784C70.4969 152.362 70.5109 147.94 70.4969 143.526C70.3917 143.56 70.2794 143.585 70.1672 143.628C68.0486 147.915 65.8668 152.168 63.7341 156.456C63.5868 156.75 63.4465 157.054 63.236 157.281C63.0186 157.492 62.7099 157.458 62.4363 157.458C61.9382 157.441 61.4191 157.466 60.921 157.441C60.6334 157.441 60.4369 157.113 60.472 156.784V135.297C60.472 135.07 60.479 134.809 60.6193 134.64L60.6123 134.649ZM109.93 134.733C110.155 134.607 110.372 134.438 110.625 134.48C114.013 134.48 117.408 134.48 120.783 134.48C121.091 134.447 121.442 134.725 121.365 135.129C121.379 140.722 121.365 146.323 121.379 151.916C121.379 152.531 121.309 153.188 121.498 153.794C121.814 154.038 122.193 153.962 122.558 153.979C123.063 153.954 123.575 153.962 124.066 154.038C124.199 155.1 124.122 156.178 124.143 157.231C124.143 158.511 124.157 159.774 124.143 161.055C124.108 161.349 124.157 161.855 123.82 161.855C122.866 161.939 121.863 162.006 120.944 161.686C120.937 160.347 120.958 158.991 120.916 157.66C120.755 157.441 120.523 157.298 120.278 157.323C116.896 157.323 113.501 157.323 110.105 157.323C109.853 157.298 109.614 157.399 109.432 157.61C109.341 157.862 109.306 158.157 109.306 158.443C109.306 159.572 109.348 160.692 109.285 161.821C108.478 162.057 107.643 162.006 106.808 161.964C106.535 161.964 106.107 161.905 106.128 161.45C106.079 159.286 106.142 157.113 106.107 154.939C106.142 154.619 106.044 154.165 106.324 153.996C107.04 153.811 107.861 154.198 108.506 153.642C109.137 153.061 109.544 152.126 109.593 151.166C109.846 150.265 109.818 149.321 109.902 148.403C109.923 143.855 109.902 139.281 109.909 134.733H109.93ZM113.262 138.81C113.248 142.558 113.283 146.323 113.227 150.088C113.15 150.939 113.017 151.806 112.792 152.623C112.694 153.002 112.708 153.398 112.722 153.794C113.62 154.013 114.546 153.895 115.458 153.929C116.286 153.895 117.114 154.005 117.935 153.794C117.998 153.533 118.061 153.263 118.047 152.994C118.04 148.21 118.047 143.425 118.047 138.65C118.096 138.397 117.921 138.245 117.78 138.102C116.321 138.144 114.855 138.102 113.389 138.111C113.34 138.338 113.248 138.557 113.262 138.81ZM125.925 134.64C126.43 134.43 126.977 134.489 127.517 134.48H135.255C135.571 134.455 135.978 134.699 135.936 135.129V137.437C135.957 137.715 135.746 137.892 135.641 138.111H129.348C129.026 138.498 129.096 139.071 129.096 139.568C129.11 140.907 129.096 142.238 129.096 143.594C129.159 143.636 129.271 143.729 129.341 143.788C129.51 143.931 129.692 144.074 129.91 144.057C131.397 144.074 132.877 144.057 134.364 144.074H134.659V144.192C134.68 145.127 134.659 146.079 134.68 147.039C134.61 147.19 134.519 147.342 134.449 147.485C132.737 147.628 131.018 147.519 129.299 147.544C129.005 148.42 129.124 149.347 129.103 150.24C129.124 151.208 129.061 152.177 129.117 153.154C129.138 153.524 129.278 154.021 129.664 153.962C131.664 154.013 133.649 153.92 135.641 154.005C135.908 155.074 135.845 156.245 135.676 157.34L135.655 157.475H127.749C127.125 157.433 126.493 157.601 125.904 157.323C125.967 151.511 125.904 145.7 125.939 139.888C125.911 138.144 125.953 136.392 125.911 134.649L125.925 134.64ZM137.739 134.674C137.956 134.59 138.167 134.455 138.412 134.48H148.949C149.195 134.463 149.419 134.556 149.651 134.64C149.686 135.702 149.651 136.746 149.665 137.799C148.346 138.245 146.957 137.807 145.624 138.043C145.266 138.119 145.343 138.65 145.315 138.961C145.315 144.638 145.315 150.332 145.315 156.026C145.315 156.515 145.245 156.978 145.168 157.466H142.72C142.474 157.5 142.257 157.365 142.025 157.289C142.004 151.478 142.025 145.674 142.025 139.879C142.004 139.29 142.081 138.692 141.927 138.136C140.58 138.119 139.233 138.119 137.886 138.119C137.802 137.9 137.697 137.689 137.718 137.445C137.718 136.519 137.718 135.601 137.732 134.682L137.739 134.674ZM151.692 134.674C152.225 134.371 152.815 134.497 153.39 134.48C153.916 134.497 154.463 134.379 154.961 134.657C154.94 137.251 154.961 139.862 154.94 142.474C154.961 142.912 154.898 143.451 155.235 143.729C156.961 143.973 158.785 143.442 160.454 144.2C161.535 144.621 162.531 145.481 163.085 146.693C163.871 148.285 163.934 150.231 163.759 152.025C163.611 153.659 162.903 155.251 161.752 156.169C161.135 156.725 160.363 156.944 159.655 157.289C158.56 157.584 157.431 157.424 156.301 157.466C154.947 157.466 153.593 157.483 152.24 157.466C152.036 157.483 151.854 157.348 151.671 157.264C151.671 149.743 151.657 142.204 151.685 134.674H151.692ZM154.961 147.797C154.933 149.456 154.961 151.149 154.94 152.817C154.961 153.103 154.884 153.465 155.116 153.642V153.811L155.242 153.794C155.424 154.021 155.691 153.962 155.923 153.979C156.715 153.937 157.508 153.996 158.301 153.937C159.458 153.845 160.539 152.733 160.574 151.309C160.602 150.383 160.7 149.355 160.237 148.555C159.935 147.948 159.43 147.443 158.827 147.452C158.595 147.359 158.336 147.266 158.09 147.266C157.136 147.249 156.203 147.283 155.249 147.249C155.228 147.308 155.2 147.443 155.186 147.502V147.325C155.074 147.443 154.933 147.586 154.954 147.797H154.961ZM166.768 134.64C167.442 134.379 168.178 134.489 168.887 134.497C169.532 134.691 169.581 135.626 169.841 136.232C170.178 137.597 170.76 138.835 171.195 140.166C172.289 143.114 173.363 146.07 174.429 149.035C174.611 149.49 174.745 150.037 175.159 150.265C176.162 147.822 176.983 145.295 177.916 142.827C178.245 141.935 178.589 141.05 178.87 140.14L178.898 140.039C179.403 138.919 179.782 137.731 180.217 136.578C180.406 136.064 180.588 135.533 180.708 135.002C180.792 134.573 181.234 134.455 181.55 134.472C182.153 134.506 182.791 134.345 183.388 134.666C183.388 142.212 183.388 149.759 183.388 157.298H183.254C182.23 157.298 181.199 157.374 180.168 157.231C180.048 155.664 180.139 154.08 180.118 152.488C180.083 150.442 180.168 148.395 180.076 146.348C179.957 146.331 179.845 146.314 179.726 146.314C178.386 149.751 177.081 153.213 175.755 156.675C175.657 156.885 175.572 157.138 175.376 157.264C175.109 157.357 174.836 157.281 174.569 157.247C173.173 153.6 171.791 149.919 170.353 146.298C170.227 146.298 170.101 146.314 169.981 146.34C169.925 148.858 169.981 151.36 169.953 153.853C169.939 155.007 170.009 156.161 169.883 157.298C168.887 157.315 167.877 157.298 166.866 157.298H166.761C166.74 152.783 166.761 148.302 166.761 143.804C166.761 140.738 166.733 137.656 166.768 134.607V134.64ZM186.783 134.615C187.737 134.598 188.705 134.598 189.659 134.615C189.8 134.969 189.891 135.348 189.877 135.752C189.849 139.425 189.877 143.08 189.87 146.727C189.877 147.384 189.786 148.083 190.045 148.698C190.691 147.847 191.062 146.786 191.589 145.834C192.234 144.504 192.963 143.257 193.525 141.867C194.64 139.559 195.805 137.31 196.941 135.028C197.18 134.413 197.832 134.489 198.302 134.489C198.828 134.522 199.39 134.371 199.867 134.674C200.056 134.868 199.979 135.188 200 135.457C200 142.625 200 149.793 200 156.944C199.958 157.466 199.411 157.5 199.067 157.466C198.253 157.407 197.39 157.618 196.604 157.306C196.408 155.815 196.534 154.316 196.506 152.817C196.492 149.709 196.527 146.592 196.478 143.467C196.317 143.619 196.162 143.779 196.043 143.973C195.208 145.321 194.598 146.811 193.847 148.226C193.181 149.616 192.402 150.93 191.82 152.379C191.203 153.718 190.501 155.032 189.842 156.371C189.589 156.826 189.365 157.525 188.803 157.458C188.053 157.399 187.281 157.593 186.559 157.306C186.58 149.743 186.573 142.17 186.573 134.607H186.783V134.615ZM49.8298 134.615C50.6926 134.548 51.5485 134.581 52.4114 134.59C52.678 134.539 52.8463 134.817 52.9375 135.078C53.604 138.001 57.8202 154.274 57.9254 154.939C57.9956 155.74 58.2762 156.481 58.3604 157.264C57.3081 157.382 56.2488 157.365 55.1965 157.281C54.9299 156.515 54.8317 155.672 54.537 154.923C54.3897 154.501 54.2705 154.064 54.1512 153.634C53.8986 153.583 53.6601 153.541 53.4146 153.541C51.9344 153.541 50.4611 153.541 48.9739 153.541C48.7634 153.541 48.4968 153.575 48.3916 153.836C47.9637 154.855 47.9356 156.026 47.5428 157.062C47.4375 157.34 47.192 157.5 46.9535 157.466C46.2239 157.475 45.5083 157.466 44.7717 157.466C44.5683 157.5 44.3718 157.382 44.1894 157.289C44.1824 156.776 44.2596 156.304 44.449 155.841C44.8769 154.106 45.3049 152.387 45.7539 150.661C45.9292 149.692 46.3081 148.808 46.4063 147.831C46.6588 147.174 46.8132 146.491 46.9535 145.801C47.2972 144.714 47.5077 143.543 47.8304 142.44C47.9777 141.547 48.3074 140.747 48.4548 139.888C48.553 139.399 48.7003 138.953 48.8616 138.498C49.2405 137.285 49.5632 136.038 49.8087 134.775L49.8298 134.607V134.615ZM51.2048 141.85L49.479 150.037C50.7277 150.037 51.9975 150.13 53.2392 149.987C53.2743 149.212 51.6748 142.17 51.2048 141.85Z"
            fill="#5A777C" />
    </symbol>
    <!-- burger -->
    <symbol id="hamburgerMenu" viewBox="0 0 24 24" fill="none" xmlns="http://www.w3.org/2000/svg">
        <rect y="3" width="24" height="2" rx="1" fill="currentColor" />
        <rect y="11" width="24" height="2" rx="1" fill="currentColor" />
        <rect y="19" width="24" height="2" rx="1" fill="currentColor" />
    </symbol>
    <!-- search -->
    <symbol id="search" viewBox="0 0 22 22" fill="none" xmlns="http://www.w3.org/2000/svg">
        <path
            d="M12.7629 17.7578C13.4574 17.4701 14.1125 17.0993 14.7145 16.6547L18.9079 20.8482C19.4437 21.3839 20.3124 21.3839 20.8482 20.8482C21.3839 20.3124 21.3839 19.4437 20.8482 18.9079L16.6547 14.7145C17.0994 14.1125 17.4701 13.4574 17.7578 12.7628C18.1745 11.7569 18.4095 10.686 18.453 9.59996C18.4669 9.25328 18.1849 8.98087 17.8512 8.98087C17.5121 8.98087 17.2486 9.25416 17.2345 9.57908C17.1939 10.5122 16.9903 11.432 16.6322 12.2966C16.2296 13.2685 15.6395 14.1517 14.8956 14.8956C14.1517 15.6395 13.2686 16.2296 12.2966 16.6322C11.432 16.9903 10.5122 17.1938 9.5791 17.2344C9.25419 17.2485 8.98089 17.5121 8.98089 17.8512C8.98089 18.1848 9.2533 18.4668 9.59998 18.453C10.686 18.4095 11.7569 18.1745 12.7629 17.7578ZM8.48291 16.2158C12.7537 16.2158 16.2158 12.7537 16.2158 8.48289C16.2158 4.21213 12.7537 0.75 8.48291 0.75C4.21214 0.75 0.75 4.21213 0.75 8.48289C0.75 12.7537 4.21214 16.2158 8.48291 16.2158Z"
            stroke="currentColor" stroke-width="0.5" />
    </symbol>
    <!-- signout -->
    <symbol id="signout" viewBox="0 0 18 22" fill="none" xmlns="http://www.w3.org/2000/svg">
        <path
            d="M11.8565 11.3565L12.0184 11.5185L11.8565 11.3565ZM11.8565 11.3565L11.9021 11.4021M11.8565 11.3565L11.9021 11.4021M9.68947 10.25L7.46971 8.03029L7.46664 8.02723L7.46667 8.0272C7.17891 7.72928 7.18715 7.25448 7.48507 6.96673L7.48509 6.96671C7.77574 6.68604 8.23652 6.686 8.52715 6.96674L8.53026 6.96974L8.53023 6.96977L12.0302 10.4697C12.0302 10.4697 12.0302 10.4698 12.0302 10.4698C12.3232 10.7626 12.3229 11.2375 12.0303 11.5302L11.9059 11.4059L12.0302 11.5303L12.0302 11.5303L8.53052 15.03L9.68947 10.25ZM9.68947 10.25H1.5C1.08581 10.25 0.75 10.5858 0.75 11C0.75 11.4142 1.08581 11.75 1.5 11.75H9.68947L7.46971 13.9697L7.64648 14.1465L7.46971 13.9697C7.3291 14.1103 7.25008 14.301 7.25006 14.4999L9.68947 10.25ZM11.9021 11.4021L11.8535 11.3535L11.9021 11.4021ZM7.25006 14.4999C7.25 14.9141 7.58574 15.2498 7.99977 15.25C7.99983 15.25 7.99989 15.25 7.99994 15.25L7.25006 14.4999ZM14.5002 0.75H14.5L3.5 0.75L3.49977 0.75C1.98169 0.75141 0.75141 1.98169 0.75 3.49977V3.5V7.5C0.75 7.91419 1.08581 8.25 1.5 8.25C1.91419 8.25 2.25 7.91419 2.25 7.5L2.25 3.50028C2.25 3.50024 2.25 3.50021 2.25 3.50017C2.25082 2.81005 2.81005 2.25082 3.50017 2.25C3.50021 2.25 3.50024 2.25 3.50028 2.25H14.4997C14.4998 2.25 14.4998 2.25 14.4998 2.25C15.19 2.25082 15.7492 2.8101 15.75 3.50028V18.4997C15.7492 19.1899 15.1899 19.7492 14.4997 19.75H3.50028C2.8101 19.7492 2.25082 19.19 2.25 18.4998C2.25 18.4998 2.25 18.4998 2.25 18.4997L2.25 14.5C2.25 14.0858 1.91419 13.75 1.5 13.75C1.08581 13.75 0.75 14.0858 0.75 14.5L0.75 18.5L0.75 18.5002C0.75141 20.0183 1.98169 21.2486 3.49977 21.25H3.5H14.5H14.5002C16.0183 21.2486 17.2486 20.0183 17.25 18.5002V18.5V3.5V3.49977C17.2486 1.98169 16.0183 0.75141 14.5002 0.75Z"
            stroke="currentColor" stroke-width="0.5" />
    </symbol>
    <!-- cross -->
    <svg id="cross" viewBox="0 0 20 19" fill="none" xmlns="http://www.w3.org/2000/svg">
        <rect x="2.2218" width="24" height="2" rx="1" transform="rotate(45 2.2218 0)"
            fill="currentColor" />
        <rect x="0.807617" y="17" width="24" height="2" rx="1" transform="rotate(-45 0.807617 17)"
            fill="currentColor" />
    </svg>
    <!-- telegram -->
    <symbol id="telegram" viewBox="0 0 60 52" fill="none" xmlns="http://www.w3.org/2000/svg">
        <path
            d="M50.5104 49.362C50.3243 49.8126 50.0411 50.2193 49.6799 50.5549C49.3186 50.8905 48.8877 51.1473 48.4158 51.308C47.944 51.4687 47.4423 51.5296 46.9443 51.4866C46.4462 51.4437 45.9634 51.2978 45.5282 51.0589L32.03 40.8757L23.3667 48.6356C23.1656 48.7798 22.9305 48.8726 22.6829 48.9055C22.4352 48.9383 22.1831 48.9102 21.9496 48.8236L23.6103 34.3966L23.6635 34.4375L23.6974 34.1527C23.6974 34.1527 47.9871 12.682 48.9766 11.7672C49.9784 10.8548 49.6479 10.6569 49.6479 10.6569C49.7049 9.54399 47.8503 10.6569 47.8503 10.6569L15.667 30.7591L2.26417 26.3274C2.26417 26.3274 0.205639 25.6105 0.0117193 24.0343C-0.192145 22.4702 2.33125 21.6205 2.33125 21.6205L55.6194 1.06706C55.6194 1.06706 60 -0.827861 60 2.31021L50.5104 49.362Z"
            fill="currentColor" />
    </symbol>
    <!-- vk -->
    <symbol id="vk" viewBox="0 0 60 36" fill="none" xmlns="http://www.w3.org/2000/svg">
        <path
            d="M57.5868 36H51.0217C48.5363 36 47.7859 33.9635 43.331 29.4644C39.4385 25.6758 37.7973 25.2021 36.8125 25.2021C35.4526 25.2021 35.0772 25.5809 35.0772 27.4753V33.4426C35.0772 35.0529 34.5615 36 30.388 36C26.338 35.7252 22.4106 34.4827 18.9292 32.3748C15.4478 30.267 12.512 27.354 10.3637 23.8759C5.26349 17.465 1.71486 9.94061 0 1.90126C0 0.906715 0.375055 0.00682698 2.25096 0.00682698H8.81616C10.5044 0.00682698 11.1141 0.764637 11.7705 2.51704C14.9593 11.9888 20.3993 20.2293 22.6033 20.2293C23.4474 20.2293 23.8224 19.8506 23.8224 17.7194V7.9632C23.5411 3.51159 21.1964 3.13254 21.1964 1.52249C21.2273 1.09771 21.4209 0.701796 21.7361 0.418807C22.0513 0.135819 22.4633 -0.0119642 22.8847 0.00682698H33.2017C34.6085 0.00682698 35.0772 0.717217 35.0772 2.42215V15.5882C35.0772 17.009 35.687 17.4824 36.109 17.4824C36.9532 17.4824 37.6096 17.009 39.1571 15.4461C42.4826 11.3506 45.1998 6.78773 47.2232 1.90126C47.4297 1.31329 47.8211 0.809783 48.3377 0.467686C48.8543 0.125589 49.4676 -0.0362752 50.0839 0.00682698H56.6491C58.6186 0.00682698 59.0407 1.00137 58.6186 2.42215C56.2298 7.82481 53.2742 12.9532 49.8025 17.7194C49.0991 18.8086 48.8177 19.3769 49.8025 20.6556C50.4589 21.6501 52.7569 23.5918 54.3044 25.4388C56.5553 27.7063 58.4244 30.3299 59.8378 33.2059C60.4005 35.0529 59.4627 36 57.5868 36Z"
            fill="currentColor" />
    </symbol>
    <!-- arrowRight -->
    <symbol id="arrowRight" viewBox="0 0 9 16" fill="none" xmlns="http://www.w3.org/2000/svg">
        <path
            d="M8.70711 8.70711C9.09763 8.31658 9.09763 7.68342 8.70711 7.29289L2.34315 0.928932C1.95262 0.538408 1.31946 0.538408 0.928932 0.928932C0.538408 1.31946 0.538408 1.95262 0.928932 2.34315L6.58579 8L0.928932 13.6569C0.538408 14.0474 0.538408 14.6805 0.928932 15.0711C1.31946 15.4616 1.95262 15.4616 2.34315 15.0711L8.70711 8.70711ZM7 9H8V7H7V9Z"
            fill="currentColor" />
    </symbol>
    <!-- phone -->
    <symbol id="phone" viewBox="0 0 21 20" fill="none" xmlns="http://www.w3.org/2000/svg">
        <path
            d="M10.9226 10.1161L10.9238 10.1174C11.6101 10.7986 12.373 11.3971 13.197 11.9008C13.5608 12.1233 14.0233 11.9705 14.2045 11.5999C14.3945 11.212 14.7212 10.908 15.1218 10.7465C15.5219 10.5851 15.9675 10.5773 16.373 10.7244C16.8103 10.8898 17.2589 11.0233 17.7154 11.124C17.7525 11.1324 17.793 11.1423 17.8357 11.1527C17.9572 11.1823 18.0967 11.2163 18.2286 11.2345C18.2831 11.242 18.3282 11.2468 18.3685 11.2511C18.4375 11.2585 18.4922 11.2643 18.5554 11.2796C19.1188 11.4155 19.6264 11.7264 20.004 12.1698C20.4165 12.654 20.6483 13.2663 20.66 13.9023L20.66 16.9L20.66 16.9011C20.6618 17.2902 20.581 17.6752 20.423 18.0308C20.265 18.3862 20.0335 18.704 19.7437 18.9633C19.239 19.413 18.5863 19.661 17.9103 19.66H17.91H17.5454C13.415 19.1466 9.57273 17.2735 6.62409 14.3355C3.67183 11.394 1.78371 7.55271 1.25798 3.41845L1.258 3.41845L1.25763 3.41581C1.20362 3.02445 1.23457 2.62604 1.34837 2.24772C1.46217 1.86939 1.65615 1.52002 1.91711 1.2234C2.17807 0.926784 2.49987 0.689873 2.86062 0.528799C3.22136 0.367725 3.61258 0.28627 4.00763 0.289979L4.00763 0.28999H4.00998H7.00998V0.290017L7.01361 0.289964C7.66875 0.280439 8.30576 0.505139 8.80993 0.9236C9.31283 1.341 9.65058 1.92382 9.76276 2.56756C9.79359 2.80271 9.83466 3.03865 9.8862 3.2654C9.98951 3.72066 10.1228 4.16859 10.2853 4.60624C10.4327 5.01195 10.4249 5.45784 10.2635 5.85819C10.1082 6.24341 9.79982 6.56536 9.42078 6.75971L9.53484 6.98217L9.42078 6.75971C9.38965 6.77567 9.35703 6.79455 9.3246 6.81728C9.0125 7.03602 8.90833 7.46215 9.11186 7.7982C9.62128 8.63932 10.229 9.41748 10.9226 10.1161Z"
            stroke="currentColor" stroke-width="0.5" />
    </symbol>
    <!-- email -->
    <symbol id="email" viewBox="0 0 20 16" fill="none" xmlns="http://www.w3.org/2000/svg">
        <path
            d="M3 0.25H17C17.7293 0.25 18.4288 0.539732 18.9445 1.05546C19.4603 1.57118 19.75 2.27065 19.75 3V13C19.75 13.7293 19.4603 14.4288 18.9445 14.9445C18.4288 15.4603 17.7293 15.75 17 15.75H3C2.27065 15.75 1.57118 15.4603 1.05546 14.9445C0.539731 14.4288 0.25 13.7293 0.25 13V3C0.25 2.27065 0.539731 1.57118 1.05546 1.05546C1.57118 0.539731 2.27065 0.25 3 0.25ZM15.0597 3.88388C15.8471 3.09643 15.2894 1.75 14.1758 1.75H5.82421C4.71058 1.75 4.15287 3.09643 4.94033 3.88388L9.1125 8.05605C9.11267 8.05622 9.11283 8.05639 9.113 8.05655C9.2291 8.17348 9.36717 8.26629 9.51928 8.32966C9.6716 8.39313 9.83499 8.4258 10 8.4258C10.165 8.4258 10.3284 8.39313 10.4807 8.32966C10.6328 8.26629 10.7709 8.17348 10.887 8.05655C10.8872 8.05639 10.8873 8.05622 10.8875 8.05605L15.0597 3.88388ZM17.8839 13.8839C18.1183 13.6495 18.25 13.3315 18.25 13V5.82421C18.25 4.71058 16.9036 4.15287 16.1161 4.94033L11.9433 9.11311C11.4277 9.6281 10.7288 9.91736 10 9.91736C9.27125 9.91736 8.57229 9.6281 8.05667 9.11311L3.88388 4.94033C3.09643 4.15287 1.75 4.71058 1.75 5.82421V13C1.75 13.3315 1.8817 13.6495 2.11612 13.8839C2.35054 14.1183 2.66848 14.25 3 14.25H17C17.3315 14.25 17.6495 14.1183 17.8839 13.8839Z"
            stroke="currentColor" stroke-width="0.5" />
    </symbol>
    <!-- location -->
    <symbol id="location" viewBox="0 0 20 20" fill="none" xmlns="http://www.w3.org/2000/svg">
        <path
            d="M18.9716 1.0351L18.9737 1.03718C19.3228 1.38472 19.5676 1.82299 19.6806 2.30245C19.7936 2.7819 19.7703 3.28341 19.6131 3.75026L19.6129 3.75085L14.8829 17.9209L14.8829 17.9208L14.882 17.9237C14.7144 18.4464 14.3874 18.9035 13.9468 19.2311C13.5069 19.5581 12.9758 19.7396 12.4278 19.75L12.36 19.75L12.3586 19.75C11.8198 19.753 11.2932 19.5899 10.8505 19.2828C10.4078 18.9756 10.0706 18.5395 9.88471 18.0338L9.88472 18.0338L9.88367 18.031L7.88367 12.781L7.88372 12.781L7.88182 12.7763C7.82105 12.626 7.72998 12.4899 7.61428 12.3764C7.49858 12.2629 7.36074 12.1744 7.20934 12.1165L7.2092 12.1164L1.9692 10.1164L1.96817 10.1161C1.45466 9.92265 1.01386 9.57462 0.706608 9.11999C0.399354 8.66537 0.2408 8.12658 0.252835 7.578C0.26487 7.02941 0.446899 6.49809 0.773795 6.05738C1.10069 5.61667 1.55633 5.2883 2.07782 5.11761L2.07782 5.11761L2.07931 5.11711L16.2293 0.387121L16.2311 0.386505C16.7025 0.224927 17.2101 0.200089 17.6951 0.314864C18.18 0.429638 18.6226 0.679337 18.9716 1.03509L18.9716 1.0351Z"
            stroke="currentColor" stroke-width="0.5" />
    </symbol>
    <!-- refresh -->
    <symbol id="refresh" viewBox="0 0 21 21" fill="none" xmlns="http://www.w3.org/2000/svg">
        <path
            d="M19.5 9.5C18.9 9.5 18.5 9.9 18.5 10.5C18.5 13.4 17 16 14.5 17.4C10.7 19.6 5.8 18.3 3.6 14.5C1.4 10.7 2.7 5.8 6.5 3.6C9.8 1.7 13.8 2.4 16.3 5H13.9C13.3 5 12.9 5.4 12.9 6C12.9 6.6 13.3 7 13.9 7H18.4C19 7 19.4 6.6 19.4 6V1.5C19.4 0.9 19 0.5 18.4 0.5C17.8 0.5 17.4 0.9 17.4 1.5V3.3C15.5 1.5 13.1 0.5 10.5 0.5C5 0.5 0.5 5 0.5 10.5C0.5 16 5 20.5 10.5 20.5C16 20.5 20.5 16 20.5 10.5C20.5 9.9 20.1 9.5 19.5 9.5Z"
            fill="currentColor" />
    </symbol>

</svg>