<svg width="310" height="397" viewBox="0 0 310 397" fill="none" xmlns="http://www.w3.org/2000/svg">
<g opacity="0.25">
<path fill-rule="evenodd" clip-rule="evenodd" d="M220.534 407.223V343.058C233.552 337.085 245.965 329.268 257.338 319.484C285.044 295.741 302.562 264.398 309.313 231.089L253.587 219.703C249.28 240.946 238.15 260.878 220.438 276.051C178.359 312.079 115.06 307.005 79.2 264.811C67.3435 250.9 59.9876 234.682 56.9388 217.931L0.971191 228.249C5.81058 254.59 17.4009 280.057 35.9358 301.834C53.2124 322.203 74.6026 337.037 97.8316 346.189V445.533C137.224 429.923 178.093 417.104 220.534 407.199V407.223ZM184.07 278.139C204.855 262.14 208.775 232.255 192.829 211.449C176.907 190.619 147.145 186.661 126.36 202.612C105.599 218.611 101.655 248.472 117.625 269.302C133.522 290.132 163.309 294.09 184.07 278.115V278.139Z" fill="#FF4800"/>
<path fill-rule="evenodd" clip-rule="evenodd" d="M155.154 131.746L230.625 111.061V0.816528L155.154 21.501V131.746ZM155.154 131.746V21.501L79.6841 0.816528V111.061L155.154 131.746Z" fill="#FF4800"/>
</g>
</svg>
