<svg width="112" height="250" viewBox="0 0 112 250" fill="none" xmlns="http://www.w3.org/2000/svg">
<g opacity="0.5">
<path opacity="0.2" d="M50.6967 61.3033C53.6256 64.2322 58.3744 64.2322 61.3033 61.3033L109.033 13.5736C111.962 10.6447 111.962 5.89593 109.033 2.96699C106.104 0.0380614 101.355 0.0380612 98.4264 2.96699L56 45.3934L13.5736 2.96699C10.6447 0.0380573 5.89593 0.038057 2.96699 2.96699C0.0380613 5.89592 0.0380611 10.6447 2.96699 13.5736L50.6967 61.3033ZM48.5 54L48.5 56L63.5 56L63.5 54L48.5 54Z" fill="#FF4800"/>
<path opacity="0.4" d="M50.6967 123.303C53.6256 126.232 58.3744 126.232 61.3033 123.303L109.033 75.5736C111.962 72.6447 111.962 67.8959 109.033 64.967C106.104 62.0381 101.355 62.0381 98.4264 64.967L56 107.393L13.5736 64.967C10.6447 62.0381 5.89593 62.0381 2.96699 64.967C0.0380613 67.8959 0.0380611 72.6447 2.96699 75.5736L50.6967 123.303ZM48.5 116L48.5 118L63.5 118L63.5 116L48.5 116Z" fill="#FF4800"/>
<path opacity="0.6" d="M50.6967 185.303C53.6256 188.232 58.3744 188.232 61.3033 185.303L109.033 137.574C111.962 134.645 111.962 129.896 109.033 126.967C106.104 124.038 101.355 124.038 98.4264 126.967L56 169.393L13.5736 126.967C10.6447 124.038 5.89593 124.038 2.96699 126.967C0.0380613 129.896 0.0380611 134.645 2.96699 137.574L50.6967 185.303ZM48.5 178L48.5 180L63.5 180L63.5 178L48.5 178Z" fill="#FF4800"/>
<path opacity="0.8" d="M50.6967 247.303C53.6256 250.232 58.3744 250.232 61.3033 247.303L109.033 199.574C111.962 196.645 111.962 191.896 109.033 188.967C106.104 186.038 101.355 186.038 98.4264 188.967L56 231.393L13.5736 188.967C10.6447 186.038 5.89593 186.038 2.96699 188.967C0.0380613 191.896 0.0380611 196.645 2.96699 199.574L50.6967 247.303ZM48.5 240L48.5 242L63.5 242L63.5 240L48.5 240Z" fill="#FF4800"/>
</g>
</svg>
