<svg width="800" height="803" viewBox="0 0 800 803" fill="none" xmlns="http://www.w3.org/2000/svg">
<g opacity="0.1">
<path d="M3.05176e-05 401.627L400 401.627L400 0.294556L6.54867e-05 0.294521L3.05176e-05 401.627Z" fill="white"/>
<path d="M3.05176e-05 401.627L400 401.627L400 0.294556L6.54867e-05 0.294521L3.05176e-05 401.627Z" fill="white"/>
<path fill-rule="evenodd" clip-rule="evenodd" d="M399.537 0.405121L399.537 401.229L0.0222168 401.229L0.0222169 399.88L0.19864 389.461L0.19864 388.111L0.81589 376.211L1.01438 373.423L1.76392 364.266L2.09467 360.748L3.17496 351.414L3.48365 348.781L5.24738 336.814L5.55607 335.044L7.38602 324.935L8.06946 321.507L10.0096 312.548L10.7371 309.385L13.6914 297.462L14.1104 296.024L16.2489 288.392L17.3291 284.831L19.0268 279.256L20.2835 275.43L22.0473 270.165L23.3702 266.36L25.3322 260.985L26.6331 257.49L29.2125 250.898L30.0503 248.774L33.5999 240.391L34.9889 237.272L37.4141 231.896L39.0677 228.423L41.4487 223.468L43.1904 219.996L45.7478 214.996L47.4455 211.767L50.6203 205.971L51.8549 203.715L56.3525 195.951L57.94 193.318L61.1147 188.142L63.0768 185.045L66.0753 180.4L68.1697 177.281L70.2202 174.272L78.7082 162.305L79.2815 161.553L87.968 150.316L89.335 148.613L98.5286 137.685L100.314 135.65L110.059 124.988L110.941 124.081L120.708 114.237L122.185 112.777L132.547 103.133L134.62 101.297L145.423 92.0283L146.635 91.0329L157.328 82.5829L158.893 81.3883L170.292 73.0932L172.607 71.4784L184.336 63.6477L185.879 62.6744L197.388 55.6401L198.975 54.6889L211.277 47.8315L215.003 45.8407L217.958 44.3144L223.337 41.6156L225.961 40.3106L233.148 36.904L234.008 36.5058L242.187 32.8781L244.568 31.8826L250.455 29.4273L253.409 28.2548L258.899 26.1313L261.941 24.981L267.63 22.9238L270.408 21.9505L277.551 19.5836L278.896 19.1412L287.538 16.4867L289.633 15.8895L296.203 14.0535L299.113 13.2793L304.999 11.7972L308.086 11.0451L314.083 9.67364L316.927 9.05425L324.092 7.59429L325.768 7.26251L334.785 5.66982L336.417 5.40438L343.736 4.29837L346.558 3.92227L352.82 3.12597L355.884 2.77203L362.167 2.13052L365.034 1.86508L372.265 1.31207L374.139 1.17935L383.465 0.692717L384.347 0.692717L392.637 0.427276L395.26 0.427276L399.537 0.383026L399.537 0.405121Z" fill="#FF7401"/>
<path fill-rule="evenodd" clip-rule="evenodd" d="M399.537 64.9749L399.537 401.229L64.3997 401.229L64.3997 398.088C64.6642 370.371 68.3682 342.234 75.8421 314.229C115.505 165.778 248.427 67.2091 394.4 64.997L399.537 64.997L399.537 64.9749Z" fill="white"/>
<path fill-rule="evenodd" clip-rule="evenodd" d="M399.537 129.545L399.537 401.229L128.755 401.229L128.755 398.685C128.954 376.277 131.974 353.559 138.015 330.93C170.027 211.015 277.463 131.359 395.414 129.567L399.537 129.567L399.537 129.545Z" fill="#FF7401"/>
<path fill-rule="evenodd" clip-rule="evenodd" d="M399.537 194.159L399.537 401.229L193.133 401.229L193.133 399.282C193.265 382.205 195.558 364.885 200.166 347.631C224.109 257.954 303.412 197.809 391.314 194.269L399.537 194.137L399.537 194.159Z" fill="white"/>
<path fill-rule="evenodd" clip-rule="evenodd" d="M399.537 258.729L399.537 401.229L257.488 401.229L257.488 399.88C257.576 388.134 259.164 376.211 262.316 364.354C278.808 302.66 333.396 261.25 393.893 258.817L399.537 258.729Z" fill="#FF7401"/>
<path fill-rule="evenodd" clip-rule="evenodd" d="M399.537 323.298L399.537 401.229L321.843 401.229L321.843 400.477C321.887 394.062 322.747 387.536 324.489 381.055C333.484 347.343 363.402 324.67 396.473 323.321L399.537 323.276L399.537 323.298Z" fill="white"/>
<path d="M400 0.294556L400 401.627L800 401.627L800 0.294608L400 0.294556Z" fill="white"/>
<path d="M400 0.294556L400 401.627L800 401.627L800 0.294608L400 0.294556Z" fill="white"/>
<path fill-rule="evenodd" clip-rule="evenodd" d="M799.89 401.163L400.397 401.163L400.397 0.316772L401.742 0.316773L412.126 0.493806L413.471 0.493807L425.332 1.1131L428.11 1.31223L437.238 2.06427L440.743 2.39612L450.047 3.48002L452.671 3.78974L464.598 5.55933L466.362 5.86906L476.437 7.70512L479.855 8.39085L488.784 10.3375L491.936 11.0673L503.82 14.0315L505.253 14.4519L512.859 16.5975L516.409 17.6814L521.964 19.3847L525.779 20.6456L531.026 22.4152L534.818 23.7425L540.175 25.7111L543.659 27.0163L550.229 29.6044L552.345 30.4449L560.701 34.0063L563.81 35.3999L569.167 37.8333L572.629 39.4923L577.567 41.8812L581.029 43.6288L586.011 46.1948L589.23 47.8981L595.006 51.0834L597.255 52.3222L604.994 56.8347L607.617 58.4275L612.776 61.6128L615.863 63.5814L620.493 66.59L623.601 68.6913L626.6 70.7486L638.527 79.265L639.277 79.8401L650.477 88.5556L652.174 89.9271L663.066 99.1513L665.094 100.943L675.721 110.72L676.625 111.605L686.436 121.405L687.891 122.887L697.503 133.283L699.333 135.363L708.571 146.202L709.563 147.418L717.985 158.147L719.176 159.717L727.443 171.154L729.053 173.476L736.857 185.244L737.827 186.793L744.838 198.34L745.786 199.932L752.621 212.276L754.605 216.014L756.126 218.978L758.816 224.376L760.117 227.008L763.512 234.219L763.909 235.082L767.525 243.289L768.517 245.678L770.964 251.584L772.133 254.548L774.249 260.056L775.396 263.109L777.446 268.816L778.416 271.603L780.775 278.77L781.216 280.119L783.862 288.791L784.457 290.892L786.287 297.484L787.058 300.404L788.536 306.31L789.285 309.407L790.652 315.424L791.269 318.277L792.725 325.466L793.055 327.148L794.643 336.195L794.907 337.832L796.009 345.176L796.384 348.007L797.178 354.289L797.531 357.364L798.17 363.669L798.435 366.544L798.986 373.8L799.118 375.68L799.603 385.037L799.603 385.922L799.868 394.239L799.868 396.872L799.912 401.163L799.89 401.163Z" fill="#FF7401"/>
<path fill-rule="evenodd" clip-rule="evenodd" d="M735.534 401.163L400.397 401.163L400.397 64.9087L403.528 64.9087C431.153 65.1742 459.196 68.8904 487.108 76.3893C635.066 116.184 733.308 249.549 735.512 396.009L735.512 401.163L735.534 401.163Z" fill="white"/>
<path fill-rule="evenodd" clip-rule="evenodd" d="M671.179 401.163L400.397 401.163L400.397 129.479L402.932 129.479C425.266 129.678 447.908 132.708 470.463 138.769C589.98 170.888 669.371 278.682 671.157 397.026L671.157 401.163L671.179 401.163Z" fill="#FF7401"/>
<path fill-rule="evenodd" clip-rule="evenodd" d="M606.78 401.163L400.397 401.163L400.397 194.07L402.337 194.07C419.357 194.203 436.62 196.504 453.817 201.127C543.196 225.15 603.142 304.717 606.669 392.912L606.802 401.163L606.78 401.163Z" fill="white"/>
<path fill-rule="evenodd" clip-rule="evenodd" d="M542.424 401.163L400.397 401.163L400.397 258.64L401.742 258.64C413.449 258.729 425.332 260.321 437.149 263.485C498.639 280.031 539.911 334.801 542.336 395.5L542.424 401.163Z" fill="#FF7401"/>
<path fill-rule="evenodd" clip-rule="evenodd" d="M478.069 401.163L400.397 401.163L400.397 323.21L401.146 323.21C407.54 323.254 414.044 324.117 420.504 325.864C454.104 334.89 476.702 364.907 478.047 398.088L478.091 401.163L478.069 401.163Z" fill="white"/>
<path d="M400 802.96L400 401.627L3.05176e-05 401.627L1.3033e-05 802.96L400 802.96Z" fill="white"/>
<path d="M400 802.96L400 401.627L3.05176e-05 401.627L1.3033e-05 802.96L400 802.96Z" fill="white"/>
<path fill-rule="evenodd" clip-rule="evenodd" d="M0.11026 402.091L399.603 402.091L399.603 802.937L398.258 802.937L387.874 802.76L386.529 802.76L374.668 802.141L371.89 801.942L362.763 801.19L359.257 800.858L349.953 799.774L347.33 799.464L335.402 797.695L333.638 797.385L323.563 795.549L320.146 794.863L311.216 792.917L308.064 792.187L296.18 789.223L294.747 788.802L287.141 786.657L283.591 785.573L278.036 783.869L274.221 782.609L268.974 780.839L265.182 779.512L259.825 777.543L256.341 776.238L249.771 773.65L247.655 772.809L239.299 769.248L236.19 767.854L230.833 765.421L227.371 763.762L222.433 761.373L218.972 759.625L213.989 757.059L210.77 755.356L204.994 752.171L202.745 750.932L195.006 746.419L192.383 744.827L187.224 741.641L184.137 739.673L179.507 736.664L176.399 734.563L173.4 732.506L161.473 723.989L160.723 723.414L149.523 714.699L147.826 713.327L136.934 704.103L134.906 702.311L124.279 692.534L123.375 691.649L113.564 681.85L112.109 680.368L102.497 669.971L100.667 667.892L91.4292 657.052L90.4371 655.836L82.0151 645.107L80.8246 643.537L72.5569 632.101L70.9475 629.778L63.1428 618.01L62.1728 616.461L55.1618 604.914L54.2138 603.322L47.3792 590.978L45.395 587.24L43.8737 584.276L41.184 578.879L39.8832 576.246L36.4879 569.035L36.0911 568.172L32.4754 559.965L31.4832 557.577L29.036 551.67L27.8675 548.706L25.751 543.198L24.6045 540.146L22.5542 534.438L21.5841 531.651L19.2251 524.484L18.7841 523.135L16.1385 514.464L15.5432 512.362L13.7133 505.77L12.9416 502.85L11.4645 496.944L10.7149 493.847L9.34799 487.83L8.73065 484.977L7.27554 477.788L6.94485 476.107L5.35745 467.059L5.09292 465.422L3.99057 458.078L3.61572 455.247L2.82205 448.965L2.4693 445.89L1.82992 439.586L1.56537 436.71L1.01419 429.454L0.881926 427.574L0.39688 418.217L0.39688 417.332L0.132324 409.015L0.132324 406.383L0.0882263 402.091L0.11026 402.091Z" fill="#FF7401"/>
<path fill-rule="evenodd" clip-rule="evenodd" d="M64.4657 402.091L399.603 402.091L399.603 738.345L396.472 738.345C368.848 738.08 340.804 734.364 312.892 726.865C164.934 687.07 66.6924 553.705 64.4877 407.245L64.4877 402.091L64.4657 402.091Z" fill="white"/>
<path fill-rule="evenodd" clip-rule="evenodd" d="M128.821 402.091L399.603 402.091L399.603 673.776L397.068 673.776C374.734 673.576 352.092 670.546 329.538 664.485C210.02 632.366 130.629 524.573 128.843 406.228L128.843 402.091L128.821 402.091Z" fill="#FF7401"/>
<path fill-rule="evenodd" clip-rule="evenodd" d="M193.221 402.091L399.603 402.091L399.603 609.184L397.663 609.184C380.643 609.051 363.38 606.75 346.183 602.127C256.804 578.104 196.858 498.537 193.331 410.342L193.198 402.091L193.221 402.091Z" fill="white"/>
<path fill-rule="evenodd" clip-rule="evenodd" d="M257.576 402.091L399.603 402.091L399.603 544.614L398.258 544.614C386.551 544.525 374.668 542.933 362.851 539.769C301.361 523.223 260.089 468.453 257.664 407.754L257.576 402.091Z" fill="#FF7401"/>
<path fill-rule="evenodd" clip-rule="evenodd" d="M321.931 402.091L399.603 402.091L399.603 480.044L398.854 480.044C392.46 480 385.956 479.137 379.496 477.39C345.897 468.364 323.298 438.347 321.953 405.166L321.909 402.091L321.931 402.091Z" fill="white"/>
<path d="M800 401.627H400V802.96H800V401.627Z" fill="white"/>
<path d="M800 401.627H400V802.96H800V401.627Z" fill="white"/>
<path fill-rule="evenodd" clip-rule="evenodd" d="M400.463 802.849V402.025H799.978V403.374L799.801 413.793V415.143L799.184 427.043L798.986 429.831L798.236 438.989L797.905 442.506L796.825 451.841L796.516 454.473L794.753 466.44L794.444 468.21L792.614 478.319L791.931 481.748L789.99 490.706L789.263 493.87L786.309 505.793L785.89 507.23L783.751 514.862L782.671 518.423L780.973 523.998L779.717 527.825L777.953 533.089L776.63 536.894L774.668 542.269L773.367 545.764L770.788 552.356L769.95 554.48L766.4 562.863L765.011 565.982L762.586 571.358L760.932 574.831L758.551 579.786L756.81 583.259L754.252 588.258L752.555 591.487L749.38 597.283L748.145 599.539L743.648 607.304L742.06 609.936L738.885 615.112L736.923 618.209L733.925 622.854L731.83 625.973L729.78 628.982L721.292 640.949L720.719 641.701L712.032 652.938L710.665 654.642L701.472 665.569L699.686 667.604L689.941 678.266L689.059 679.173L679.292 689.017L677.815 690.477L667.453 700.121L665.38 701.957L654.577 711.226L653.365 712.221L642.672 720.671L641.107 721.866L629.708 730.161L627.393 731.776L615.664 739.606L614.121 740.58L602.612 747.614L601.025 748.565L588.723 755.423L584.997 757.413L582.043 758.94L576.663 761.638L574.039 762.944L566.852 766.35L565.992 766.748L557.813 770.376L555.432 771.371L549.545 773.827L546.591 774.999L541.101 777.123L538.059 778.273L532.37 780.33L529.593 781.304L522.449 783.671L521.104 784.113L512.462 786.767L510.368 787.365L503.797 789.201L500.887 789.975L495.001 791.457L491.914 792.209L485.917 793.581L483.073 794.2L475.908 795.66L474.232 795.992L465.215 797.584L463.584 797.85L456.264 798.956L453.442 799.332L447.181 800.128L444.116 800.482L437.833 801.124L434.967 801.389L427.735 801.942L425.861 802.075L416.535 802.561H415.653L407.364 802.827H404.74L400.463 802.871V802.849Z" fill="#FF7401"/>
<path fill-rule="evenodd" clip-rule="evenodd" d="M400.463 738.279V402.025H735.6V405.166C735.336 432.883 731.632 461.021 724.158 489.025C684.495 637.476 551.573 736.045 405.6 738.257H400.463V738.279Z" fill="white"/>
<path fill-rule="evenodd" clip-rule="evenodd" d="M400.463 673.709V402.025H671.245V404.569C671.047 426.977 668.026 449.695 661.985 472.324C629.973 592.24 522.537 671.896 404.586 673.687H400.463V673.709Z" fill="#FF7401"/>
<path fill-rule="evenodd" clip-rule="evenodd" d="M400.463 609.095V402.025H606.867V403.972C606.735 421.049 604.442 438.369 599.834 455.623C575.891 545.3 496.588 605.445 408.686 608.985L400.463 609.117V609.095Z" fill="white"/>
<path fill-rule="evenodd" clip-rule="evenodd" d="M400.463 544.526V402.025H542.512V403.374C542.424 415.12 540.836 427.043 537.684 438.9C521.193 500.594 466.604 542.004 406.107 544.437L400.463 544.526Z" fill="#FF7401"/>
<path fill-rule="evenodd" clip-rule="evenodd" d="M400.463 479.956V402.025H478.157V402.777C478.113 409.192 477.253 415.718 475.511 422.199C466.516 455.911 436.598 478.584 403.527 479.934L400.463 479.978V479.956Z" fill="white"/>
</g>
</svg>
