<svg width="330" height="332" viewBox="0 0 330 332" fill="none" xmlns="http://www.w3.org/2000/svg">
<g opacity="0.1">
<path d="M-6.10352e-05 165.878L165 165.878L165 0.327972L-4.66104e-05 0.327958L-6.10352e-05 165.878Z" fill="white"/>
<path d="M-6.10352e-05 165.878L165 165.878L165 0.327972L-4.66104e-05 0.327958L-6.10352e-05 165.878Z" fill="white"/>
<path fill-rule="evenodd" clip-rule="evenodd" d="M164.809 0.373535L164.809 165.713L0.00906372 165.713L0.00906377 165.157L0.0818333 160.859L0.0818334 160.302L0.336457 155.393L0.418336 154.244L0.72751 150.466L0.863954 149.015L1.30957 145.165L1.43691 144.079L2.16445 139.142L2.29178 138.412L3.04663 134.242L3.32856 132.828L4.12886 129.132L4.42894 127.828L5.64762 122.909L5.82042 122.316L6.70255 119.168L7.14817 117.699L7.84845 115.4L8.36684 113.821L9.09438 111.649L9.64008 110.08L10.4495 107.863L10.986 106.421L12.0501 103.702L12.3957 102.826L13.8599 99.3676L14.4328 98.081L15.4332 95.8637L16.1153 94.4311L17.0975 92.3871L17.816 90.9546L18.8709 88.8924L19.5712 87.5602L20.8808 85.1695L21.3901 84.2388L23.2453 81.036L23.9001 79.9502L25.2097 77.815L26.0191 76.5375L27.256 74.6213L28.1199 73.3347L28.9657 72.0938L32.467 67.1573L32.7035 66.8471L36.2867 62.2117L36.8506 61.5091L40.6429 57.0015L41.3796 56.162L45.3993 51.7639L45.7631 51.3898L49.7919 47.3293L50.4012 46.7271L54.6756 42.7487L55.5305 41.9913L59.9868 38.1681L60.487 37.7575L64.8977 34.2718L65.5434 33.7791L70.2452 30.3573L71.2002 29.6912L76.0384 26.4611L76.675 26.0596L81.4223 23.1579L82.0771 22.7656L87.1518 19.9369L88.6887 19.1157L89.9074 18.4861L92.1264 17.3729L93.2087 16.8345L96.1734 15.4293L96.5281 15.2651L99.9022 13.7686L100.884 13.358L103.313 12.3452L104.531 11.8615L106.796 10.9856L108.051 10.5111L110.397 9.66249L111.543 9.261L114.49 8.28465L115.044 8.10215L118.609 7.0072L119.473 6.76083L122.184 6.00348L123.384 5.68412L125.812 5.07277L127.085 4.76251L129.559 4.19679L130.732 3.9413L133.688 3.33906L134.379 3.20219L138.099 2.54521L138.772 2.43573L141.791 1.97949L142.955 1.82435L145.538 1.49588L146.802 1.34988L149.394 1.08525L150.576 0.975768L153.559 0.747649L154.332 0.692901L158.179 0.492156L158.543 0.492156L161.962 0.38266L163.045 0.38266L164.809 0.36441L164.809 0.373535Z" fill="#FFDC55"/>
<path fill-rule="evenodd" clip-rule="evenodd" d="M164.809 27.0086L164.809 165.713L26.5648 165.713L26.5648 164.418C26.6739 152.984 28.2018 141.378 31.2848 129.826C47.6456 68.5899 102.476 27.9302 162.69 27.0177L164.809 27.0177L164.809 27.0086Z" fill="white"/>
<path fill-rule="evenodd" clip-rule="evenodd" d="M164.809 53.6436L164.809 165.713L53.1114 165.713L53.1114 164.664C53.1932 155.421 54.4392 146.05 56.9311 136.715C70.1362 87.2499 114.453 54.3919 163.108 53.6528L164.809 53.6528L164.809 53.6436Z" fill="#FFDC55"/>
<path fill-rule="evenodd" clip-rule="evenodd" d="M164.809 80.2969L164.809 165.713L79.6671 165.713L79.6671 164.91C79.7217 157.866 80.6675 150.721 82.5682 143.604C92.4448 106.613 125.157 81.8025 161.417 80.3425L164.809 80.2878L164.809 80.2969Z" fill="white"/>
<path fill-rule="evenodd" clip-rule="evenodd" d="M164.809 106.932L164.809 165.713L106.214 165.713L106.214 165.157C106.25 160.312 106.905 155.393 108.205 150.502C115.008 125.054 137.526 107.972 162.481 106.968L164.809 106.932Z" fill="#FFDC55"/>
<path fill-rule="evenodd" clip-rule="evenodd" d="M164.809 133.567L164.809 165.713L132.76 165.713L132.76 165.403C132.778 162.757 133.133 160.065 133.852 157.392C137.562 143.486 149.903 134.133 163.545 133.576L164.809 133.558L164.809 133.567Z" fill="white"/>
<path d="M165 0.327972L165 165.878L330 165.878L330 0.327994L165 0.327972Z" fill="white"/>
<path d="M165 0.327972L165 165.878L330 165.878L330 0.327994L165 0.327972Z" fill="white"/>
<path fill-rule="evenodd" clip-rule="evenodd" d="M329.954 165.686L165.164 165.686L165.164 0.337143L165.718 0.337143L170.002 0.410157L170.557 0.410157L175.449 0.66562L176.595 0.747758L180.36 1.05797L181.806 1.19487L185.644 1.64197L186.727 1.76973L191.647 2.4997L192.374 2.62746L196.53 3.38482L197.94 3.66768L201.623 4.47066L202.924 4.77175L207.826 5.99448L208.417 6.16785L211.554 7.05292L213.018 7.50002L215.31 8.20264L216.884 8.72277L219.048 9.45274L220.612 10.0003L222.822 10.8123L224.259 11.3507L226.969 12.4183L227.842 12.765L231.289 14.2341L232.571 14.8089L234.781 15.8127L236.209 16.497L238.246 17.4825L239.674 18.2034L241.73 19.2618L243.057 19.9644L245.44 21.2784L246.368 21.7894L249.56 23.6508L250.642 24.3078L252.77 25.6218L254.043 26.4338L255.953 27.6748L257.236 28.5416L258.472 29.3903L263.392 32.9033L263.702 33.1405L268.322 36.7357L269.022 37.3014L273.515 41.1064L274.351 41.8455L278.735 45.8786L279.108 46.2436L283.155 50.2858L283.755 50.8972L287.72 55.1858L288.475 56.0435L292.285 60.5147L292.695 61.0165L296.169 65.442L296.66 66.0899L300.07 70.8073L300.734 71.7655L303.954 76.6198L304.354 77.2585L307.246 82.0216L307.637 82.6786L310.456 87.7702L311.275 89.3123L311.902 90.535L313.012 92.7614L313.548 93.8472L314.949 96.8219L315.112 97.1778L316.604 100.563L317.013 101.549L318.023 103.985L318.505 105.208L319.378 107.48L319.851 108.739L320.696 111.093L321.097 112.243L322.07 115.199L322.251 115.756L323.343 119.333L323.588 120.199L324.343 122.919L324.662 124.123L325.271 126.559L325.58 127.837L326.144 130.319L326.399 131.496L326.999 134.461L327.135 135.155L327.79 138.887L327.899 139.562L328.354 142.592L328.508 143.759L328.836 146.351L328.981 147.619L329.245 150.22L329.354 151.406L329.582 154.399L329.636 155.174L329.836 159.034L329.836 159.399L329.945 162.83L329.945 163.916L329.964 165.686L329.954 165.686Z" fill="#FFDC55"/>
<path fill-rule="evenodd" clip-rule="evenodd" d="M303.408 165.686L165.164 165.686L165.164 26.9813L166.455 26.9813C177.85 27.0908 189.418 28.6238 200.932 31.7171C261.965 48.1325 302.489 103.145 303.399 163.56L303.399 165.686L303.408 165.686Z" fill="white"/>
<path fill-rule="evenodd" clip-rule="evenodd" d="M276.861 165.686L165.164 165.686L165.164 53.6164L166.21 53.6164C175.422 53.6985 184.762 54.9486 194.066 57.4488C243.367 70.6979 276.116 115.163 276.852 163.98L276.852 165.686L276.861 165.686Z" fill="#FFDC55"/>
<path fill-rule="evenodd" clip-rule="evenodd" d="M250.296 165.686L165.164 165.686L165.164 80.2606L165.964 80.2606C172.985 80.3153 180.106 81.2643 187.199 83.1714C224.068 93.0808 248.796 125.902 250.251 162.283L250.306 165.686L250.296 165.686Z" fill="white"/>
<path fill-rule="evenodd" clip-rule="evenodd" d="M223.75 165.686L165.164 165.686L165.164 106.896L165.718 106.896C170.548 106.932 175.449 107.589 180.324 108.894C205.688 115.719 222.713 138.312 223.713 163.35L223.75 165.686Z" fill="#FFDC55"/>
<path fill-rule="evenodd" clip-rule="evenodd" d="M197.203 165.686L165.164 165.686L165.164 133.531L165.473 133.531C168.11 133.549 170.793 133.905 173.458 134.626C187.318 138.348 196.639 150.731 197.194 164.418L197.212 165.686L197.203 165.686Z" fill="white"/>
<path d="M165 331.427L165 165.878L-6.10352e-05 165.878L-6.82475e-05 331.427L165 331.427Z" fill="white"/>
<path d="M165 331.427L165 165.878L-6.10352e-05 165.878L-6.82475e-05 331.427L165 331.427Z" fill="white"/>
<path fill-rule="evenodd" clip-rule="evenodd" d="M0.0454254 166.069L164.836 166.069L164.836 331.418L164.281 331.418L159.998 331.345L159.443 331.345L154.55 331.09L153.405 331.008L149.639 330.697L148.193 330.561L144.356 330.113L143.273 329.986L138.353 329.256L137.626 329.128L133.47 328.371L132.06 328.088L128.377 327.285L127.076 326.984L122.174 325.761L121.583 325.588L118.446 324.702L116.981 324.255L114.69 323.553L113.116 323.033L110.952 322.303L109.388 321.755L107.178 320.943L105.741 320.405L103.031 319.337L102.158 318.99L98.7107 317.521L97.4284 316.946L95.2185 315.943L93.7907 315.258L91.7535 314.273L90.3257 313.552L88.2703 312.494L86.9426 311.791L84.5598 310.477L83.6322 309.966L80.44 308.105L79.3578 307.448L77.2297 306.134L75.9565 305.322L74.0467 304.081L72.7644 303.214L71.5275 302.365L66.6074 298.852L66.2982 298.615L61.6783 295.02L60.978 294.454L56.4854 290.649L55.6487 289.91L51.2652 285.877L50.8923 285.512L46.8453 281.47L46.2451 280.858L42.2799 276.57L41.5251 275.712L37.7145 271.241L37.3052 270.739L33.8312 266.313L33.3401 265.666L29.9297 260.948L29.2658 259.99L26.0464 255.136L25.6462 254.497L22.7542 249.734L22.3631 249.077L19.5439 243.985L18.7254 242.443L18.0978 241.22L16.9883 238.994L16.4517 237.908L15.0512 234.933L14.8875 234.578L13.396 231.192L12.9868 230.207L11.9773 227.771L11.4953 226.548L10.6222 224.276L10.1493 223.017L9.30354 220.662L8.90338 219.513L7.93028 216.556L7.7484 216L6.65706 212.423L6.41151 211.556L5.65668 208.837L5.33838 207.632L4.72905 205.196L4.41983 203.919L3.85599 201.437L3.60133 200.26L3.0011 197.294L2.8647 196.601L2.2099 192.868L2.10077 192.193L1.64604 189.164L1.49142 187.996L1.16405 185.404L1.01852 184.136L0.754775 181.536L0.64566 180.349L0.418289 177.356L0.363723 176.581L0.16365 172.721L0.16365 172.356L0.0545195 168.925L0.0545196 167.839L0.0363312 166.069L0.0454254 166.069Z" fill="#FFDC55"/>
<path fill-rule="evenodd" clip-rule="evenodd" d="M26.592 166.069L164.836 166.069L164.836 304.774L163.545 304.774C152.15 304.665 140.581 303.132 129.068 300.038C68.0353 283.623 27.5106 228.61 26.6011 168.195L26.6011 166.069L26.592 166.069Z" fill="white"/>
<path fill-rule="evenodd" clip-rule="evenodd" d="M53.1386 166.069L164.836 166.069L164.836 278.139L163.79 278.139C154.578 278.057 145.238 276.807 135.934 274.307C86.6334 261.057 53.8844 216.593 53.1477 167.776L53.1477 166.069L53.1386 166.069Z" fill="#FFDC55"/>
<path fill-rule="evenodd" clip-rule="evenodd" d="M79.7034 166.069L164.836 166.069L164.836 251.495L164.036 251.495C157.015 251.44 149.894 250.491 142.8 248.584C105.932 238.675 81.204 205.853 79.7489 169.473L79.6943 166.069L79.7034 166.069Z" fill="white"/>
<path fill-rule="evenodd" clip-rule="evenodd" d="M106.25 166.069L164.836 166.069L164.836 224.86L164.281 224.86C159.452 224.823 154.55 224.166 149.676 222.861C124.312 216.036 107.287 193.443 106.286 168.405L106.25 166.069Z" fill="#FFDC55"/>
<path fill-rule="evenodd" clip-rule="evenodd" d="M132.797 166.069L164.836 166.069L164.836 198.225L164.527 198.225C161.89 198.206 159.207 197.851 156.542 197.13C142.682 193.407 133.36 181.025 132.806 167.338L132.788 166.069L132.797 166.069Z" fill="white"/>
<path d="M330 165.878H165V331.427H330V165.878Z" fill="white"/>
<path d="M330 165.878H165V331.427H330V165.878Z" fill="white"/>
<path fill-rule="evenodd" clip-rule="evenodd" d="M165.191 331.382V166.042H329.991V166.599L329.918 170.896V171.453L329.663 176.362L329.582 177.512L329.272 181.289L329.136 182.74L328.69 186.591L328.563 187.677L327.835 192.613L327.708 193.343L326.953 197.513L326.671 198.927L325.871 202.623L325.571 203.928L324.352 208.846L324.179 209.439L323.297 212.587L322.852 214.056L322.151 216.356L321.633 217.934L320.906 220.106L320.36 221.675L319.55 223.893L319.014 225.334L317.95 228.054L317.604 228.93L316.14 232.388L315.567 233.674L314.567 235.892L313.885 237.324L312.902 239.368L312.184 240.801L311.129 242.863L310.429 244.195L309.119 246.586L308.61 247.517L306.755 250.719L306.1 251.805L304.79 253.94L303.981 255.218L302.744 257.134L301.88 258.421L301.034 259.662L297.533 264.598L297.296 264.908L293.713 269.544L293.149 270.246L289.357 274.754L288.62 275.593L284.601 279.991L284.237 280.366L280.208 284.426L279.599 285.028L275.324 289.007L274.469 289.764L270.013 293.587L269.513 293.998L265.102 297.484L264.456 297.976L259.755 301.398L258.8 302.064L253.962 305.294L253.325 305.696L248.578 308.597L247.923 308.99L242.848 311.818L241.311 312.64L240.093 313.269L237.873 314.382L236.791 314.921L233.826 316.326L233.472 316.49L230.098 317.987L229.116 318.397L226.687 319.41L225.469 319.894L223.204 320.77L221.949 321.244L219.603 322.093L218.457 322.494L215.51 323.471L214.956 323.653L211.391 324.748L210.527 324.995L207.816 325.752L206.616 326.071L204.188 326.683L202.915 326.993L200.441 327.559L199.268 327.814L196.312 328.416L195.621 328.553L191.901 329.21L191.228 329.32L188.209 329.776L187.045 329.931L184.462 330.259L183.198 330.405L180.606 330.67L179.424 330.78L176.441 331.008L175.668 331.062L171.821 331.263H171.457L168.037 331.373H166.955L165.191 331.391V331.382Z" fill="#FFDC55"/>
<path fill-rule="evenodd" clip-rule="evenodd" d="M165.191 304.747V166.042H303.435V167.338C303.326 178.771 301.798 190.378 298.715 201.93C282.354 263.165 227.524 303.825 167.31 304.738H165.191V304.747Z" fill="white"/>
<path fill-rule="evenodd" clip-rule="evenodd" d="M165.191 278.112V166.042H276.888V167.091C276.807 176.335 275.561 185.706 273.069 195.04C259.864 244.505 215.547 277.364 166.892 278.103H165.191V278.112Z" fill="#FFDC55"/>
<path fill-rule="evenodd" clip-rule="evenodd" d="M165.191 251.458V166.042H250.333V166.845C250.278 173.889 249.332 181.034 247.432 188.151C237.555 225.143 204.843 249.953 168.583 251.413L165.191 251.468V251.458Z" fill="white"/>
<path fill-rule="evenodd" clip-rule="evenodd" d="M165.191 224.823V166.042H223.786V166.599C223.75 171.444 223.095 176.362 221.795 181.253C214.992 206.702 192.474 223.783 167.519 224.787L165.191 224.823Z" fill="#FFDC55"/>
<path fill-rule="evenodd" clip-rule="evenodd" d="M165.191 198.188V166.042H197.24V166.352C197.221 168.998 196.867 171.69 196.148 174.364C192.438 188.27 180.097 197.623 166.455 198.179L165.191 198.197V198.188Z" fill="white"/>
</g>
</svg>
