<svg width="800" height="804" viewBox="0 0 800 804" fill="none" xmlns="http://www.w3.org/2000/svg">
<g opacity="0.1">
<path d="M0 401.846L400 401.846L400 0.513062L3.49691e-05 0.513026L0 401.846Z" fill="white"/>
<path d="M0 401.846L400 401.846L400 0.513062L3.49691e-05 0.513026L0 401.846Z" fill="white"/>
<path fill-rule="evenodd" clip-rule="evenodd" d="M399.537 0.623871L399.537 401.448L0.0221863 401.448L0.0221864 400.098L0.198609 389.68L0.19861 388.33L0.815859 376.429L1.01435 373.642L1.76389 364.484L2.09464 360.967L3.17493 351.632L3.48362 349L5.24735 337.033L5.55604 335.263L7.38599 325.154L8.06943 321.725L10.0096 312.767L10.7371 309.603L13.6914 297.68L14.1103 296.243L16.2488 288.611L17.3291 285.05L19.0268 279.475L20.2835 275.648L22.0472 270.384L23.3701 266.579L25.3322 261.204L26.633 257.709L29.2125 251.117L30.0503 248.993L33.5999 240.609L34.9888 237.49L37.4141 232.115L39.0676 228.642L41.4486 223.687L43.1904 220.214L45.7478 215.215L47.4455 211.985L50.6203 206.19L51.8549 203.934L56.3525 196.169L57.9399 193.537L61.1147 188.361L63.0768 185.264L66.0753 180.619L68.1697 177.5L70.2201 174.491L78.7082 162.524L79.2815 161.772L87.968 150.535L89.3349 148.831L98.5285 137.904L100.314 135.869L110.059 125.207L110.941 124.3L120.708 114.456L122.185 112.996L132.547 103.352L134.62 101.516L145.423 92.247L146.635 91.2516L157.328 82.8016L158.893 81.6071L170.292 73.3119L172.607 71.6971L184.336 63.8664L185.879 62.8931L197.388 55.8588L198.975 54.9076L211.277 48.0503L215.003 46.0594L217.957 44.5331L223.337 41.8344L225.961 40.5293L233.148 37.1227L234.008 36.7246L242.187 33.0968L244.568 32.1014L250.455 29.646L253.409 28.4736L258.899 26.3501L261.941 25.1998L267.63 23.1426L270.408 22.1693L277.551 19.8024L278.896 19.3599L287.538 16.7055L289.633 16.1082L296.203 14.2722L299.113 13.498L304.999 12.016L308.086 11.2638L314.083 9.89239L316.927 9.273L324.092 7.81304L325.768 7.48126L334.785 5.88857L336.416 5.62313L343.736 4.51712L346.558 4.14102L352.82 3.34472L355.884 2.99078L362.167 2.34927L365.034 2.08383L372.265 1.53082L374.139 1.3981L383.465 0.911467L384.347 0.911467L392.637 0.646026L395.26 0.646026L399.537 0.601776L399.537 0.623871Z" fill="#FFAF01"/>
<path fill-rule="evenodd" clip-rule="evenodd" d="M399.537 65.1937L399.537 401.448L64.3996 401.448L64.3996 398.307C64.6642 370.59 68.3681 342.452 75.8421 314.448C115.505 165.997 248.427 67.4278 394.4 65.2158L399.537 65.2158L399.537 65.1937Z" fill="white"/>
<path fill-rule="evenodd" clip-rule="evenodd" d="M399.537 129.764L399.537 401.448L128.755 401.448L128.755 398.904C128.954 376.496 131.974 353.778 138.015 331.149C170.027 211.233 277.463 131.577 395.414 129.786L399.537 129.786L399.537 129.764Z" fill="#FFAF01"/>
<path fill-rule="evenodd" clip-rule="evenodd" d="M399.537 194.378L399.537 401.448L193.133 401.448L193.133 399.501C193.265 382.424 195.558 365.104 200.166 347.85C224.109 258.173 303.412 198.027 391.314 194.488L399.537 194.355L399.537 194.378Z" fill="white"/>
<path fill-rule="evenodd" clip-rule="evenodd" d="M399.537 258.947L399.537 401.448L257.488 401.448L257.488 400.098C257.576 388.352 259.164 376.429 262.316 364.573C278.807 302.879 333.396 261.469 393.893 259.036L399.537 258.947Z" fill="#FFAF01"/>
<path fill-rule="evenodd" clip-rule="evenodd" d="M399.537 323.517L399.537 401.448L321.843 401.448L321.843 400.696C321.887 394.281 322.747 387.755 324.489 381.274C333.484 347.562 363.402 324.889 396.473 323.539L399.537 323.495L399.537 323.517Z" fill="white"/>
<path d="M400 0.513062L400 401.846L800 401.846L800 0.513114L400 0.513062Z" fill="white"/>
<path d="M400 0.513062L400 401.846L800 401.846L800 0.513114L400 0.513062Z" fill="white"/>
<path fill-rule="evenodd" clip-rule="evenodd" d="M799.89 401.381L400.397 401.381L400.397 0.535278L401.742 0.535278L412.126 0.712312L413.471 0.712313L425.332 1.33161L428.11 1.53073L437.238 2.28278L440.743 2.61463L450.047 3.69852L452.671 4.00825L464.598 5.77784L466.362 6.08756L476.437 7.92362L479.855 8.60935L488.784 10.556L491.936 11.2858L503.82 14.25L505.253 14.6704L512.859 16.816L516.409 17.8999L521.964 19.6032L525.779 20.8641L531.026 22.6337L534.818 23.961L540.175 25.9296L543.659 27.2348L550.229 29.8229L552.345 30.6634L560.701 34.2248L563.81 35.6184L569.167 38.0518L572.629 39.7108L577.567 42.0997L581.029 43.8473L586.011 46.4133L589.23 48.1166L595.006 51.3019L597.255 52.5407L604.994 57.0532L607.617 58.646L612.776 61.8313L615.863 63.8L620.493 66.8085L623.601 68.9098L626.6 70.9671L638.527 79.4835L639.277 80.0586L650.477 88.7741L652.174 90.1456L663.066 99.3698L665.094 101.162L675.721 110.939L676.625 111.824L686.436 121.623L687.891 123.105L697.503 133.502L699.333 135.581L708.571 146.42L709.563 147.637L717.985 158.365L719.175 159.936L727.443 171.372L729.053 173.695L736.857 185.463L737.827 187.011L744.838 198.558L745.786 200.151L752.621 212.494L754.605 216.233L756.126 219.197L758.816 224.594L760.117 227.226L763.512 234.438L763.909 235.3L767.525 243.507L768.517 245.896L770.964 251.802L772.133 254.766L774.249 260.274L775.395 263.327L777.446 269.034L778.416 271.821L780.775 278.989L781.216 280.338L783.862 289.009L784.457 291.111L786.287 297.703L787.058 300.622L788.536 306.529L789.285 309.625L790.652 315.642L791.269 318.496L792.724 325.685L793.055 327.366L794.643 336.413L794.907 338.05L796.009 345.394L796.384 348.226L797.178 354.508L797.531 357.583L798.17 363.887L798.435 366.763L798.986 374.018L799.118 375.899L799.603 385.255L799.603 386.14L799.868 394.458L799.868 397.09L799.912 401.381L799.89 401.381Z" fill="#FFAF01"/>
<path fill-rule="evenodd" clip-rule="evenodd" d="M735.534 401.381L400.397 401.381L400.397 65.1272L403.528 65.1272C431.153 65.3927 459.196 69.1089 487.108 76.6078C635.066 116.403 733.308 249.767 735.512 396.227L735.512 401.381L735.534 401.381Z" fill="white"/>
<path fill-rule="evenodd" clip-rule="evenodd" d="M671.179 401.381L400.397 401.381L400.397 129.697L402.932 129.697C425.266 129.896 447.908 132.927 470.462 138.988C589.98 171.107 669.371 278.9 671.157 397.245L671.157 401.381L671.179 401.381Z" fill="#FFAF01"/>
<path fill-rule="evenodd" clip-rule="evenodd" d="M606.779 401.381L400.397 401.381L400.397 194.289L402.337 194.289C419.357 194.422 436.62 196.722 453.817 201.345C543.196 225.368 603.142 304.936 606.669 393.13L606.802 401.381L606.779 401.381Z" fill="white"/>
<path fill-rule="evenodd" clip-rule="evenodd" d="M542.424 401.381L400.397 401.381L400.397 258.859L401.742 258.859C413.449 258.947 425.332 260.54 437.149 263.703C498.639 280.249 539.911 335.02 542.336 395.719L542.424 401.381Z" fill="#FFAF01"/>
<path fill-rule="evenodd" clip-rule="evenodd" d="M478.069 401.381L400.397 401.381L400.397 323.429L401.146 323.429C407.54 323.473 414.044 324.335 420.504 326.083C454.104 335.108 476.702 365.126 478.047 398.307L478.091 401.381L478.069 401.381Z" fill="white"/>
<path d="M400 803.178L400 401.846L0 401.846L-1.74846e-05 803.178L400 803.178Z" fill="white"/>
<path d="M400 803.178L400 401.846L0 401.846L-1.74846e-05 803.178L400 803.178Z" fill="white"/>
<path fill-rule="evenodd" clip-rule="evenodd" d="M0.110229 402.31L399.603 402.31L399.603 803.156L398.258 803.156L387.874 802.979L386.529 802.979L374.668 802.36L371.89 802.161L362.762 801.409L359.257 801.077L349.953 799.993L347.33 799.683L335.402 797.914L333.638 797.604L323.563 795.768L320.145 795.082L311.216 793.135L308.064 792.406L296.18 789.441L294.747 789.021L287.141 786.875L283.591 785.792L278.036 784.088L274.221 782.827L268.974 781.058L265.182 779.73L259.825 777.762L256.341 776.457L249.771 773.869L247.655 773.028L239.299 769.467L236.19 768.073L230.833 765.64L227.371 763.981L222.433 761.592L218.971 759.844L213.989 757.278L210.77 755.575L204.994 752.389L202.745 751.151L195.006 746.638L192.383 745.045L187.224 741.86L184.137 739.891L179.507 736.883L176.399 734.782L173.4 732.724L161.473 724.208L160.723 723.633L149.523 714.917L147.826 713.546L136.934 704.322L134.906 702.53L124.279 692.753L123.375 691.868L113.564 682.068L112.109 680.586L102.497 670.19L100.667 668.11L91.4292 657.271L90.4371 656.055L82.0151 645.326L80.8245 643.756L72.5569 632.319L70.9475 629.997L63.1428 618.229L62.1728 616.68L55.1618 605.133L54.2137 603.541L47.3791 591.197L45.3949 587.459L43.8736 584.495L41.1839 579.097L39.8831 576.465L36.4879 569.254L36.0911 568.391L32.4753 560.184L31.4832 557.795L29.036 551.889L27.8675 548.925L25.751 543.417L24.6045 540.364L22.5542 534.657L21.5841 531.87L19.225 524.703L18.7841 523.354L16.1385 514.682L15.5432 512.581L13.7133 505.989L12.9416 503.069L11.4645 497.163L10.7148 494.066L9.34796 488.049L8.73062 485.196L7.27551 478.007L6.94482 476.325L5.35742 467.278L5.09289 465.641L3.99054 458.297L3.61569 455.466L2.82202 449.183L2.46927 446.109L1.82989 439.804L1.56534 436.929L1.01416 429.673L0.881896 427.793L0.39685 418.436L0.39685 417.551L0.132293 409.234L0.132294 406.601L0.0881958 402.31L0.110229 402.31Z" fill="#FFAF01"/>
<path fill-rule="evenodd" clip-rule="evenodd" d="M64.4656 402.31L399.603 402.31L399.603 738.564L396.472 738.564C368.847 738.299 340.804 734.582 312.892 727.084C164.934 687.289 66.6924 553.924 64.4877 407.464L64.4877 402.31L64.4656 402.31Z" fill="white"/>
<path fill-rule="evenodd" clip-rule="evenodd" d="M128.821 402.31L399.603 402.31L399.603 673.994L397.068 673.994C374.734 673.795 352.092 670.765 329.538 664.704C210.02 632.585 130.629 524.791 128.843 406.447L128.843 402.31L128.821 402.31Z" fill="#FFAF01"/>
<path fill-rule="evenodd" clip-rule="evenodd" d="M193.221 402.31L399.603 402.31L399.603 609.402L397.663 609.402C380.643 609.27 363.38 606.969 346.183 602.346C256.804 578.323 196.858 498.756 193.331 410.561L193.198 402.31L193.221 402.31Z" fill="white"/>
<path fill-rule="evenodd" clip-rule="evenodd" d="M257.576 402.31L399.603 402.31L399.603 544.833L398.258 544.833C386.551 544.744 374.668 543.151 362.851 539.988C301.361 523.442 260.089 468.672 257.664 407.973L257.576 402.31Z" fill="#FFAF01"/>
<path fill-rule="evenodd" clip-rule="evenodd" d="M321.931 402.31L399.603 402.31L399.603 480.263L398.854 480.263C392.46 480.219 385.956 479.356 379.496 477.608C345.896 468.583 323.298 438.566 321.953 405.385L321.909 402.31L321.931 402.31Z" fill="white"/>
<path d="M800 401.846H400V803.178H800V401.846Z" fill="white"/>
<path d="M800 401.846H400V803.178H800V401.846Z" fill="white"/>
<path fill-rule="evenodd" clip-rule="evenodd" d="M400.463 803.068V402.244H799.978V403.593L799.801 414.012V415.361L799.184 427.262L798.986 430.049L798.236 439.207L797.905 442.724L796.825 452.059L796.516 454.691L794.753 466.659L794.444 468.428L792.614 478.537L791.931 481.966L789.99 490.925L789.263 494.088L786.309 506.011L785.89 507.449L783.751 515.08L782.671 518.642L780.973 524.216L779.717 528.043L777.953 533.308L776.63 537.112L774.668 542.488L773.367 545.983L770.788 552.575L769.95 554.698L766.4 563.082L765.011 566.201L762.586 571.576L760.932 575.049L758.551 580.004L756.81 583.477L754.252 588.476L752.555 591.706L749.38 597.502L748.145 599.758L743.648 607.522L742.06 610.154L738.885 615.331L736.923 618.428L733.925 623.073L731.83 626.192L729.78 629.2L721.292 641.167L720.719 641.92L712.032 653.157L710.665 654.86L701.471 665.788L699.686 667.823L689.941 678.485L689.059 679.392L679.292 689.235L677.815 690.695L667.453 700.34L665.38 702.176L654.577 711.444L653.365 712.44L642.672 720.89L641.107 722.084L629.708 730.379L627.393 731.994L615.664 739.825L614.121 740.798L602.612 747.833L601.025 748.784L588.723 755.641L584.997 757.632L582.043 759.158L576.663 761.857L574.039 763.162L566.852 766.569L565.992 766.967L557.813 770.595L555.432 771.59L549.545 774.045L546.591 775.218L541.101 777.341L538.059 778.492L532.37 780.549L529.592 781.522L522.449 783.889L521.104 784.331L512.462 786.986L510.368 787.583L503.797 789.419L500.887 790.193L495.001 791.675L491.914 792.428L485.917 793.799L483.073 794.418L475.908 795.878L474.232 796.21L465.215 797.803L463.584 798.068L456.264 799.174L453.442 799.55L447.181 800.347L444.116 800.701L437.833 801.342L434.966 801.608L427.735 802.161L425.861 802.293L416.535 802.78H415.653L407.364 803.045H404.74L400.463 803.09V803.068Z" fill="#FFAF01"/>
<path fill-rule="evenodd" clip-rule="evenodd" d="M400.463 738.498V402.244H735.6V405.385C735.336 433.102 731.632 461.239 724.158 489.244C684.495 637.695 551.573 736.264 405.6 738.476H400.463V738.498Z" fill="white"/>
<path fill-rule="evenodd" clip-rule="evenodd" d="M400.463 673.928V402.244H671.245V404.788C671.046 427.196 668.026 449.913 661.985 472.543C629.973 592.458 522.537 672.114 404.586 673.906H400.463V673.928Z" fill="#FFAF01"/>
<path fill-rule="evenodd" clip-rule="evenodd" d="M400.463 609.314V402.244H606.867V404.19C606.735 421.267 604.442 438.588 599.834 455.842C575.891 545.518 496.588 605.664 408.686 609.203L400.463 609.336V609.314Z" fill="white"/>
<path fill-rule="evenodd" clip-rule="evenodd" d="M400.463 544.744V402.244H542.512V403.593C542.424 415.339 540.836 427.262 537.684 439.119C521.193 500.813 466.604 542.222 406.107 544.656L400.463 544.744Z" fill="#FFAF01"/>
<path fill-rule="evenodd" clip-rule="evenodd" d="M400.463 480.174V402.244H478.157V402.996C478.113 409.411 477.253 415.936 475.511 422.418C466.516 456.129 436.598 478.803 403.527 480.152L400.463 480.196V480.174Z" fill="white"/>
</g>
</svg>
