<svg width="340" height="260" viewBox="0 0 340 260" fill="none" xmlns="http://www.w3.org/2000/svg">
<path d="M340 0.00244141H0.000488281V260.002H340V0.00244141Z" fill="#FFAF01"/>
<path d="M340 0.00244141H0.000488281V260.002H340V0.00244141Z" fill="#FFDC55"/>
<mask id="mask0_48_436" style="mask-type:luminance" maskUnits="userSpaceOnUse" x="0" y="0" width="341" height="261">
<path d="M340 0.00244141H0.000488281V260.002H340V0.00244141Z" fill="white"/>
</mask>
<g mask="url(#mask0_48_436)">
<path fill-rule="evenodd" clip-rule="evenodd" d="M208.163 274.333V236.457C215.764 232.932 223.012 228.317 229.652 222.542C245.829 208.527 256.058 190.026 260 170.364L227.463 163.643C224.948 176.183 218.449 187.948 208.107 196.905C183.538 218.171 146.578 215.176 125.64 190.27C118.717 182.058 114.422 172.485 112.642 162.597L79.9633 168.688C82.7889 184.236 89.5564 199.269 100.379 212.124C110.466 224.147 122.956 232.903 136.519 238.306V296.947C159.52 287.732 183.382 280.165 208.163 274.319V274.333ZM186.872 198.137C199.008 188.693 201.297 171.052 191.986 158.771C182.69 146.475 165.312 144.139 153.176 153.555C141.054 162.999 138.751 180.625 148.076 192.921C157.358 205.216 174.75 207.552 186.872 198.123V198.137Z" fill="#FFAF01"/>
<path fill-rule="evenodd" clip-rule="evenodd" d="M169.989 111.724L214.055 99.514V34.4387L169.989 46.6484V111.724ZM169.989 111.724V46.6484L125.923 34.4387V99.514L169.989 111.724Z" fill="#FFAF01"/>
</g>
</svg>
