<svg width="820" height="820" viewBox="0 0 820 820" fill="none" xmlns="http://www.w3.org/2000/svg">
<g opacity="0.1">
<path d="M410 790C619.868 790 790 619.868 790 410C790 200.132 619.868 30 410 30C200.132 30 30 200.132 30 410C30 619.868 200.132 790 410 790Z" stroke="white" stroke-width="60"/>
<path d="M410 665C550.833 665 665 550.833 665 410C665 269.167 550.833 155 410 155C269.167 155 155 269.167 155 410C155 550.833 269.167 665 410 665Z" stroke="white" stroke-width="60"/>
<path d="M410 540C481.797 540 540 481.797 540 410C540 338.203 481.797 280 410 280C338.203 280 280 338.203 280 410C280 481.797 338.203 540 410 540Z" stroke="white" stroke-width="60"/>
</g>
</svg>
