<svg width="100" height="100" viewBox="0 0 100 100" fill="none" xmlns="http://www.w3.org/2000/svg">
<path d="M100 0H0V100H100V0Z" fill="#FFAF01"/>
<path fill-rule="evenodd" clip-rule="evenodd" d="M0.115723 99.9725V0.0992432H99.9945V0.435461L99.9504 3.0315V3.36772L99.7961 6.33305L99.7464 7.02754L99.5591 9.30941L99.4764 10.1858L99.2063 12.5117L99.1291 13.1676L98.6882 16.1495L98.611 16.5905L98.1535 19.1093L97.9827 19.9637L97.4976 22.1959L97.3158 22.9841L96.5772 25.9549L96.4725 26.3132L95.9378 28.2148L95.6678 29.1022L95.2433 30.4911L94.9292 31.4447L94.4882 32.7565L94.1575 33.7045L93.667 35.0439L93.3418 35.9147L92.6969 37.5572L92.4875 38.0863L91.6001 40.1753L91.2528 40.9525L90.6465 42.2918L90.2331 43.1572L89.6379 44.3918L89.2024 45.2572L88.5631 46.5028L88.1387 47.3075L87.345 48.7516L87.0363 49.3138L85.9119 51.2485L85.5151 51.9043L84.7214 53.1941L84.2308 53.9658L83.4812 55.1232L82.9576 55.9004L82.445 56.65L80.323 59.6318L80.1797 59.8192L78.008 62.6192L77.6663 63.0436L75.3679 65.7664L74.9215 66.2735L72.4853 68.9302L72.2648 69.1562L69.8231 71.6089L69.4538 71.9727L66.8633 74.3758L66.3451 74.8333L63.6444 77.1427L63.3412 77.3908L60.668 79.4963L60.2767 79.7939L57.4271 81.8608L56.8483 82.2632L53.9161 84.2143L53.5303 84.4568L50.6531 86.2096L50.2563 86.4466L47.1807 88.1552L46.2492 88.6513L45.5107 89.0316L44.1658 89.704L43.5099 90.0292L41.7131 90.8781L41.4981 90.9773L39.4532 91.8812L38.858 92.1292L37.3863 92.741L36.6477 93.0332L35.2753 93.5623L34.5147 93.8489L33.0926 94.3615L32.3982 94.604L30.6123 95.1938L30.2761 95.304L28.1155 95.9654L27.5919 96.1142L25.9494 96.5717L25.2219 96.7646L23.7502 97.1339L22.9786 97.3213L21.4793 97.663L20.7683 97.8174L18.977 98.1812L18.5581 98.2638L16.3038 98.6607L15.8959 98.7268L14.066 99.0024L13.3605 99.0961L11.7952 99.2945L11.029 99.3827L9.45818 99.5426L8.74165 99.6087L6.93378 99.7465L6.46529 99.7796L4.13382 99.9008H3.91334L1.84091 99.967H1.18501L0.115723 99.978V99.9725Z" fill="#FFDC55"/>
<path fill-rule="evenodd" clip-rule="evenodd" d="M0.115723 83.8836V0.0992432H83.9001V0.881914C83.834 7.78816 82.908 14.7991 81.0395 21.777C71.1238 58.7665 37.8934 83.3269 1.39997 83.8781H0.115723V83.8836Z" fill="#FFAF01"/>
<path fill-rule="evenodd" clip-rule="evenodd" d="M0.115723 67.7948V0.0992432H67.8113V0.733096C67.7617 6.31652 67.0065 11.9771 65.4963 17.6156C57.4932 47.4949 30.6344 67.3428 1.14642 67.7893H0.115723V67.7948Z" fill="#FFDC55"/>
<path fill-rule="evenodd" clip-rule="evenodd" d="M0.115723 51.6949V0.0992432H51.7169V0.584279C51.6838 4.83936 51.1106 9.15508 49.9586 13.4543C43.9729 35.799 24.1471 50.7855 2.17163 51.6673L0.115723 51.7004V51.6949Z" fill="#FFAF01"/>
<path fill-rule="evenodd" clip-rule="evenodd" d="M0.115723 35.606V0.0992432H35.628V0.435461C35.606 3.36221 35.2091 6.33305 34.421 9.28736C30.2982 24.6597 16.651 34.9777 1.52673 35.584L0.115723 35.606Z" fill="#FFDC55"/>
<path fill-rule="evenodd" clip-rule="evenodd" d="M0.115723 19.5172V0.0992432H19.5392V0.286643C19.5282 1.88506 19.3132 3.51103 18.8778 5.12597C16.629 13.5259 9.14952 19.1755 0.881866 19.5117L0.115723 19.5227V19.5172Z" fill="#FFAF01"/>
</svg>
