<svg width="800" height="801" viewBox="0 0 800 801" fill="none" xmlns="http://www.w3.org/2000/svg">
<g opacity="0.1">
<path d="M0 400.495L400 400.495L400 0.494629L3.56074e-05 0.494593L0 400.495Z" fill="#FFAF01"/>
<path d="M0 400.495L400 400.495L400 0.494629L3.56074e-05 0.494593L0 400.495Z" fill="#FFAF01"/>
<path fill-rule="evenodd" clip-rule="evenodd" d="M399.537 0.604858L399.537 400.098L0.0220642 400.098L0.0220643 398.753L0.198487 388.369L0.198487 387.024L0.815737 375.163L1.01422 372.385L1.76377 363.257L2.09452 359.752L3.17481 350.448L3.48349 347.824L5.24723 335.897L5.55591 334.133L7.38587 324.057L8.06931 320.64L10.0095 311.711L10.7369 308.558L13.6913 296.675L14.1102 295.242L16.2487 287.636L17.329 284.086L19.0267 278.53L20.2834 274.716L22.0471 269.469L23.37 265.677L25.3321 260.319L26.6329 256.836L29.2124 250.266L30.0502 248.149L33.5997 239.793L34.9887 236.685L37.414 231.327L39.0675 227.866L41.4485 222.927L43.1903 219.466L45.7477 214.483L47.4454 211.265L50.6202 205.488L51.8548 203.239L56.3523 195.501L57.9398 192.877L61.1146 187.718L63.0767 184.632L66.0752 180.002L68.1695 176.893L70.22 173.895L78.7081 161.967L79.2814 161.218L87.9679 150.018L89.3348 148.32L98.5284 137.429L100.314 135.401L110.059 124.774L110.941 123.87L120.708 114.059L122.185 112.604L132.547 102.991L134.619 101.162L145.423 91.9238L146.635 90.9317L157.328 82.5097L158.893 81.3192L170.292 73.0515L172.607 71.4421L184.336 63.6374L185.879 62.6674L197.388 55.6564L198.975 54.7084L211.277 47.8738L215.003 45.8895L217.957 44.3683L223.337 41.6785L225.96 40.3778L233.148 36.9825L234.008 36.5857L242.187 32.97L244.568 31.9778L250.455 29.5306L253.409 28.3621L258.899 26.2456L261.941 25.0991L267.629 23.0488L270.407 22.0787L277.551 19.7197L278.895 19.2787L287.538 16.6331L289.632 16.0378L296.203 14.2079L299.113 13.4362L304.999 11.9591L308.086 11.2095L314.083 9.84258L316.927 9.22524L324.092 7.77014L325.768 7.43945L334.785 5.85205L336.416 5.58752L343.736 4.48516L346.558 4.11032L352.819 3.31665L355.884 2.96389L362.167 2.32452L365.033 2.05996L372.265 1.50879L374.139 1.37652L383.465 0.891478L384.347 0.891478L392.636 0.626922L395.26 0.626922L399.537 0.582825L399.537 0.604858Z" fill="white"/>
<path fill-rule="evenodd" clip-rule="evenodd" d="M399.537 64.9602L399.537 400.098L64.3995 400.098L64.3995 396.967C64.6641 369.342 68.368 341.298 75.842 313.387C115.505 165.429 248.426 67.1869 394.4 64.9823L399.537 64.9823L399.537 64.9602Z" fill="#FFAF01"/>
<path fill-rule="evenodd" clip-rule="evenodd" d="M399.537 129.316L399.537 400.098L128.755 400.098L128.755 397.562C128.953 375.229 131.974 352.586 138.015 330.032C170.027 210.515 277.463 131.123 395.414 129.338L399.537 129.338L399.537 129.316Z" fill="white"/>
<path fill-rule="evenodd" clip-rule="evenodd" d="M399.537 193.715L399.537 400.098L193.132 400.098L193.132 398.158C193.265 381.137 195.558 363.874 200.165 346.678C224.109 257.299 303.412 197.353 391.313 193.825L399.537 193.693L399.537 193.715Z" fill="#FFAF01"/>
<path fill-rule="evenodd" clip-rule="evenodd" d="M399.537 258.071L399.537 400.098L257.488 400.098L257.488 398.753C257.576 387.046 259.163 375.163 262.316 363.345C278.807 301.856 333.396 260.584 393.893 258.159L399.537 258.071Z" fill="white"/>
<path fill-rule="evenodd" clip-rule="evenodd" d="M399.537 322.426L399.537 400.098L321.843 400.098L321.843 399.348C321.887 392.955 322.747 386.451 324.489 379.991C333.484 346.391 363.402 323.793 396.473 322.448L399.537 322.404L399.537 322.426Z" fill="#FFAF01"/>
<path d="M400 0.494629L400 400.495L800 400.495L800 0.494682L400 0.494629Z" fill="#FFAF01"/>
<path d="M400 0.494629L400 400.495L800 400.495L800 0.494682L400 0.494629Z" fill="#FFAF01"/>
<path fill-rule="evenodd" clip-rule="evenodd" d="M799.89 400.032L400.397 400.032L400.397 0.516724L401.742 0.516724L412.126 0.693147L413.471 0.693147L425.332 1.3104L428.11 1.50888L437.238 2.2584L440.743 2.58915L450.047 3.66944L452.671 3.97813L464.598 5.74189L466.362 6.05058L476.437 7.8805L479.855 8.56398L488.784 10.5041L491.936 11.2316L503.82 14.186L505.253 14.6048L512.859 16.7434L516.409 17.8237L521.965 19.5213L525.779 20.778L531.026 22.5417L534.818 23.8646L540.175 25.8267L543.659 27.1276L550.229 29.7071L552.345 30.5449L560.701 34.0944L563.81 35.4834L569.167 37.9086L572.629 39.5622L577.567 41.9431L581.029 43.685L586.011 46.2424L589.23 47.94L595.007 51.1148L597.255 52.3495L604.994 56.847L607.617 58.4344L612.776 61.6093L615.863 63.5713L620.493 66.5698L623.602 68.6642L626.6 70.7147L638.527 79.2028L639.277 79.776L650.477 88.4626L652.175 89.8295L663.066 99.0231L665.094 100.809L675.721 110.554L676.625 111.436L686.436 121.202L687.891 122.68L697.503 133.042L699.333 135.114L708.571 145.917L709.563 147.13L717.985 157.823L719.176 159.388L727.443 170.786L729.053 173.101L736.857 184.83L737.827 186.374L744.838 197.882L745.786 199.47L752.621 211.772L754.605 215.498L756.126 218.452L758.816 223.832L760.117 226.455L763.512 233.643L763.909 234.502L767.525 242.682L768.517 245.063L770.964 250.95L772.133 253.904L774.249 259.393L775.396 262.436L777.446 268.124L778.416 270.902L780.775 278.045L781.216 279.39L783.862 288.033L784.457 290.127L786.287 296.697L787.059 299.607L788.536 305.494L789.285 308.58L790.652 314.577L791.27 317.421L792.725 324.587L793.055 326.262L794.643 335.28L794.907 336.911L796.01 344.231L796.384 347.053L797.178 353.314L797.531 356.379L798.17 362.662L798.435 365.528L798.986 372.76L799.118 374.634L799.603 383.959L799.603 384.841L799.868 393.131L799.868 395.755L799.912 400.032L799.89 400.032Z" fill="white"/>
<path fill-rule="evenodd" clip-rule="evenodd" d="M735.534 400.032L400.397 400.032L400.397 64.8942L403.528 64.8942C431.153 65.1588 459.197 68.8627 487.108 76.3367C635.066 115.999 733.308 248.921 735.512 394.895L735.512 400.032L735.534 400.032Z" fill="#FFAF01"/>
<path fill-rule="evenodd" clip-rule="evenodd" d="M671.179 400.032L400.397 400.032L400.397 129.25L402.932 129.25C425.266 129.448 447.908 132.469 470.463 138.509C589.98 170.522 669.371 277.957 671.157 395.909L671.157 400.032L671.179 400.032Z" fill="white"/>
<path fill-rule="evenodd" clip-rule="evenodd" d="M606.78 400.032L400.397 400.032L400.397 193.627L402.337 193.627C419.357 193.759 436.62 196.052 453.817 200.66C543.196 224.603 603.142 303.907 606.669 391.808L606.802 400.032L606.78 400.032Z" fill="#FFAF01"/>
<path fill-rule="evenodd" clip-rule="evenodd" d="M542.424 400.032L400.397 400.032L400.397 257.983L401.742 257.983C413.449 258.071 425.332 259.658 437.149 262.811C498.639 279.302 539.911 333.891 542.336 394.388L542.424 400.032Z" fill="white"/>
<path fill-rule="evenodd" clip-rule="evenodd" d="M478.069 400.032L400.397 400.032L400.397 322.338L401.147 322.338C407.54 322.382 414.044 323.242 420.504 324.983C454.104 333.979 476.702 363.897 478.047 396.967L478.091 400.032L478.069 400.032Z" fill="#FFAF01"/>
<path d="M400 800.495L400 400.495L0 400.495L-1.78037e-05 800.495L400 800.495Z" fill="#FFDC55"/>
<path d="M400 800.495L400 400.495L0 400.495L-1.78037e-05 800.495L400 800.495Z" fill="#FFDC55"/>
<path fill-rule="evenodd" clip-rule="evenodd" d="M0.110107 400.957L399.603 400.957L399.603 800.472L398.258 800.472L387.874 800.296L386.529 800.296L374.668 799.679L371.89 799.48L362.762 798.731L359.257 798.4L349.953 797.32L347.329 797.011L335.402 795.247L333.638 794.939L323.563 793.109L320.145 792.425L311.216 790.485L308.064 789.758L296.18 786.803L294.747 786.384L287.141 784.246L283.591 783.166L278.035 781.468L274.221 780.211L268.974 778.447L265.182 777.125L259.825 775.162L256.341 773.862L249.771 771.282L247.655 770.444L239.299 766.895L236.19 765.506L230.833 763.081L227.371 761.427L222.433 759.046L218.971 757.304L213.989 754.747L210.77 753.049L204.993 749.874L202.745 748.64L195.006 744.142L192.383 742.555L187.224 739.38L184.137 737.418L179.507 734.419L176.398 732.325L173.4 730.275L161.473 721.786L160.723 721.213L149.523 712.527L147.825 711.16L136.934 701.966L134.906 700.18L124.279 690.436L123.375 689.554L113.564 679.787L112.109 678.31L102.497 667.948L100.667 665.875L91.4291 655.072L90.4369 653.859L82.015 643.167L80.8244 641.601L72.5568 630.203L70.9473 627.888L63.1427 616.159L62.1726 614.616L55.1616 603.107L54.2136 601.52L47.379 589.217L45.3948 585.491L43.8735 582.537L41.1838 577.158L39.883 574.534L36.4878 567.347L36.0909 566.487L32.4752 558.307L31.4831 555.926L29.0359 550.04L27.8673 547.085L25.7508 541.596L24.6044 538.553L22.554 532.865L21.5839 530.087L19.2249 522.944L18.784 521.599L16.1383 512.957L15.5431 510.862L13.7131 504.292L12.9415 501.382L11.4644 495.495L10.7147 492.409L9.34784 486.412L8.7305 483.568L7.27539 476.403L6.9447 474.727L5.3573 465.71L5.09277 464.078L3.99042 456.759L3.61557 453.937L2.8219 447.675L2.46914 444.611L1.82977 438.327L1.56521 435.461L1.01404 428.23L0.881774 426.356L0.396728 417.03L0.396728 416.148L0.132171 407.858L0.132171 405.235L0.0880737 400.957L0.110107 400.957Z" fill="white"/>
<path fill-rule="evenodd" clip-rule="evenodd" d="M64.4655 400.957L399.603 400.957L399.603 736.095L396.472 736.095C368.847 735.83 340.803 732.126 312.892 724.653C164.934 684.99 66.6923 552.068 64.4875 406.094L64.4875 400.957L64.4655 400.957Z" fill="#FFDC55"/>
<path fill-rule="evenodd" clip-rule="evenodd" d="M128.821 400.957L399.603 400.957L399.603 671.74L397.068 671.74C374.734 671.541 352.092 668.521 329.537 662.48C210.02 630.467 130.629 523.032 128.843 405.08L128.843 400.957L128.821 400.957Z" fill="white"/>
<path fill-rule="evenodd" clip-rule="evenodd" d="M193.22 400.957L399.603 400.957L399.603 607.362L397.663 607.362C380.643 607.23 363.38 604.937 346.183 600.329C256.804 576.386 196.858 497.083 193.331 409.181L193.198 400.957L193.22 400.957Z" fill="#FFDC55"/>
<path fill-rule="evenodd" clip-rule="evenodd" d="M257.576 400.957L399.603 400.957L399.603 543.007L398.258 543.007C386.551 542.918 374.668 541.331 362.851 538.178C301.361 521.687 260.089 467.099 257.664 406.601L257.576 400.957Z" fill="white"/>
<path fill-rule="evenodd" clip-rule="evenodd" d="M321.931 400.957L399.603 400.957L399.603 478.651L398.853 478.651C392.46 478.607 385.956 477.747 379.496 476.006C345.896 467.011 323.298 437.093 321.953 404.022L321.909 400.957L321.931 400.957Z" fill="#FFDC55"/>
<path d="M800 400.495H400V800.495H800V400.495Z" fill="#FFDC55"/>
<path d="M800 400.495H400V800.495H800V400.495Z" fill="#FFDC55"/>
<path fill-rule="evenodd" clip-rule="evenodd" d="M400.463 800.384V400.891H799.978V402.236L799.802 412.621V413.965L799.184 425.827L798.986 428.605L798.236 437.732L797.905 441.238L796.825 450.541L796.517 453.165L794.753 465.093L794.444 466.856L792.614 476.932L791.931 480.349L789.991 489.278L789.263 492.431L786.309 504.314L785.89 505.747L783.751 513.354L782.671 516.903L780.973 522.459L779.717 526.273L777.953 531.52L776.63 535.312L774.668 540.67L773.367 544.153L770.788 550.723L769.95 552.84L766.4 561.196L765.011 564.304L762.586 569.662L760.932 573.123L758.552 578.062L756.81 581.523L754.252 586.506L752.555 589.725L749.38 595.501L748.145 597.75L743.648 605.488L742.06 608.112L738.885 613.271L736.923 616.358L733.925 620.987L731.83 624.096L729.78 627.094L721.292 639.022L720.719 639.771L712.032 650.971L710.665 652.669L701.472 663.56L699.686 665.589L689.941 676.215L689.059 677.119L679.292 686.93L677.815 688.385L667.453 697.998L665.381 699.828L654.577 709.065L653.365 710.058L642.672 718.48L641.107 719.67L629.708 727.938L627.393 729.547L615.664 737.352L614.121 738.322L602.612 745.333L601.025 746.281L588.723 753.115L584.997 755.1L582.043 756.621L576.663 759.311L574.04 760.611L566.852 764.007L565.992 764.404L557.813 768.019L555.432 769.011L549.545 771.459L546.591 772.627L541.101 774.744L538.059 775.89L532.371 777.94L529.593 778.911L522.449 781.27L521.105 781.711L512.462 784.356L510.368 784.951L503.798 786.781L500.887 787.553L495.001 789.03L491.914 789.78L485.917 791.147L483.073 791.764L475.908 793.219L474.232 793.55L465.215 795.137L463.584 795.402L456.264 796.504L453.442 796.879L447.181 797.673L444.116 798.025L437.833 798.665L434.967 798.929L427.735 799.48L425.861 799.613L416.535 800.098H415.653L407.364 800.362H404.74L400.463 800.406V800.384Z" fill="white"/>
<path fill-rule="evenodd" clip-rule="evenodd" d="M400.463 736.029V400.891H735.6V404.022C735.336 431.647 731.632 459.691 724.158 487.603C684.495 635.561 551.574 733.802 405.6 736.007H400.463V736.029Z" fill="#FFDC55"/>
<path fill-rule="evenodd" clip-rule="evenodd" d="M400.463 671.674V400.891H671.245V403.427C671.047 425.761 668.026 448.403 661.985 470.957C629.973 590.474 522.538 669.866 404.586 671.652H400.463V671.674Z" fill="white"/>
<path fill-rule="evenodd" clip-rule="evenodd" d="M400.463 607.274V400.891H606.868V402.832C606.735 419.852 604.442 437.115 599.835 454.312C575.891 543.69 496.588 603.636 408.687 607.164L400.463 607.296V607.274Z" fill="#FFDC55"/>
<path fill-rule="evenodd" clip-rule="evenodd" d="M400.463 542.919V400.891H542.512V402.236C542.424 413.943 540.837 425.827 537.684 437.644C521.193 499.133 466.604 540.405 406.107 542.831L400.463 542.919Z" fill="white"/>
<path fill-rule="evenodd" clip-rule="evenodd" d="M400.463 478.563V400.891H478.157V401.641C478.113 408.035 477.253 414.539 475.511 420.998C466.516 454.598 436.598 477.196 403.527 478.541L400.463 478.585V478.563Z" fill="#FFDC55"/>
</g>
</svg>
